<svg version="1.1" viewBox="0.0 0.0 300.0 300.0" fill="none" stroke="none" stroke-linecap="square" stroke-miterlimit="10" xmlns:xlink="http://www.w3.org/1999/xlink" xmlns="http://www.w3.org/2000/svg"><clipPath id="p.0"><path d="m0 0l300.0 0l0 300.0l-300.0 0l0 -300.0z" clip-rule="nonzero"/></clipPath><g clip-path="url(#p.0)"><path fill="#000000" fill-opacity="0.0" d="m0 0l300.0 0l0 300.0l-300.0 0z" fill-rule="evenodd"/><path fill="#ffffff" d="m8.267716 121.65354l56.692917 0l0 56.69291l-56.692917 0z" fill-rule="evenodd"/><path stroke="#000000" stroke-width="4.0" stroke-linejoin="round" stroke-linecap="butt" d="m8.267716 121.65354l56.692917 0l0 56.69291l-56.692917 0z" fill-rule="evenodd"/><path fill="#ffffff" d="m64.96063 121.65354l56.69291 0l0 56.69291l-56.69291 0z" fill-rule="evenodd"/><path stroke="#000000" stroke-width="4.0" stroke-linejoin="round" stroke-linecap="butt" d="m64.96063 121.65354l56.69291 0l0 56.69291l-56.69291 0z" fill-rule="evenodd"/><path fill="#ffffff" d="m121.65354 121.65354l56.69291 0l0 56.69291l-56.69291 0z" fill-rule="evenodd"/><path stroke="#000000" stroke-width="4.0" stroke-linejoin="round" stroke-linecap="butt" d="m121.65354 121.65354l56.69291 0l0 56.69291l-56.69291 0z" fill-rule="evenodd"/><path fill="#ffffff" d="m178.34645 121.65354l56.692917 0l0 56.69291l-56.692917 0z" fill-rule="evenodd"/><path stroke="#000000" stroke-width="4.0" stroke-linejoin="round" stroke-linecap="butt" d="m178.34645 121.65354l56.692917 0l0 56.69291l-56.692917 0z" fill-rule="evenodd"/><path fill="#ffffff" d="m235.03937 121.65354l56.6929 0l0 56.69291l-56.6929 0z" fill-rule="evenodd"/><path stroke="#000000" stroke-width="4.0" stroke-linejoin="round" stroke-linecap="butt" d="m235.03937 121.65354l56.6929 0l0 56.69291l-56.6929 0z" fill-rule="evenodd"/></g></svg>