<svg version="1.1" viewBox="0.0 0.0 300.0 300.0" fill="none" stroke="none" stroke-linecap="square" stroke-miterlimit="10" xmlns:xlink="http://www.w3.org/1999/xlink" xmlns="http://www.w3.org/2000/svg"><clipPath id="p.0"><path d="m0 0l300.0 0l0 300.0l-300.0 0l0 -300.0z" clip-rule="nonzero"/></clipPath><g clip-path="url(#p.0)"><path fill="#000000" fill-opacity="0.0" d="m0 0l300.0 0l0 300.0l-300.0 0z" fill-rule="evenodd"/><path fill="#ffffff" d="m4.5354333 121.65354l96.97638 0l0 56.69291l-96.97638 0z" fill-rule="evenodd"/><path stroke="#000000" stroke-width="4.0" stroke-linejoin="round" stroke-linecap="butt" d="m4.5354333 121.65354l96.97638 0l0 56.69291l-96.97638 0z" fill-rule="evenodd"/><path fill="#ffffff" d="m101.51181 121.65354l96.97638 0l0 56.69291l-96.97638 0z" fill-rule="evenodd"/><path stroke="#000000" stroke-width="4.0" stroke-linejoin="round" stroke-linecap="butt" d="m101.51181 121.65354l96.97638 0l0 56.69291l-96.97638 0z" fill-rule="evenodd"/><path fill="#ffffff" d="m198.48819 121.65354l96.97638 0l0 56.69291l-96.97638 0z" fill-rule="evenodd"/><path stroke="#000000" stroke-width="4.0" stroke-linejoin="round" stroke-linecap="butt" d="m198.48819 121.65354l96.97638 0l0 56.69291l-96.97638 0z" fill-rule="evenodd"/><path fill="#ffffff" d="m4.5354333 178.34645l96.97638 0l0 56.692917l-96.97638 0z" fill-rule="evenodd"/><path stroke="#000000" stroke-width="4.0" stroke-linejoin="round" stroke-linecap="butt" d="m4.5354333 178.34645l96.97638 0l0 56.692917l-96.97638 0z" fill-rule="evenodd"/><path fill="#ffffff" d="m101.51181 178.34645l96.97638 0l0 56.692917l-96.97638 0z" fill-rule="evenodd"/><path stroke="#000000" stroke-width="4.0" stroke-linejoin="round" stroke-linecap="butt" d="m101.51181 178.34645l96.97638 0l0 56.692917l-96.97638 0z" fill-rule="evenodd"/><path fill="#ffffff" d="m198.48819 178.34645l96.97638 0l0 56.692917l-96.97638 0z" fill-rule="evenodd"/><path stroke="#000000" stroke-width="4.0" stroke-linejoin="round" stroke-linecap="butt" d="m198.48819 178.34645l96.97638 0l0 56.692917l-96.97638 0z" fill-rule="evenodd"/><path fill="#ffffff" d="m4.5354333 235.03937l96.97638 0l0 56.6929l-96.97638 0z" fill-rule="evenodd"/><path stroke="#000000" stroke-width="4.0" stroke-linejoin="round" stroke-linecap="butt" d="m4.5354333 235.03937l96.97638 0l0 56.6929l-96.97638 0z" fill-rule="evenodd"/><path fill="#ffffff" d="m101.51181 235.03937l96.97638 0l0 56.6929l-96.97638 0z" fill-rule="evenodd"/><path stroke="#000000" stroke-width="4.0" stroke-linejoin="round" stroke-linecap="butt" d="m101.51181 235.03937l96.97638 0l0 56.6929l-96.97638 0z" fill-rule="evenodd"/><path fill="#ffffff" d="m198.48819 235.03937l96.97638 0l0 56.6929l-96.97638 0z" fill-rule="evenodd"/><path stroke="#000000" stroke-width="4.0" stroke-linejoin="round" stroke-linecap="butt" d="m198.48819 235.03937l96.97638 0l0 56.6929l-96.97638 0z" fill-rule="evenodd"/><path fill="#ffffff" d="m4.5354333 64.96063l96.97638 0l0 56.69291l-96.97638 0z" fill-rule="evenodd"/><path stroke="#000000" stroke-width="4.0" stroke-linejoin="round" stroke-linecap="butt" d="m4.5354333 64.96063l96.97638 0l0 56.69291l-96.97638 0z" fill-rule="evenodd"/><path fill="#ffffff" d="m101.51181 64.96063l96.97638 0l0 56.69291l-96.97638 0z" fill-rule="evenodd"/><path stroke="#000000" stroke-width="4.0" stroke-linejoin="round" stroke-linecap="butt" d="m101.51181 64.96063l96.97638 0l0 56.69291l-96.97638 0z" fill-rule="evenodd"/><path fill="#ffffff" d="m198.48819 64.96063l96.97638 0l0 56.69291l-96.97638 0z" fill-rule="evenodd"/><path stroke="#000000" stroke-width="4.0" stroke-linejoin="round" stroke-linecap="butt" d="m198.48819 64.96063l96.97638 0l0 56.69291l-96.97638 0z" fill-rule="evenodd"/><path fill="#ffffff" d="m4.5354333 8.267716l96.97638 0l0 56.692917l-96.97638 0z" fill-rule="evenodd"/><path stroke="#000000" stroke-width="4.0" stroke-linejoin="round" stroke-linecap="butt" d="m4.5354333 8.267716l96.97638 0l0 56.692917l-96.97638 0z" fill-rule="evenodd"/><path fill="#ffffff" d="m101.51181 8.267716l96.97638 0l0 56.692917l-96.97638 0z" fill-rule="evenodd"/><path stroke="#000000" stroke-width="4.0" stroke-linejoin="round" stroke-linecap="butt" d="m101.51181 8.267716l96.97638 0l0 56.692917l-96.97638 0z" fill-rule="evenodd"/><path fill="#ffffff" d="m198.48819 8.267716l96.97638 0l0 56.692917l-96.97638 0z" fill-rule="evenodd"/><path stroke="#000000" stroke-width="4.0" stroke-linejoin="round" stroke-linecap="butt" d="m198.48819 8.267716l96.97638 0l0 56.692917l-96.97638 0z" fill-rule="evenodd"/><path fill="#000000" d="m16.661417 17.448818l72.72441 0l0 38.330708l-72.72441 0z" fill-rule="evenodd"/><path stroke="#000000" stroke-width="4.0" stroke-linejoin="round" stroke-linecap="butt" d="m16.661417 17.448818l72.72441 0l0 38.330708l-72.72441 0z" fill-rule="evenodd"/><path fill="#000000" d="m113.637794 17.448818l72.7244 0l0 38.330708l-72.7244 0z" fill-rule="evenodd"/><path stroke="#000000" stroke-width="4.0" stroke-linejoin="round" stroke-linecap="butt" d="m113.637794 17.448818l72.7244 0l0 38.330708l-72.7244 0z" fill-rule="evenodd"/><path fill="#000000" d="m210.61417 17.448818l72.72443 0l0 38.330708l-72.72443 0z" fill-rule="evenodd"/><path stroke="#000000" stroke-width="4.0" stroke-linejoin="round" stroke-linecap="butt" d="m210.61417 17.448818l72.72443 0l0 38.330708l-72.72443 0z" fill-rule="evenodd"/></g></svg>