<svg version="1.1" viewBox="0.0 0.0 300.0 300.0" fill="none" stroke="none" stroke-linecap="square" stroke-miterlimit="10" xmlns:xlink="http://www.w3.org/1999/xlink" xmlns="http://www.w3.org/2000/svg"><clipPath id="p.0"><path d="m0 0l300.0 0l0 300.0l-300.0 0l0 -300.0z" clip-rule="nonzero"/></clipPath><g clip-path="url(#p.0)"><path fill="#000000" fill-opacity="0.0" d="m0 0l300.0 0l0 300.0l-300.0 0z" fill-rule="evenodd"/><path fill="#ffffff" d="m8.267716 121.65354l56.692917 0l0 56.69291l-56.692917 0z" fill-rule="evenodd"/><path stroke="#000000" stroke-width="4.0" stroke-linejoin="round" stroke-linecap="butt" d="m8.267716 121.65354l56.692917 0l0 56.69291l-56.692917 0z" fill-rule="evenodd"/><path fill="#000000" fill-opacity="0.0" d="m8.834645 150.0l27.77953 -28.346458" fill-rule="evenodd"/><path stroke="#000000" stroke-width="1.0" stroke-linejoin="round" stroke-linecap="butt" d="m8.834645 150.0l27.77953 -28.346458" fill-rule="evenodd"/><path fill="#000000" fill-opacity="0.0" d="m8.834645 135.74803l13.228347 -14.110237" fill-rule="evenodd"/><path stroke="#000000" stroke-width="1.0" stroke-linejoin="round" stroke-linecap="butt" d="m8.834645 135.74803l13.228347 -14.110237" fill-rule="evenodd"/><path fill="#000000" fill-opacity="0.0" d="m36.614174 178.34645l27.779526 -28.34645" fill-rule="evenodd"/><path stroke="#000000" stroke-width="1.0" stroke-linejoin="round" stroke-linecap="butt" d="m36.614174 178.34645l27.779526 -28.34645" fill-rule="evenodd"/><path fill="#000000" fill-opacity="0.0" d="m51.165356 178.34645l13.228344 -14.1102295" fill-rule="evenodd"/><path stroke="#000000" stroke-width="1.0" stroke-linejoin="round" stroke-linecap="butt" d="m51.165356 178.34645l13.228344 -14.1102295" fill-rule="evenodd"/><path fill="#000000" fill-opacity="0.0" d="m8.824147 178.99213l56.724407 -56.72441" fill-rule="evenodd"/><path stroke="#000000" stroke-width="1.0" stroke-linejoin="round" stroke-linecap="butt" d="m8.824147 178.99213l56.724407 -56.72441" fill-rule="evenodd"/><path fill="#000000" fill-opacity="0.0" d="m8.834645 164.80315l42.204727 -42.519684" fill-rule="evenodd"/><path stroke="#000000" stroke-width="1.0" stroke-linejoin="round" stroke-linecap="butt" d="m8.834645 164.80315l42.204727 -42.519684" fill-rule="evenodd"/><path fill="#000000" fill-opacity="0.0" d="m23.386158 178.08693l42.204723 -42.5197" fill-rule="evenodd"/><path stroke="#000000" stroke-width="1.0" stroke-linejoin="round" stroke-linecap="butt" d="m23.386158 178.08693l42.204723 -42.5197" fill-rule="evenodd"/><path fill="#ffffff" d="m64.3937 121.968506l56.692917 0l0 56.692917l-56.692917 0z" fill-rule="evenodd"/><path stroke="#000000" stroke-width="4.0" stroke-linejoin="round" stroke-linecap="butt" d="m64.3937 121.968506l56.692917 0l0 56.692917l-56.692917 0z" fill-rule="evenodd"/><path fill="#000000" fill-opacity="0.0" d="m64.96063 150.31496l27.779526 -28.34645" fill-rule="evenodd"/><path stroke="#000000" stroke-width="1.0" stroke-linejoin="round" stroke-linecap="butt" d="m64.96063 150.31496l27.779526 -28.34645" fill-rule="evenodd"/><path fill="#000000" fill-opacity="0.0" d="m64.96063 136.06299l13.228348 -14.1102295" fill-rule="evenodd"/><path stroke="#000000" stroke-width="1.0" stroke-linejoin="round" stroke-linecap="butt" d="m64.96063 136.06299l13.228348 -14.1102295" fill-rule="evenodd"/><path fill="#000000" fill-opacity="0.0" d="m92.74016 178.66142l27.779526 -28.346466" fill-rule="evenodd"/><path stroke="#000000" stroke-width="1.0" stroke-linejoin="round" stroke-linecap="butt" d="m92.74016 178.66142l27.779526 -28.346466" fill-rule="evenodd"/><path fill="#000000" fill-opacity="0.0" d="m107.291336 178.66142l13.228348 -14.110245" fill-rule="evenodd"/><path stroke="#000000" stroke-width="1.0" stroke-linejoin="round" stroke-linecap="butt" d="m107.291336 178.66142l13.228348 -14.110245" fill-rule="evenodd"/><path fill="#000000" fill-opacity="0.0" d="m64.950134 179.30708l56.724403 -56.724403" fill-rule="evenodd"/><path stroke="#000000" stroke-width="1.0" stroke-linejoin="round" stroke-linecap="butt" d="m64.950134 179.30708l56.724403 -56.724403" fill-rule="evenodd"/><path fill="#000000" fill-opacity="0.0" d="m64.96063 165.1181l42.20472 -42.519676" fill-rule="evenodd"/><path stroke="#000000" stroke-width="1.0" stroke-linejoin="round" stroke-linecap="butt" d="m64.96063 165.1181l42.20472 -42.519676" fill-rule="evenodd"/><path fill="#000000" fill-opacity="0.0" d="m79.51214 178.40189l42.204727 -42.519684" fill-rule="evenodd"/><path stroke="#000000" stroke-width="1.0" stroke-linejoin="round" stroke-linecap="butt" d="m79.51214 178.40189l42.204727 -42.519684" fill-rule="evenodd"/><path fill="#ffffff" d="m121.08662 121.65354l56.69291 0l0 56.69291l-56.69291 0z" fill-rule="evenodd"/><path stroke="#000000" stroke-width="4.0" stroke-linejoin="round" stroke-linecap="butt" d="m121.08662 121.65354l56.69291 0l0 56.69291l-56.69291 0z" fill-rule="evenodd"/><path fill="#000000" fill-opacity="0.0" d="m121.65354 150.0l27.779533 -28.346458" fill-rule="evenodd"/><path stroke="#000000" stroke-width="1.0" stroke-linejoin="round" stroke-linecap="butt" d="m121.65354 150.0l27.779533 -28.346458" fill-rule="evenodd"/><path fill="#000000" fill-opacity="0.0" d="m121.65354 135.74803l13.228355 -14.110237" fill-rule="evenodd"/><path stroke="#000000" stroke-width="1.0" stroke-linejoin="round" stroke-linecap="butt" d="m121.65354 135.74803l13.228355 -14.110237" fill-rule="evenodd"/><path fill="#000000" fill-opacity="0.0" d="m149.43307 178.34645l27.779526 -28.34645" fill-rule="evenodd"/><path stroke="#000000" stroke-width="1.0" stroke-linejoin="round" stroke-linecap="butt" d="m149.43307 178.34645l27.779526 -28.34645" fill-rule="evenodd"/><path fill="#000000" fill-opacity="0.0" d="m163.98425 178.34645l13.228348 -14.1102295" fill-rule="evenodd"/><path stroke="#000000" stroke-width="1.0" stroke-linejoin="round" stroke-linecap="butt" d="m163.98425 178.34645l13.228348 -14.1102295" fill-rule="evenodd"/><path fill="#000000" fill-opacity="0.0" d="m121.64304 178.99213l56.724403 -56.72441" fill-rule="evenodd"/><path stroke="#000000" stroke-width="1.0" stroke-linejoin="round" stroke-linecap="butt" d="m121.64304 178.99213l56.724403 -56.72441" fill-rule="evenodd"/><path fill="#000000" fill-opacity="0.0" d="m121.65354 164.80315l42.20472 -42.519684" fill-rule="evenodd"/><path stroke="#000000" stroke-width="1.0" stroke-linejoin="round" stroke-linecap="butt" d="m121.65354 164.80315l42.20472 -42.519684" fill-rule="evenodd"/><path fill="#000000" fill-opacity="0.0" d="m136.20506 178.08693l42.204712 -42.5197" fill-rule="evenodd"/><path stroke="#000000" stroke-width="1.0" stroke-linejoin="round" stroke-linecap="butt" d="m136.20506 178.08693l42.204712 -42.5197" fill-rule="evenodd"/><path fill="#ffffff" d="m177.2126 121.338585l56.692917 0l0 56.69291l-56.692917 0z" fill-rule="evenodd"/><path stroke="#000000" stroke-width="4.0" stroke-linejoin="round" stroke-linecap="butt" d="m177.2126 121.338585l56.692917 0l0 56.69291l-56.692917 0z" fill-rule="evenodd"/><path fill="#000000" fill-opacity="0.0" d="m177.77953 149.68504l27.779526 -28.346458" fill-rule="evenodd"/><path stroke="#000000" stroke-width="1.0" stroke-linejoin="round" stroke-linecap="butt" d="m177.77953 149.68504l27.779526 -28.346458" fill-rule="evenodd"/><path fill="#000000" fill-opacity="0.0" d="m177.77953 135.43307l13.228348 -14.110237" fill-rule="evenodd"/><path stroke="#000000" stroke-width="1.0" stroke-linejoin="round" stroke-linecap="butt" d="m177.77953 135.43307l13.228348 -14.110237" fill-rule="evenodd"/><path fill="#000000" fill-opacity="0.0" d="m205.55905 178.0315l27.779526 -28.34645" fill-rule="evenodd"/><path stroke="#000000" stroke-width="1.0" stroke-linejoin="round" stroke-linecap="butt" d="m205.55905 178.0315l27.779526 -28.34645" fill-rule="evenodd"/><path fill="#000000" fill-opacity="0.0" d="m220.11023 178.0315l13.228348 -14.1102295" fill-rule="evenodd"/><path stroke="#000000" stroke-width="1.0" stroke-linejoin="round" stroke-linecap="butt" d="m220.11023 178.0315l13.228348 -14.1102295" fill-rule="evenodd"/><path fill="#000000" fill-opacity="0.0" d="m177.76903 178.67717l56.72441 -56.72441" fill-rule="evenodd"/><path stroke="#000000" stroke-width="1.0" stroke-linejoin="round" stroke-linecap="butt" d="m177.76903 178.67717l56.72441 -56.72441" fill-rule="evenodd"/><path fill="#000000" fill-opacity="0.0" d="m177.77953 164.48819l42.204727 -42.519684" fill-rule="evenodd"/><path stroke="#000000" stroke-width="1.0" stroke-linejoin="round" stroke-linecap="butt" d="m177.77953 164.48819l42.204727 -42.519684" fill-rule="evenodd"/><path fill="#000000" fill-opacity="0.0" d="m192.33104 177.77196l42.204727 -42.519684" fill-rule="evenodd"/><path stroke="#000000" stroke-width="1.0" stroke-linejoin="round" stroke-linecap="butt" d="m192.33104 177.77196l42.204727 -42.519684" fill-rule="evenodd"/><path fill="#ffffff" d="m233.90552 121.02362l56.6929 0l0 56.692917l-56.6929 0z" fill-rule="evenodd"/><path stroke="#000000" stroke-width="4.0" stroke-linejoin="round" stroke-linecap="butt" d="m233.90552 121.02362l56.6929 0l0 56.692917l-56.6929 0z" fill-rule="evenodd"/><path fill="#000000" fill-opacity="0.0" d="m234.47244 149.37007l27.779541 -28.34645" fill-rule="evenodd"/><path stroke="#000000" stroke-width="1.0" stroke-linejoin="round" stroke-linecap="butt" d="m234.47244 149.37007l27.779541 -28.34645" fill-rule="evenodd"/><path fill="#000000" fill-opacity="0.0" d="m234.47244 135.1181l13.228348 -14.1102295" fill-rule="evenodd"/><path stroke="#000000" stroke-width="1.0" stroke-linejoin="round" stroke-linecap="butt" d="m234.47244 135.1181l13.228348 -14.1102295" fill-rule="evenodd"/><path fill="#000000" fill-opacity="0.0" d="m262.25198 177.71654l27.77951 -28.346466" fill-rule="evenodd"/><path stroke="#000000" stroke-width="1.0" stroke-linejoin="round" stroke-linecap="butt" d="m262.25198 177.71654l27.77951 -28.346466" fill-rule="evenodd"/><path fill="#000000" fill-opacity="0.0" d="m276.80316 177.71654l13.2283325 -14.110245" fill-rule="evenodd"/><path stroke="#000000" stroke-width="1.0" stroke-linejoin="round" stroke-linecap="butt" d="m276.80316 177.71654l13.2283325 -14.110245" fill-rule="evenodd"/><path fill="#000000" fill-opacity="0.0" d="m234.46194 178.3622l56.724396 -56.724403" fill-rule="evenodd"/><path stroke="#000000" stroke-width="1.0" stroke-linejoin="round" stroke-linecap="butt" d="m234.46194 178.3622l56.724396 -56.724403" fill-rule="evenodd"/><path fill="#000000" fill-opacity="0.0" d="m234.47244 164.17323l42.204712 -42.51969" fill-rule="evenodd"/><path stroke="#000000" stroke-width="1.0" stroke-linejoin="round" stroke-linecap="butt" d="m234.47244 164.17323l42.204712 -42.51969" fill-rule="evenodd"/><path fill="#000000" fill-opacity="0.0" d="m249.02396 177.457l42.204712 -42.519684" fill-rule="evenodd"/><path stroke="#000000" stroke-width="1.0" stroke-linejoin="round" stroke-linecap="butt" d="m249.02396 177.457l42.204712 -42.519684" fill-rule="evenodd"/></g></svg>