<?xml version="1.0" standalone="no"?>
<!DOCTYPE svg PUBLIC "-//W3C//DTD SVG 20010904//EN"
 "http://www.w3.org/TR/2001/REC-SVG-20010904/DTD/svg10.dtd">
<svg version="1.0" xmlns="http://www.w3.org/2000/svg"
 width="200.000000pt" height="200.000000pt" viewBox="0 0 200.000000 200.000000"
 preserveAspectRatio="xMidYMid meet">

<g transform="translate(0.000000,200.000000) scale(0.100000,-0.100000)"
fill="#000000" stroke="none">
<path d="M647 1803 c-4 -3 3 -17 15 -30 l21 -23 -21 -23 c-29 -31 -16 -44 15
-15 l23 21 23 -21 c31 -29 44 -16 15 15 l-21 23 21 23 c29 31 16 44 -15 15
l-23 -21 -23 21 c-13 12 -27 19 -30 15z"/>
<path d="M901 1689 c-373 -56 -641 -406 -591 -772 23 -164 87 -295 199 -408
212 -212 526 -264 797 -132 183 88 323 263 370 460 22 88 22 238 0 326 -47
198 -194 378 -380 467 -113 53 -273 77 -395 59z m268 -35 c179 -45 350 -182
429 -344 56 -113 75 -194 75 -310 0 -186 -65 -343 -198 -475 -132 -133 -289
-198 -475 -198 -186 0 -344 65 -476 197 -132 132 -197 290 -197 476 0 186 65
344 197 475 175 174 409 239 645 179z"/>
<path d="M817 1392 c-18 -19 -22 -59 -9 -78 16 -24 51 -35 75 -23 29 16 37 28
37 60 0 52 -69 79 -103 41z"/>
<path d="M1307 1403 c-4 -3 3 -17 15 -30 l21 -23 -21 -23 c-29 -31 -16 -44 15
-15 l23 21 23 -21 c13 -12 27 -19 30 -15 4 3 -3 17 -15 30 l-21 23 21 23 c29
31 16 44 -15 15 l-23 -21 -23 21 c-13 12 -27 19 -30 15z"/>
<path d="M955 1045 c-21 -20 -25 -32 -20 -53 9 -38 29 -55 65 -55 39 0 63 24
63 63 0 36 -17 56 -55 65 -21 5 -33 1 -53 -20z m75 -15 c11 -11 20 -24 20 -30
0 -5 -9 -19 -20 -30 -11 -11 -24 -20 -30 -20 -5 0 -19 9 -30 20 -11 11 -20 25
-20 30 0 6 9 19 20 30 11 11 25 20 30 20 6 0 19 -9 30 -20z"/>
<path d="M507 923 c-4 -3 3 -17 15 -30 l21 -23 -21 -23 c-29 -31 -16 -44 15
-15 l23 21 23 -21 c31 -29 44 -16 15 15 l-21 23 21 23 c29 31 16 44 -15 15
l-23 -21 -23 21 c-13 12 -27 19 -30 15z"/>
<path d="M1367 863 c-4 -3 3 -17 15 -30 l21 -23 -21 -23 c-29 -31 -16 -44 15
-15 l23 21 23 -21 c31 -29 44 -16 15 15 l-21 23 21 23 c29 31 16 44 -15 15
l-23 -21 -23 21 c-13 12 -27 19 -30 15z"/>
<path d="M1037 572 c-18 -19 -22 -59 -9 -78 16 -24 51 -35 75 -23 29 16 37 28
37 60 0 52 -69 79 -103 41z"/>
<path d="M1777 1212 c-18 -19 -22 -59 -9 -78 16 -24 51 -35 75 -23 29 16 37
28 37 60 0 52 -69 79 -103 41z"/>
<path d="M177 832 c-18 -19 -22 -59 -9 -78 16 -24 51 -35 75 -23 29 16 37 28
37 60 0 52 -69 79 -103 41z"/>
<path d="M1677 272 c-18 -19 -22 -59 -9 -78 16 -24 51 -35 75 -23 29 16 37 28
37 60 0 52 -69 79 -103 41z"/>
</g>
</svg>
