<svg version="1.1" viewBox="0.0 0.0 300.0 300.0" fill="none" stroke="none" stroke-linecap="square" stroke-miterlimit="10" xmlns:xlink="http://www.w3.org/1999/xlink" xmlns="http://www.w3.org/2000/svg"><clipPath id="p.0"><path d="m0 0l300.0 0l0 300.0l-300.0 0l0 -300.0z" clip-rule="nonzero"/></clipPath><g clip-path="url(#p.0)"><path fill="#000000" fill-opacity="0.0" d="m0 0l300.0 0l0 300.0l-300.0 0z" fill-rule="evenodd"/><path fill="#ffffff" d="m79.985565 151.91602l71.849075 -40.650925l71.84909 40.650925l-71.84909 40.65091z" fill-rule="evenodd"/><path stroke="#000000" stroke-width="8.0" stroke-linejoin="round" stroke-linecap="butt" d="m79.985565 151.91602l71.849075 -40.650925l71.84909 40.650925l-71.84909 40.65091z" fill-rule="evenodd"/><path fill="#ffffff" d="m132.98425 53.56168l0 0c0 -10.436878 8.460754 -18.897636 18.897644 -18.897636l0 0c5.011963 0 9.818649 1.9909935 13.36264 5.5349884c3.543991 3.543995 5.5349884 8.350681 5.5349884 13.362648l0 0c0 10.436878 -8.460754 18.89764 -18.897629 18.89764l0 0c-10.43689 0 -18.897644 -8.460762 -18.897644 -18.89764z" fill-rule="evenodd"/><path stroke="#000000" stroke-width="8.0" stroke-linejoin="round" stroke-linecap="butt" d="m132.98425 53.56168l0 0c0 -10.436878 8.460754 -18.897636 18.897644 -18.897636l0 0c5.011963 0 9.818649 1.9909935 13.36264 5.5349884c3.543991 3.543995 5.5349884 8.350681 5.5349884 13.362648l0 0c0 10.436878 -8.460754 18.89764 -18.897629 18.89764l0 0c-10.43689 0 -18.897644 -8.460762 -18.897644 -18.89764z" fill-rule="evenodd"/><path fill="#000000" fill-opacity="0.0" d="m151.8819 72.45932l-0.06300354 38.803146" fill-rule="evenodd"/><path stroke="#000000" stroke-width="4.0" stroke-linejoin="round" stroke-linecap="butt" d="m151.8819 72.45932l-0.06300354 38.803146" fill-rule="evenodd"/><path fill="#000000" fill-opacity="0.0" d="m35.293964 79.178474l37.795277 0l0 72.72442l-37.795277 0z" fill-rule="evenodd"/><path fill="#000000" d="m51.512714 121.04347q0 -0.671875 -0.171875 -1.1875q0 -2.203125 2.53125 -3.6875q1.59375 -0.796875 2.59375 -0.796875q1.421875 0.28125 1.953125 1.59375q1.03125 2.40625 1.359375 3.234375q-0.140625 0.5 -0.140625 0.15625q0 0.265625 -0.078125 -0.078125q5.859371 -10.359375 10.546871 -16.09375q3.671875 -4.375 4.609375 -5.125q3.0 -2.234375 7.828125 -2.453125l0.421875 2.09375q-3.21875 3.21875 -10.390625 13.28125q-7.0 10.09375 -10.062496 15.859375q-0.828125 1.890625 -2.046875 2.296875q-0.65625 0.65625 -2.703125 0.453125q-1.546875 0.234375 -2.3125 -0.546875q-0.640625 -0.421875 -1.28125 -1.703125q-1.75 -4.203125 -2.65625 -7.296875z" fill-rule="nonzero"/><path fill="#ffffff" d="m16.385826 263.67715l0 0c0 -10.436859 8.460762 -18.897629 18.89764 -18.897629l0 0c5.011963 0 9.818653 1.9909973 13.362644 5.5349884c3.543995 3.543991 5.534992 8.3506775 5.534992 13.36264l0 0c0 10.43689 -8.460762 18.897644 -18.897636 18.897644l0 0c-10.436878 0 -18.89764 -8.460754 -18.89764 -18.897644z" fill-rule="evenodd"/><path stroke="#000000" stroke-width="8.0" stroke-linejoin="round" stroke-linecap="butt" d="m16.385826 263.67715l0 0c0 -10.436859 8.460762 -18.897629 18.89764 -18.897629l0 0c5.011963 0 9.818653 1.9909973 13.362644 5.5349884c3.543995 3.543991 5.534992 8.3506775 5.534992 13.36264l0 0c0 10.43689 -8.460762 18.897644 -18.897636 18.897644l0 0c-10.436878 0 -18.89764 -8.460754 -18.89764 -18.897644z" fill-rule="evenodd"/><path fill="#ffffff" d="m249.43832 263.67715l0 0c0 -10.436859 8.460754 -18.897629 18.897644 -18.897629l0 0c5.011963 0 9.818634 1.9909973 13.36264 5.5349884c3.5440063 3.543991 5.534973 8.3506775 5.534973 13.36264l0 0c0 10.43689 -8.460754 18.897644 -18.897614 18.897644l0 0c-10.43689 0 -18.897644 -8.460754 -18.897644 -18.897644z" fill-rule="evenodd"/><path stroke="#000000" stroke-width="8.0" stroke-linejoin="round" stroke-linecap="butt" d="m249.43832 263.67715l0 0c0 -10.436859 8.460754 -18.897629 18.897644 -18.897629l0 0c5.011963 0 9.818634 1.9909973 13.36264 5.5349884c3.5440063 3.543991 5.534973 8.3506775 5.534973 13.36264l0 0c0 10.43689 -8.460754 18.897644 -18.897614 18.897644l0 0c-10.43689 0 -18.897644 -8.460754 -18.897644 -18.897644z" fill-rule="evenodd"/><path fill="#000000" fill-opacity="0.0" d="m223.68373 151.91602l44.661423 0l0 92.85039" fill-rule="evenodd"/><path stroke="#000000" stroke-width="4.0" stroke-linejoin="round" stroke-linecap="butt" d="m223.68373 151.91602l44.661423 0l0 92.85039" fill-rule="evenodd"/><path fill="#000000" fill-opacity="0.0" d="m79.985565 151.91602l-44.692913 0l0 92.85039" fill-rule="evenodd"/><path stroke="#000000" stroke-width="4.0" stroke-linejoin="round" stroke-linecap="butt" d="m79.985565 151.91602l-44.692913 0l0 92.85039" fill-rule="evenodd"/><path fill="#000000" fill-opacity="0.0" d="m223.68504 79.178474l37.795273 0l0 72.72442l-37.795273 0z" fill-rule="evenodd"/><path fill="#000000" d="m262.4194 130.07472l-7.7343597 -7.90625l-7.90625 7.90625l-7.734375 -7.734375l7.734375 -7.90625l-7.5625 -7.5625l7.734375 -7.734375l7.734375 7.5625l7.5624847 -7.5625l7.734375 7.734375l-7.5625 7.5625l7.734375 7.90625l-7.734375 7.734375z" fill-rule="nonzero"/></g></svg>