<svg version="1.1" viewBox="0.0 0.0 300.0 300.0" fill="none" stroke="none" stroke-linecap="square" stroke-miterlimit="10" xmlns:xlink="http://www.w3.org/1999/xlink" xmlns="http://www.w3.org/2000/svg"><clipPath id="p.0"><path d="m0 0l300.0 0l0 300.0l-300.0 0l0 -300.0z" clip-rule="nonzero"/></clipPath><g clip-path="url(#p.0)"><path fill="#000000" fill-opacity="0.0" d="m0 0l300.0 0l0 300.0l-300.0 0z" fill-rule="evenodd"/><path fill="#ffffff" d="m69.58662 108.87008l164.49606 0l0 82.25985l-164.49606 0z" fill-rule="evenodd"/><path stroke="#000000" stroke-width="8.0" stroke-linejoin="round" stroke-linecap="butt" d="m69.58662 108.87008l164.49606 0l0 82.25985l-164.49606 0z" fill-rule="evenodd"/><path fill="#000000" fill-opacity="0.0" d="m69.58924 243.91069l164.49606 0l0 50.419937l-164.49606 0z" fill-rule="evenodd"/><path fill="#000000" d="m134.01228 279.81754l5.859375 0l0 -16.859375q0 -0.984375 0.0625 -2.0625l-4.15625 3.484375q-0.265625 0.21875 -0.53125 0.296875q-0.265625 0.078125 -0.53125 0.078125q-0.390625 0 -0.734375 -0.15625q-0.328125 -0.171875 -0.484375 -0.390625l-1.5625 -2.140625l8.828125 -7.5l4.0625 0l0 25.25l5.1875 0l0 3.703125l-16.0 0l0 -3.703125zm40.028107 -10.75q0 3.765625 -0.8125 6.5625q-0.8125 2.796875 -2.25 4.625q-1.421875 1.8125 -3.375 2.703125q-1.953125 0.875 -4.203125 0.875q-2.265625 0 -4.203125 -0.875q-1.921875 -0.890625 -3.34375 -2.703125q-1.421875 -1.828125 -2.21875 -4.625q-0.796875 -2.796875 -0.796875 -6.5625q0 -3.8125 0.796875 -6.578125q0.796875 -2.78125 2.21875 -4.59375q1.421875 -1.828125 3.34375 -2.71875q1.9375 -0.890625 4.203125 -0.890625q2.25 0 4.203125 0.890625q1.953125 0.890625 3.375 2.71875q1.4375 1.8125 2.25 4.59375q0.8125 2.765625 0.8125 6.578125zm-5.109375 0q0 -3.140625 -0.453125 -5.203125q-0.453125 -2.0625 -1.234375 -3.28125q-0.765625 -1.21875 -1.765625 -1.703125q-1.0 -0.5 -2.078125 -0.5q-1.0625 0 -2.0625 0.5q-0.984375 0.484375 -1.75 1.703125q-0.75 1.21875 -1.203125 3.28125q-0.453125 2.0625 -0.453125 5.203125q0 3.140625 0.453125 5.203125q0.453125 2.046875 1.203125 3.265625q0.765625 1.21875 1.75 1.71875q1.0 0.484375 2.0625 0.484375q1.078125 0 2.078125 -0.484375q1.0 -0.5 1.765625 -1.71875q0.78125 -1.21875 1.234375 -3.265625q0.453125 -2.0625 0.453125 -5.203125z" fill-rule="nonzero"/><path fill="#000000" fill-opacity="0.0" d="m69.58793 5.6718583l164.49606 0l0 50.419945l-164.49606 0z" fill-rule="evenodd"/><path fill="#000000" d="m152.28284 16.047453q2.0 0 3.65625 0.59375q1.65625 0.578125 2.828125 1.65625q1.1875 1.078125 1.84375 2.609375q0.671875 1.515625 0.671875 3.375q0 1.59375 -0.484375 2.953125q-0.46875 1.359375 -1.265625 2.609375q-0.78125 1.234375 -1.84375 2.406252q-1.046875 1.15625 -2.21875 2.34375l-6.515625 6.671875q0.96875 -0.28125 1.875 -0.421875q0.921875 -0.15625 1.765625 -0.15625l7.421875 0q0.796875 0 1.265625 0.453125q0.46875 0.4375 0.46875 1.1875l0 2.953125l-19.828125 0l0 -1.640625q0 -0.5 0.203125 -1.03125q0.203125 -0.546875 0.671875 -1.015625l8.78125 -8.796875q1.09375 -1.1093769 1.96875 -2.125002q0.875 -1.03125 1.453125 -2.03125q0.59375 -1.0 0.90625 -2.03125q0.3125 -1.03125 0.3125 -2.171875q0 -1.03125 -0.3125 -1.8125q-0.296875 -0.796875 -0.859375 -1.34375q-0.546875 -0.546875 -1.328125 -0.8125q-0.765625 -0.265625 -1.71875 -0.265625q-1.78125 0 -2.9375 0.90625q-1.140625 0.890625 -1.609375 2.40625q-0.21875 0.765625 -0.65625 1.09375q-0.4375 0.328125 -1.125 0.328125q-0.296875 0 -0.65625 -0.0625l-2.59375 -0.453125q0.296875 -2.078125 1.15625 -3.640625q0.859375 -1.578125 2.140625 -2.625q1.296875 -1.0625 2.96875 -1.578125q1.671875 -0.53125 3.59375 -0.53125z" fill-rule="nonzero"/><path fill="#000000" fill-opacity="0.0" d="m151.83595 56.091805l0 52.7874" fill-rule="evenodd"/><path stroke="#000000" stroke-width="4.0" stroke-linejoin="round" stroke-linecap="butt" d="m151.83595 56.09181l0 28.787395" fill-rule="evenodd"/><path fill="#000000" stroke="#000000" stroke-width="4.0" stroke-linecap="butt" d="m145.22903 84.8792l6.6069183 18.15239l6.6069336 -18.15239z" fill-rule="evenodd"/><path fill="#000000" fill-opacity="0.0" d="m151.83464 191.12993l0 52.7874" fill-rule="evenodd"/><path stroke="#000000" stroke-width="4.0" stroke-linejoin="round" stroke-linecap="butt" d="m151.83464 191.12993l0 28.7874" fill-rule="evenodd"/><path fill="#000000" stroke="#000000" stroke-width="4.0" stroke-linecap="butt" d="m145.22772 219.91733l6.6069183 18.15239l6.6069336 -18.15239z" fill-rule="evenodd"/></g></svg>