<svg version="1.1" viewBox="0.0 0.0 300.0 300.0" fill="none" stroke="none" stroke-linecap="square" stroke-miterlimit="10" xmlns:xlink="http://www.w3.org/1999/xlink" xmlns="http://www.w3.org/2000/svg"><clipPath id="p.0"><path d="m0 0l300.0 0l0 300.0l-300.0 0l0 -300.0z" clip-rule="nonzero"/></clipPath><g clip-path="url(#p.0)"><path fill="#000000" fill-opacity="0.0" d="m0 0l300.0 0l0 300.0l-300.0 0z" fill-rule="evenodd"/><path fill="#ffffff" d="m143.62599 31.83727l0 0c0 -10.436878 8.460754 -18.897638 18.897629 -18.897638l0 0c5.011963 0 9.818649 1.9909954 13.362656 5.5349903c3.543991 3.543995 5.5349884 8.350683 5.5349884 13.362648l0 0c0 10.436876 -8.46077 18.897638 -18.897644 18.897638l0 0c-10.436874 0 -18.897629 -8.460762 -18.897629 -18.897638z" fill-rule="evenodd"/><path stroke="#000000" stroke-width="8.0" stroke-linejoin="round" stroke-linecap="butt" d="m143.62599 31.83727l0 0c0 -10.436878 8.460754 -18.897638 18.897629 -18.897638l0 0c5.011963 0 9.818649 1.9909954 13.362656 5.5349903c3.543991 3.543995 5.5349884 8.350683 5.5349884 13.362648l0 0c0 10.436876 -8.46077 18.897638 -18.897644 18.897638l0 0c-10.436874 0 -18.897629 -8.460762 -18.897629 -18.897638z" fill-rule="evenodd"/><path fill="#000000" fill-opacity="0.0" d="m162.52362 50.73491l-0.06298828 38.803146" fill-rule="evenodd"/><path stroke="#000000" stroke-width="4.0" stroke-linejoin="round" stroke-linecap="butt" d="m162.52362 50.73491l-0.06298828 38.803146" fill-rule="evenodd"/><path fill="#ffffff" d="m80.22835 89.538055l164.49606 0l0 40.992126l-164.49606 0z" fill-rule="evenodd"/><path stroke="#000000" stroke-width="8.0" stroke-linejoin="round" stroke-linecap="butt" d="m80.22835 89.538055l164.49606 0l0 40.992126l-164.49606 0z" fill-rule="evenodd"/><path fill="#ffffff" d="m80.27428 157.21785l164.49606 0l0 40.992126l-164.49606 0z" fill-rule="evenodd"/><path stroke="#000000" stroke-width="8.0" stroke-linejoin="round" stroke-linecap="butt" d="m80.27428 157.21785l164.49606 0l0 40.992126l-164.49606 0z" fill-rule="evenodd"/><path fill="#ffffff" d="m80.27559 224.89764l164.49606 0l0 40.992126l-164.49606 0z" fill-rule="evenodd"/><path stroke="#000000" stroke-width="8.0" stroke-linejoin="round" stroke-linecap="butt" d="m80.27559 224.89764l164.49606 0l0 40.992126l-164.49606 0z" fill-rule="evenodd"/><path fill="#000000" fill-opacity="0.0" d="m162.47638 130.53018l0.03149414 26.67717" fill-rule="evenodd"/><path stroke="#000000" stroke-width="4.0" stroke-linejoin="round" stroke-linecap="butt" d="m162.47638 130.53018l0.03149414 26.67717" fill-rule="evenodd"/><path fill="#000000" fill-opacity="0.0" d="m162.52231 198.20998l0 26.67717" fill-rule="evenodd"/><path stroke="#000000" stroke-width="4.0" stroke-linejoin="round" stroke-linecap="butt" d="m162.52231 198.20998l0 26.67717" fill-rule="evenodd"/><path fill="#000000" fill-opacity="0.0" d="m162.52362 265.88977l0 25.000244l-107.29513 0l0 -180.84277l24.995918 0" fill-rule="evenodd"/><path stroke="#000000" stroke-width="4.0" stroke-linejoin="round" stroke-linecap="butt" d="m162.52362 265.88977l0 25.000244l-107.29513 0l0 -180.84277l24.995918 0" fill-rule="evenodd"/></g></svg>