<svg version="1.1" viewBox="0.0 0.0 300.0 300.0" fill="none" stroke="none" stroke-linecap="square" stroke-miterlimit="10" xmlns:xlink="http://www.w3.org/1999/xlink" xmlns="http://www.w3.org/2000/svg"><clipPath id="p.0"><path d="m0 0l300.0 0l0 300.0l-300.0 0l0 -300.0z" clip-rule="nonzero"/></clipPath><g clip-path="url(#p.0)"><path fill="#000000" fill-opacity="0.0" d="m0 0l300.0 0l0 300.0l-300.0 0z" fill-rule="evenodd"/><path fill="#ffffff" d="m7.2060366 29.640419l151.1811 0l0 151.18109l-151.1811 0z" fill-rule="evenodd"/><path stroke="#000000" stroke-width="8.0" stroke-linejoin="round" stroke-linecap="butt" d="m7.2060366 29.640419l151.1811 0l0 151.18109l-151.1811 0z" fill-rule="evenodd"/><path fill="#000000" fill-opacity="0.0" d="m158.38715 105.23097c43.826767 0 87.653534 44.83464 87.653534 89.6693" fill-rule="evenodd"/><path stroke="#000000" stroke-width="4.0" stroke-linejoin="round" stroke-linecap="butt" d="m182.02112 109.40648l0.7296753 0.2576065c2.6428833 0.952301 5.253662 2.0468903 7.8216248 3.2728424c10.271912 4.9037857 19.859009 11.909203 28.076538 20.315697c16.435028 16.812988 27.391724 39.230316 27.391724 61.647644" fill-rule="evenodd"/><path fill="#000000" stroke="#000000" stroke-width="4.0" stroke-linecap="butt" d="m183.1706 102.90031l-19.025024 3.34803l16.72609 9.664307z" fill-rule="evenodd"/><path fill="#000000" fill-opacity="0.0" d="m189.94357 174.00262l106.519684 0l0 100.188965l-106.519684 0z" fill-rule="evenodd"/><path fill="#000000" d="m202.74045 213.26825q-0.96875 -1.59375 -1.421875 -3.203125q-0.4375 -1.625 -0.4375 -3.21875q0 -3.0 1.484375 -5.75q1.484375 -2.75 4.140625 -5.046875l1.84375 1.125q0.265625 0.171875 0.34375 0.375q0.078125 0.1875 0.078125 0.390625q0 0.46875 -0.328125 0.796875q-0.53125 0.671875 -1.03125 1.40625q-0.5 0.734375 -0.90625 1.546875q-0.390625 0.8125 -0.625 1.71875q-0.234375 0.90625 -0.234375 1.90625q0 1.0625 0.3125 2.203125q0.3125 1.125 1.078125 2.390625q0.234375 0.359375 0.234375 0.765625q0 0.796875 -0.890625 1.140625l-3.640625 1.453125zm10.140625 0q-0.96875 -1.59375 -1.421875 -3.203125q-0.453125 -1.625 -0.453125 -3.21875q0 -3.0 1.484375 -5.75q1.484375 -2.75 4.15625 -5.046875l1.828125 1.125q0.265625 0.171875 0.34375 0.375q0.09375 0.1875 0.09375 0.390625q0 0.46875 -0.34375 0.796875q-0.53125 0.671875 -1.03125 1.40625q-0.5 0.734375 -0.90625 1.546875q-0.390625 0.8125 -0.625 1.71875q-0.234375 0.90625 -0.234375 1.90625q0 1.0625 0.3125 2.203125q0.328125 1.125 1.09375 2.390625q0.234375 0.359375 0.234375 0.765625q0 0.796875 -0.90625 1.140625l-3.625 1.453125z" fill-rule="nonzero"/><path fill="#000000" d="m249.40953 247.00262l-0.140625 -4.390625q-2.65625 2.640625 -5.40625 3.8125q-2.75 1.15625 -5.78125 1.15625q-2.796875 0 -4.78125 -0.703125q-1.984375 -0.71875 -3.28125 -1.96875q-1.28125 -1.265625 -1.890625 -2.953125q-0.59375 -1.6875 -0.59375 -3.671875q0 -4.921875 3.65625 -7.703125q3.671875 -2.78125 10.828125 -2.78125l6.765625 0l0 -2.859375q0 -2.90625 -1.859375 -4.640625q-1.84375 -1.75 -5.65625 -1.75q-2.765625 0 -5.453125 0.625q-2.6875 0.625 -5.546875 1.765625l0 -5.125q1.078125 -0.390625 2.390625 -0.75q1.3125 -0.375 2.78125 -0.671875q1.46875 -0.296875 3.0625 -0.46875q1.59375 -0.1875 3.21875 -0.1875q2.96875 0 5.34375 0.65625q2.375 0.640625 4.015625 1.984375q1.640625 1.328125 2.515625 3.359375q0.890625 2.015625 0.890625 4.75l0 22.515625l-5.078125 0zm-0.625 -14.875l-7.1875 0q-2.109375 0 -3.640625 0.421875q-1.53125 0.421875 -2.515625 1.203125q-0.96875 0.78125 -1.453125 1.875q-0.46875 1.09375 -0.46875 2.453125q0 0.953125 0.296875 1.8125q0.296875 0.859375 0.9375 1.53125q0.65625 0.65625 1.6875 1.046875q1.046875 0.390625 2.546875 0.390625q1.953125 0 4.46875 -1.1875q2.53125 -1.1875 5.328125 -3.75l0 -5.796875z" fill-rule="nonzero"/><path fill="#000000" d="m268.88556 196.737q0.96875 1.609375 1.390625 3.21875q0.4375 1.59375 0.4375 3.1875q0 3.03125 -1.484375 5.78125q-1.46875 2.75 -4.109375 5.046875l-1.828125 -1.125q-0.265625 -0.171875 -0.359375 -0.375q-0.078125 -0.203125 -0.078125 -0.390625q0 -0.46875 0.328125 -0.8125q0.53125 -0.625 1.03125 -1.375q0.5 -0.75 0.90625 -1.5625q0.40625 -0.828125 0.625 -1.71875q0.234375 -0.90625 0.234375 -1.90625q0 -1.0625 -0.3125 -2.1875q-0.3125 -1.140625 -1.078125 -2.40625q-0.234375 -0.375 -0.234375 -0.734375q0 -0.796875 0.90625 -1.171875l3.625 -1.46875zm10.125 0q0.96875 1.609375 1.40625 3.21875q0.4375 1.59375 0.4375 3.1875q0 3.03125 -1.484375 5.78125q-1.484375 2.75 -4.125 5.046875l-1.828125 -1.125q-0.265625 -0.171875 -0.359375 -0.375q-0.078125 -0.203125 -0.078125 -0.390625q0 -0.46875 0.34375 -0.8125q0.53125 -0.625 1.03125 -1.375q0.5 -0.75 0.890625 -1.5625q0.40625 -0.828125 0.640625 -1.71875q0.234375 -0.90625 0.234375 -1.90625q0 -1.0625 -0.328125 -2.1875q-0.3125 -1.140625 -1.078125 -2.40625q-0.234375 -0.375 -0.234375 -0.734375q0 -0.796875 0.90625 -1.171875l3.625 -1.46875z" fill-rule="nonzero"/></g></svg>