<?xml version="1.0" standalone="no"?>
<!DOCTYPE svg PUBLIC "-//W3C//DTD SVG 20010904//EN"
 "http://www.w3.org/TR/2001/REC-SVG-20010904/DTD/svg10.dtd">
<svg version="1.0" xmlns="http://www.w3.org/2000/svg"
 width="200.000000pt" height="200.000000pt" viewBox="0 0 200.000000 200.000000"
 preserveAspectRatio="xMidYMid meet">

<g transform="translate(0.000000,200.000000) scale(0.100000,-0.100000)"
fill="#000000" stroke="none">
<path d="M755 1732 c-88 -26 -166 -51 -172 -55 -15 -9 -16 -79 -6 -306 l6
-151 43 -19 c41 -18 74 -61 74 -94 0 -10 55 -37 155 -77 141 -56 158 -61 187
-51 51 18 78 40 78 64 0 29 54 135 85 167 23 24 24 31 31 246 5 143 3 223 -3
227 -8 5 -235 73 -303 91 -8 3 -87 -17 -175 -42z m272 -30 c51 -15 95 -30 98
-33 2 -3 -49 -23 -114 -43 l-119 -38 -99 32 c-54 18 -101 36 -106 39 -8 8 193
69 228 70 11 0 61 -12 112 -27z m166 -254 c-6 -187 -7 -194 -31 -223 -29 -34
-82 -142 -82 -166 0 -9 -11 -21 -24 -27 -23 -10 -27 -8 -48 31 -14 25 -38 50
-61 62 l-37 20 1 155 c0 85 4 177 7 204 l7 50 130 42 c72 23 133 42 137 43 3
1 4 -86 1 -191z m-448 143 l120 -38 3 -201 2 -201 -102 41 c-57 22 -113 44
-125 49 -22 8 -22 13 -25 199 -2 104 -1 190 2 190 3 0 59 -18 125 -39z m135
-486 c40 -11 108 -61 97 -72 -3 -2 -56 17 -120 42 -80 32 -116 52 -120 65 -5
18 -3 18 47 -2 28 -12 71 -26 96 -33z"/>
<path d="M807 810 c-362 -164 -661 -301 -664 -304 -3 -3 0 -25 7 -50 11 -42
15 -45 54 -51 85 -13 97 -17 92 -30 -3 -8 -8 -30 -12 -49 -7 -42 -10 -42 99
-21 44 8 83 13 88 10 4 -3 16 -30 25 -60 10 -30 22 -55 27 -55 13 0 1347 704
1347 711 0 3 -24 22 -53 42 -38 26 -64 37 -90 37 -20 0 -40 6 -44 14 -5 8 -34
15 -78 19 -66 5 -71 7 -105 45 l-35 40 -658 -298z m668 224 c17 -21 31 -26 85
-31 39 -4 68 -11 73 -19 5 -9 26 -14 55 -14 38 0 55 -6 81 -28 l34 -28 -579
-301 c-318 -165 -598 -310 -621 -322 l-42 -21 -16 50 c-9 28 -22 50 -28 50 -7
-1 -41 -7 -77 -15 -36 -8 -69 -14 -73 -15 -5 0 -6 18 -2 39 7 44 10 42 -97 57
-39 5 -47 10 -53 31 -3 14 -4 27 -2 29 7 8 1222 563 1232 564 5 0 18 -12 30
-26z"/>
<path d="M1366 940 l7 -40 -92 0 c-73 0 -91 -3 -91 -15 0 -11 19 -15 93 -17
l92 -3 3 -42 c3 -41 5 -43 34 -43 31 0 31 0 25 45 l-7 45 95 0 c80 0 93 2 89
15 -5 12 -25 15 -94 15 -94 0 -100 3 -100 56 0 20 -5 24 -30 24 -30 0 -30 -1
-24 -40z"/>
<path d="M1040 785 l0 -45 -95 0 c-78 0 -95 -3 -95 -15 0 -12 17 -15 95 -15
l95 0 0 -50 c0 -49 1 -50 30 -50 29 0 30 1 30 50 l0 50 100 0 c82 0 100 3 100
15 0 12 -18 15 -100 15 l-100 0 0 45 c0 43 -1 45 -30 45 -29 0 -30 -2 -30 -45z"/>
<path d="M590 630 c-97 -33 -130 -103 -71 -152 108 -92 394 -43 394 67 0 85
-183 134 -323 85z m229 -37 c14 -11 27 -31 29 -45 10 -79 -203 -114 -275 -46
-28 26 -29 39 -5 67 42 52 193 66 251 24z"/>
</g>
</svg>
