<svg version="1.1" viewBox="0.0 0.0 720.0 720.0" fill="none" stroke="none" stroke-linecap="square" stroke-miterlimit="10" xmlns:xlink="http://www.w3.org/1999/xlink" xmlns="http://www.w3.org/2000/svg"><clipPath id="p.0"><path d="m0 0l720.0 0l0 720.0l-720.0 0l0 -720.0z" clip-rule="nonzero"/></clipPath><g clip-path="url(#p.0)"><path fill="#000000" fill-opacity="0.0" d="m0 0l720.0 0l0 720.0l-720.0 0z" fill-rule="evenodd"/><path fill="#000000" fill-opacity="0.0" d="m6.56168E-4 174.15749l720.0 0l0 332.8819l-720.0 0z" fill-rule="evenodd"/><path fill="#000000" d="m69.688156 304.84872q-4.546875 1.84375 -9.40625 2.71875q-4.859375 0.890625 -10.171875 0.890625q-7.640625 0 -13.703125 -2.078125q-6.0625 -2.09375 -10.296875 -6.1875q-4.234375 -4.109375 -6.46875 -10.171875q-2.234375 -6.0625 -2.234375 -14.03125q0 -7.703125 2.421875 -13.953125q2.4375 -6.2499847 6.859375 -10.67186q4.421875 -4.421875 10.640625 -6.8125q6.21875 -2.40625 13.859375 -2.40625q6.25 0 10.5 0.671875q4.265625 0.65625 7.6875 1.671875l0 14.968735q-3.921875 -1.96875 -8.5 -3.03125q-4.578125 -1.0781097 -8.6875 -1.0781097q-4.28125 0 -7.703125 1.4531097q-3.40625 1.453125 -5.75 4.046875q-2.328125 2.578125 -3.5625 6.28125q-1.234375 3.6875 -1.234375 8.109375q0 4.609375 1.328125 8.28125q1.328125 3.65625 3.75 6.21875q2.4375 2.546875 5.84375 3.90625q3.421875 1.359375 7.59375 1.359375q2.015625 0 4.25 -0.28125q2.25 -0.28125 4.484375 -0.8125q2.25 -0.546875 4.421875 -1.234375q2.1875 -0.703125 4.078125 -1.53125l0 13.703125zm39.902084 -74.76561l-18.125 0l0 -12.0l33.921875 0l0 77.23436l18.5 0l0 12.0l-54.625 0l0 -12.0l20.328125 0l0 -65.23436zm90.620834 77.23436l-0.375 -8.40625q-2.015625 2.15625 -4.234375 3.953125q-2.203125 1.796875 -4.859375 3.125q-2.65625 1.328125 -5.78125 2.046875q-3.125 0.734375 -6.84375 0.734375q-4.9375 0 -8.65625 -1.453125q-3.71875 -1.453125 -6.25 -4.03125q-2.53125 -2.59375 -3.828125 -6.25q-1.28125 -3.671875 -1.28125 -8.09375q0 -4.546875 1.921875 -8.390625q1.921875 -3.859375 5.859375 -6.640625q3.953125 -2.78125 9.859375 -4.359375q5.90625 -1.578125 13.859375 -1.578125l8.40625 0l0 -3.84375q0 -2.46875 -0.703125 -4.453125q-0.6875 -2.0 -2.234375 -3.375q-1.546875 -1.3906097 -4.015625 -2.1406097q-2.453125 -0.765625 -6.0625 -0.765625q-5.6875 0 -11.21875 1.296875q-5.515625 1.28125 -10.6875 3.6249847l0 -12.312485q4.609375 -1.84375 10.640625 -3.03125q6.03125 -1.203125 12.53125 -1.203125q7.140625 0 12.25 1.359375q5.109375 1.359375 8.421875 4.078125q3.328125 2.703125 4.90625 6.78125q1.578125 4.0781097 1.578125 9.499985l0 43.828125l-13.203125 0zm-2.203125 -28.359375l-9.40625 0q-3.921875 0 -6.640625 0.765625q-2.71875 0.75 -4.421875 2.078125q-1.703125 1.328125 -2.5 3.0625q-0.78125 1.734375 -0.78125 3.703125q0 3.90625 2.515625 5.96875q2.53125 2.046875 6.890625 2.046875q3.21875 0 6.6875 -2.328125q3.484375 -2.34375 7.65625 -6.703125l0 -8.59375zm86.01146 9.484375q0 5.484375 -2.4375 9.375q-2.4375 3.875 -6.453125 6.3125q-4.0 2.4375 -9.09375 3.53125q-5.078125 1.109375 -10.375 1.109375q-7.078125 0 -12.765625 -0.671875q-5.671875 -0.65625 -10.734375 -1.921875l0 -13.890625q5.9375 2.46875 11.84375 3.578125q5.90625 1.09375 11.15625 1.09375q6.0625 0 9.0625 -1.921875q3.0 -1.921875 3.0 -5.015625q0 -1.453125 -0.640625 -2.65625q-0.625 -1.203125 -2.375 -2.296875q-1.734375 -1.109375 -4.890625 -2.28125q-3.15625 -1.171875 -8.265625 -2.625q-4.734375 -1.328125 -8.3125 -3.0q-3.5625 -1.671875 -5.90625 -3.9375q-2.328125 -2.28125 -3.5 -5.28125q-1.171875 -3.0 -1.171875 -7.046875q0 -3.90625 1.765625 -7.3749847q1.78125 -3.484375 5.28125 -6.09375q3.5 -2.625 8.734375 -4.140625q5.25 -1.515625 12.265625 -1.515625q6.0625 0 10.734375 0.640625q4.671875 0.625 8.265625 1.375l0 12.57811q-5.484375 -1.7812347 -10.328125 -2.4999847q-4.828125 -0.734375 -9.5625 -0.734375q-4.734375 0 -7.609375 1.71875q-2.875 1.7031097 -2.875 4.7343597q0 1.453125 0.5625 2.59375q0.578125 1.125 2.25 2.203125q1.671875 1.0625 4.671875 2.234375q3.0 1.171875 7.9375 2.5625q5.546875 1.578125 9.328125 3.375q3.796875 1.796875 6.09375 4.078125q2.3125 2.265625 3.328125 5.171875q1.015625 2.90625 1.015625 6.640625zm71.105225 0q0 5.484375 -2.4375 9.375q-2.4375 3.875 -6.453125 6.3125q-4.0 2.4375 -9.09375 3.53125q-5.078125 1.109375 -10.375 1.109375q-7.078125 0 -12.765625 -0.671875q-5.671875 -0.65625 -10.734375 -1.921875l0 -13.890625q5.9375 2.46875 11.84375 3.578125q5.90625 1.09375 11.15625 1.09375q6.0625 0 9.0625 -1.921875q3.0 -1.921875 3.0 -5.015625q0 -1.453125 -0.640625 -2.65625q-0.625 -1.203125 -2.375 -2.296875q-1.734375 -1.109375 -4.890625 -2.28125q-3.15625 -1.171875 -8.265625 -2.625q-4.734375 -1.328125 -8.3125 -3.0q-3.5625 -1.671875 -5.90625 -3.9375q-2.328125 -2.28125 -3.5 -5.28125q-1.171875 -3.0 -1.171875 -7.046875q0 -3.90625 1.765625 -7.3749847q1.78125 -3.484375 5.28125 -6.09375q3.5 -2.625 8.734375 -4.140625q5.25 -1.515625 12.265625 -1.515625q6.0625 0 10.734375 0.640625q4.671875 0.625 8.265625 1.375l0 12.57811q-5.484375 -1.7812347 -10.328125 -2.4999847q-4.828125 -0.734375 -9.5625 -0.734375q-4.734375 0 -7.609375 1.71875q-2.875 1.7031097 -2.875 4.7343597q0 1.453125 0.5625 2.59375q0.578125 1.125 2.25 2.203125q1.671875 1.0625 4.671875 2.234375q3.0 1.171875 7.9375 2.5625q5.546875 1.578125 9.328125 3.375q3.796875 1.796875 6.09375 4.078125q2.3125 2.265625 3.328125 5.171875q1.015625 2.90625 1.015625 6.640625z" fill-rule="nonzero"/><path fill="#000000" d="m450.7257 307.31747l0 -12.953125l12.9375 0l0 12.953125l-12.9375 0zm43.125 0l0 -12.953125l12.953125 0l0 12.953125l-12.953125 0zm43.078125 0l0 -12.953125l13.0 0l0 12.953125l-13.0 0z" fill-rule="nonzero"/><path fill="#000000" d="m613.0226 333.8331q-29.125 -26.953125 -29.125 -59.609375q0 -7.640625 1.546875 -15.25q1.546875 -7.6093597 4.984375 -15.249985q3.453125 -7.640625 9.09375 -15.28125q5.65625 -7.640625 13.75 -15.15625l6.375 6.5q-24.5 24.1875 -24.5 53.624985q0 14.640625 6.1875 28.15625q6.1875 13.515625 18.3125 25.515625l-6.625 6.75zm46.0896 -120.54686q29.109375 26.96875 29.109375 59.999985q0 6.8125 -1.390625 14.140625q-1.390625 7.328125 -4.734375 15.0q-3.34375 7.671875 -9.0 15.5625q-5.640625 7.890625 -14.234375 15.84375l-6.375 -6.5q12.3125 -12.1875 18.375 -25.4375q6.0625 -13.265625 6.0625 -27.796875q0 -30.062485 -24.4375 -54.04686l6.625 -6.765625z" fill-rule="nonzero"/><path fill="#000000" d="m200.33607 462.51746l-0.375 -9.46875q-2.015625 2.453125 -4.171875 4.484375q-2.140625 2.015625 -4.609375 3.4375q-2.453125 1.421875 -5.265625 2.203125q-2.8125 0.796875 -6.21875 0.796875q-5.6875 0 -10.109375 -2.265625q-4.421875 -2.28125 -7.421875 -6.484375q-3.0 -4.203125 -4.578125 -10.1875q-1.578125 -6.0 -1.578125 -13.390625q0 -8.84375 2.484375 -15.3125q2.5 -6.484375 6.921875 -10.734375q4.421875 -4.265625 10.484375 -6.3125q6.0625 -2.0625 13.203125 -2.0625q2.390625 0 4.828125 0.3125q2.4375 0.3125 4.328125 0.828125l0 -25.078125l15.40625 0l0 89.234375l-13.328125 0zm-28.15625 -31.578125q0 5.3125 0.71875 9.078125q0.734375 3.75 2.15625 6.15625q1.421875 2.390625 3.5 3.5q2.078125 1.09375 4.734375 1.09375q3.921875 0 7.453125 -3.15625q3.53125 -3.15625 7.515625 -8.640625l0 -28.046875q-1.828125 -0.6875 -4.515625 -1.125q-2.6875 -0.453125 -5.40625 -0.453125q-3.71875 0 -6.6875 1.515625q-2.96875 1.515625 -5.09375 4.296875q-2.109375 2.78125 -3.25 6.796875q-1.125 4.0 -1.125 8.984375zm114.808334 -5.421875q0 1.578125 -0.109375 4.109375q-0.09375 2.515625 -0.28125 4.71875l-42.171875 0q0 4.234375 1.28125 7.46875q1.296875 3.21875 3.65625 5.390625q2.375 2.171875 5.6875 3.3125q3.328125 1.140625 7.359375 1.140625q4.671875 0 10.0 -0.71875q5.34375 -0.734375 11.09375 -2.375l0 12.25q-2.453125 0.6875 -5.359375 1.265625q-2.90625 0.5625 -5.9375 1.0q-3.03125 0.453125 -6.125 0.671875q-3.09375 0.21875 -6.0 0.21875q-7.328125 0 -13.140625 -2.078125q-5.8125 -2.09375 -9.859375 -6.15625q-4.03125 -4.078125 -6.1875 -10.078125q-2.140625 -6.0 -2.140625 -13.890625q0 -7.828125 2.140625 -14.234375q2.15625 -6.421875 6.0625 -11.0q3.921875 -4.578125 9.515625 -7.0625q5.59375 -2.5 12.46875 -2.5q6.828125 0 12.0625 2.125q5.234375 2.109375 8.765625 5.90625q3.546875 3.78125 5.375 9.03125q1.84375 5.234375 1.84375 11.484375zm-15.671875 -2.21875q0.0625 -3.78125 -0.953125 -6.59375q-1.0 -2.8125 -2.734375 -4.640625q-1.734375 -1.828125 -4.046875 -2.71875q-2.296875 -0.890625 -4.953125 -0.890625q-5.8125 0 -9.546875 3.890625q-3.71875 3.890625 -4.40625 10.953125l26.640625 0zm88.480225 -36.9375q-2.78125 -0.890625 -6.609375 -1.484375q-3.8125 -0.59375 -7.796875 -0.59375q-2.71875 0 -5.0625 0.734375q-2.328125 0.71875 -4.03125 2.296875q-1.703125 1.578125 -2.6875 4.015625q-0.96875 2.421875 -0.96875 5.890625l0 10.359375l25.1875 0l0 12.0l-25.1875 0l0 42.9375l-15.53125 0l0 -42.9375l-18.640625 0l0 -12.0l18.640625 0l0 -9.734375q0 -6.8125 1.984375 -11.703125q1.984375 -4.890625 5.609375 -8.015625q3.640625 -3.140625 8.75 -4.578125q5.125 -1.453125 11.4375 -1.453125q4.171875 0 7.921875 0.53125q3.765625 0.53125 6.984375 1.296875l0 12.4375zm-66.375 12.0l0 0zm142.21042 90.046875l0 -12.1875l71.109375 0l0 12.1875l-71.109375 0zm71.105225 0l0 -12.1875l71.109344 0l0 12.1875l-71.109344 0z" fill-rule="nonzero"/></g></svg>