<?xml version="1.0" encoding="iso-8859-1"?>
<!-- Generator: Adobe Illustrator 19.0.0, SVG Export Plug-In . SVG Version: 6.00 Build 0)  -->
<svg version="1.1" id="Capa_1" xmlns="http://www.w3.org/2000/svg" xmlns:xlink="http://www.w3.org/1999/xlink" x="0px" y="0px"
	 viewBox="0 0 496 496" style="enable-background:new 0 0 496 496;" xml:space="preserve">
<g>
	<g>
		<g>
			<path d="M144,46.528V88h16V46.528c9.288-3.312,16-12.112,16-22.528c0-13.232-10.768-24-24-24s-24,10.768-24,24
				C128,34.416,134.712,43.216,144,46.528z M152,16c4.408,0,8,3.592,8,8s-3.592,8-8,8s-8-3.592-8-8S147.592,16,152,16z"/>
			<path d="M208,46.528V88h16V46.528c9.288-3.312,16-12.112,16-22.528c0-13.232-10.768-24-24-24s-24,10.768-24,24
				C192,34.416,198.712,43.216,208,46.528z M216,16c4.408,0,8,3.592,8,8s-3.592,8-8,8s-8-3.592-8-8S211.592,16,216,16z"/>
			<path d="M272,46.528V88h16V46.528c9.288-3.312,16-12.112,16-22.528c0-13.232-10.768-24-24-24s-24,10.768-24,24
				C256,34.416,262.712,43.216,272,46.528z M280,16c4.408,0,8,3.592,8,8s-3.592,8-8,8c-4.408,0-8-3.592-8-8S275.592,16,280,16z"/>
			<path d="M336,46.528V88h16V46.528c9.288-3.312,16-12.112,16-22.528c0-13.232-10.768-24-24-24s-24,10.768-24,24
				C320,34.416,326.712,43.216,336,46.528z M344,16c4.408,0,8,3.592,8,8s-3.592,8-8,8c-4.408,0-8-3.592-8-8S339.592,16,344,16z"/>
			<path d="M24,320c-13.232,0-24,10.768-24,24s10.768,24,24,24c10.416,0,19.216-6.712,22.528-16H80v-16H46.528
				C43.216,326.712,34.416,320,24,320z M24,352c-4.408,0-8-3.592-8-8c0-4.408,3.592-8,8-8s8,3.592,8,8C32,348.408,28.408,352,24,352
				z"/>
			<path d="M24,256c-13.232,0-24,10.768-24,24s10.768,24,24,24c10.416,0,19.216-6.712,22.528-16H80v-16H46.528
				C43.216,262.712,34.416,256,24,256z M24,288c-4.408,0-8-3.592-8-8c0-4.408,3.592-8,8-8s8,3.592,8,8C32,284.408,28.408,288,24,288
				z"/>
			<path d="M24,192c-13.232,0-24,10.768-24,24s10.768,24,24,24c10.416,0,19.216-6.712,22.528-16H80v-16H46.528
				C43.216,198.712,34.416,192,24,192z M24,224c-4.408,0-8-3.592-8-8s3.592-8,8-8s8,3.592,8,8S28.408,224,24,224z"/>
			<path d="M24,128c-13.232,0-24,10.768-24,24s10.768,24,24,24c10.416,0,19.216-6.712,22.528-16H80v-16H46.528
				C43.216,134.712,34.416,128,24,128z M24,160c-4.408,0-8-3.592-8-8s3.592-8,8-8s8,3.592,8,8S28.408,160,24,160z"/>
			<path d="M352,449.472V408h-16v41.472c-9.288,3.312-16,12.112-16,22.528c0,13.232,10.768,24,24,24s24-10.768,24-24
				C368,461.584,361.288,452.784,352,449.472z M344,480c-4.408,0-8-3.592-8-8c0-4.408,3.592-8,8-8c4.408,0,8,3.592,8,8
				C352,476.408,348.408,480,344,480z"/>
			<path d="M288,449.472V408h-16v41.472c-9.288,3.312-16,12.112-16,22.528c0,13.232,10.768,24,24,24s24-10.768,24-24
				C304,461.584,297.288,452.784,288,449.472z M280,480c-4.408,0-8-3.592-8-8c0-4.408,3.592-8,8-8c4.408,0,8,3.592,8,8
				C288,476.408,284.408,480,280,480z"/>
			<path d="M224,449.472V408h-16v41.472c-9.288,3.312-16,12.112-16,22.528c0,13.232,10.768,24,24,24s24-10.768,24-24
				C240,461.584,233.288,452.784,224,449.472z M216,480c-4.408,0-8-3.592-8-8c0-4.408,3.592-8,8-8s8,3.592,8,8
				C224,476.408,220.408,480,216,480z"/>
			<path d="M160,449.472V408h-16v41.472c-9.288,3.312-16,12.112-16,22.528c0,13.232,10.768,24,24,24s24-10.768,24-24
				C176,461.584,169.288,452.784,160,449.472z M152,480c-4.408,0-8-3.592-8-8c0-4.408,3.592-8,8-8s8,3.592,8,8
				C160,476.408,156.408,480,152,480z"/>
			<path d="M472,176c13.232,0,24-10.768,24-24s-10.768-24-24-24c-10.416,0-19.216,6.712-22.528,16H416v16h33.472
				C452.784,169.288,461.584,176,472,176z M472,144c4.408,0,8,3.592,8,8s-3.592,8-8,8c-4.408,0-8-3.592-8-8S467.592,144,472,144z"/>
			<path d="M472,192c-10.416,0-19.216,6.712-22.528,16H416v16h33.472c3.312,9.288,12.112,16,22.528,16c13.232,0,24-10.768,24-24
				S485.232,192,472,192z M472,224c-4.408,0-8-3.592-8-8s3.592-8,8-8c4.408,0,8,3.592,8,8S476.408,224,472,224z"/>
			<path d="M472,256c-10.416,0-19.216,6.712-22.528,16H416v16h33.472c3.312,9.288,12.112,16,22.528,16c13.232,0,24-10.768,24-24
				S485.232,256,472,256z M472,288c-4.408,0-8-3.592-8-8c0-4.408,3.592-8,8-8c4.408,0,8,3.592,8,8C480,284.408,476.408,288,472,288z
				"/>
			<path d="M472,320c-10.416,0-19.216,6.712-22.528,16H416v16h33.472c3.312,9.288,12.112,16,22.528,16c13.232,0,24-10.768,24-24
				S485.232,320,472,320z M472,352c-4.408,0-8-3.592-8-8c0-4.408,3.592-8,8-8c4.408,0,8,3.592,8,8C480,348.408,476.408,352,472,352z
				"/>
			<path d="M144.912,272.584C144.304,275.016,144,277.496,144,280c0,11.632,6.344,22.176,16.216,27.792
				C160.088,309.176,160,310.576,160,312c0,26.472,21.528,48,48,48c16.688,0,31.392-8.568,40-21.52
				c8.608,12.96,23.312,21.52,40,21.52c26.472,0,48-21.528,48-48c0-1.424-0.088-2.824-0.216-4.208
				C345.656,302.176,352,291.632,352,280c0-2.496-0.304-4.984-0.912-7.416C361.544,265.168,368,253.04,368,240
				c0-12.928-6.36-25.008-16.76-32.472c0.464-2.448,0.76-4.952,0.76-7.528c0-20.392-15.392-37.072-35.136-39.504
				C310.792,146.12,296.56,136,280,136c-13.128,0-24.704,6.448-32,16.248c-7.296-9.8-18.872-16.248-32-16.248
				c-16.56,0-30.792,10.12-36.864,24.496C159.392,162.928,144,179.608,144,200c0,2.576,0.296,5.08,0.76,7.528
				C134.36,214.992,128,227.072,128,240C128,253.04,134.456,265.168,144.912,272.584z M256,176c0-13.232,10.768-24,24-24
				s24,10.768,24,24s-10.768,24-24,24v16c21.568,0,39.08-17.192,39.856-38.568C329.224,180.704,336,189.528,336,200
				c0,13.232-10.768,24-24,24v16c13.544,0,25.496-6.808,32.736-17.136C349.296,227.328,352,233.48,352,240
				c0,9.328-5.528,17.872-14.08,21.784l-7.632,3.488l3.848,7.456c1.24,2.392,1.864,4.84,1.864,7.272
				c0,4.328-1.888,8.248-4.816,11.184C323.416,275.128,307.008,264,288,264v16c17.648,0,32,14.352,32,32s-14.352,32-32,32
				s-32-14.352-32-32V176z M151.264,222.864C158.504,233.192,170.456,240,184,240v-16c-13.232,0-24-10.768-24-24
				c0-10.472,6.776-19.296,16.144-22.568C176.92,198.808,194.432,216,216,216v-16c-13.232,0-24-10.768-24-24s10.768-24,24-24
				s24,10.768,24,24v136c0,17.648-14.352,32-32,32s-32-14.352-32-32s14.352-32,32-32v-16c-19.008,0-35.416,11.128-43.184,27.184
				C161.888,288.248,160,284.328,160,280c0-2.432,0.624-4.88,1.856-7.264l3.856-7.464l-7.64-3.496
				C149.528,257.872,144,249.328,144,240C144,233.48,146.704,227.328,151.264,222.864z"/>
			<path d="M96,148.688V392h304V104H140.688L96,148.688z M384,120v256H112V155.312L147.312,120H384z"/>
		</g>
	</g>
</g>
<g>
</g>
<g>
</g>
<g>
</g>
<g>
</g>
<g>
</g>
<g>
</g>
<g>
</g>
<g>
</g>
<g>
</g>
<g>
</g>
<g>
</g>
<g>
</g>
<g>
</g>
<g>
</g>
<g>
</g>
</svg>
