<svg class="svg-icon" style="width: 1em; height: 1em;vertical-align: middle;fill: currentColor;overflow: hidden;" viewBox="0 0 1024 1024" version="1.1" xmlns="http://www.w3.org/2000/svg"><path d="M768 640v192h192V640H768zM665.72 704H208a80 80 0 0 1 0-160h208v64h192V416H416v64H208a144.87 144.87 0 0 0-16 0.89C120.1 488.88 64 550 64 624s56.1 135.12 128 143.11a144.87 144.87 0 0 0 16 0.89h457.72v64L768 736l-102.28-96z"  /><path d="M672 572.07L710.28 608v-64H752a144.13 144.13 0 0 0 144-144c0-74-56.1-135.12-128-143.11a144.87 144.87 0 0 0-16-0.89H256v-64H64v192h192v-64h496a80 80 0 0 1 0 160h-41.72v-64L672 451.93 642.09 480l-5.87 5.51L608 512l34.09 32z"  /></svg>