<svg xmlns="http://www.w3.org/2000/svg" version="1.1" width="96" height="96" viewbox="0 0 96 96"><rect x="0" y="0" width="96" height="96" fill="#FFFFFF"></rect><g transform="translate(24.072, 62.519999999999996)"><path d="M7.97-30.86L7.97-30.86Q8.11-30.96 16.94-30.96L16.94-30.96Q26.21-30.91 27.12-30.77L27.12-30.77Q27.22-30.72 27.6-30.67L27.6-30.67Q31.49-30 33.89-28.13 36.29-26.26 36.77-23.47L36.77-23.47Q36.82-23.09 36.82-21.98L36.82-21.98Q36.82-18.38 34.7-16.42L34.7-16.42Q33.5-15.26 31.94-14.66 30.38-14.06 29.42-13.9 28.46-13.73 28.46-13.68L28.46-13.68Q28.46-13.39 31.63-8.78L31.63-8.78Q36.77-1.2 39.07 0.1L39.07 0.1Q39.17 0.1 39.31 0.14L39.31 0.14Q39.55 0.24 39.6 0.24L39.6 0.24Q39.94 0.24 40.18 0.48 40.42 0.72 40.42 1.06 40.42 1.39 40.18 1.63L40.18 1.63Q39.98 1.87 39.46 1.87L39.46 1.87Q38.93 1.92 35.52 1.92L35.52 1.92 33.5 1.92Q31.68 1.92 31.3 1.87 30.91 1.82 30.77 1.58L30.77 1.58Q30.72 1.54 30.72 1.49L30.72 1.49Q30.67 1.44 25.92-5.9L25.92-5.9 21.26-13.15 19.54-13.15 19.54-7.39Q19.54-1.49 19.58-1.3L19.58-1.3Q19.68-0.38 20.14-0.12 20.59 0.14 22.13 0.24L22.13 0.24Q23.09 0.24 23.18 0.29L23.18 0.29Q23.81 0.29 23.81 1.06L23.81 1.06Q23.81 1.73 23.28 1.87L23.28 1.87Q23.18 1.92 15.65 1.92L15.65 1.92Q9.65 1.92 8.83 1.87L8.83 1.87Q7.92 1.87 7.73 1.68L7.73 1.68Q7.44 1.49 7.44 1.1L7.44 1.1Q7.44 0.43 8.02 0.29L8.02 0.29 8.26 0.29Q8.4 0.29 8.64 0.24L8.64 0.24Q8.88 0.24 9.12 0.24L9.12 0.24Q10.66 0.14 11.11-0.12 11.57-0.38 11.66-1.3L11.66-1.3 11.66-4.22Q11.66-5.57 11.71-7.1L11.71-7.1Q11.71-8.74 11.71-10.7L11.71-10.7 11.71-18.34Q11.71-20.3 11.71-21.94L11.71-21.94Q11.66-23.47 11.66-24.82L11.66-24.82 11.66-27.74Q11.57-28.66 11.11-28.92 10.66-29.18 9.12-29.28L9.12-29.28 8.64-29.28Q8.4-29.28 8.23-29.3 8.06-29.33 8.02-29.33L8.02-29.33Q7.44-29.47 7.44-30.1L7.44-30.1Q7.44-30.62 7.97-30.86ZM18.24 0.19L18.24 0.19Q18.19 0.1 18.14-0.07 18.1-0.24 18.07-0.31 18.05-0.38 18-0.53 17.95-0.67 17.95-0.82 17.95-0.96 17.95-1.15L17.95-1.15Q17.9-1.34 17.9-1.63L17.9-1.63Q17.9-1.87 17.9-2.21L17.9-2.21Q17.86-2.54 17.86-3.07L17.86-3.07 17.86-14.64Q17.86-27.74 17.9-28.03L17.9-28.03Q18.14-28.8 18.48-29.28L18.48-29.28 15.74-29.28Q13.01-29.28 13.01-29.23L13.01-29.23Q13.06-29.14 13.1-28.97 13.15-28.8 13.18-28.73 13.2-28.66 13.25-28.51 13.3-28.37 13.3-28.22 13.3-28.08 13.34-27.89L13.34-27.89Q13.34-27.7 13.34-27.46L13.34-27.46Q13.34-27.17 13.39-26.83L13.39-26.83Q13.39-26.5 13.39-26.02L13.39-26.02 13.39-14.5Q13.39-4.13 13.39-2.4L13.39-2.4Q13.34-0.72 13.1-0.14L13.1-0.14 13.01 0.19Q13.01 0.24 15.65 0.24L15.65 0.24Q18.24 0.24 18.24 0.19ZM28.18-25.58L28.18-25.58Q27.6-27.6 26.18-28.42 24.77-29.23 22.13-29.23L22.13-29.23Q20.16-29.23 19.58-27.79L19.58-27.79 19.54-21.31 19.54-14.83 20.83-14.83Q24.67-14.93 26.21-15.65 27.74-16.37 28.27-18.29L28.27-18.29Q28.61-19.58 28.61-21.7L28.61-21.7Q28.61-24.14 28.18-25.58ZM27.55-11.95L27.55-11.95Q26.59-13.44 26.45-13.44L26.45-13.44 26.3-13.44Q26.3-13.34 25.1-13.34L25.1-13.34Q23.71-13.25 23.57-13.2L23.57-13.2 23.23-13.2 31.87 0.19 34.22 0.24 36.53 0.24 36-0.29Q34.08-2.3 31.63-5.86L31.63-5.86Q29.47-8.88 27.55-11.95ZM28.94-28.66L28.42-28.8Q30.29-26.35 30.29-21.89L30.29-21.89Q30.29-17.62 28.75-15.46L28.75-15.46Q29.42-15.6 30.1-15.79L30.1-15.79Q32.74-16.56 33.96-18 35.18-19.44 35.18-21.94L35.18-21.94Q35.18-26.4 30.14-28.27L30.14-28.27Q29.95-28.37 29.47-28.51 28.99-28.66 28.94-28.66L28.94-28.66Z" fill="#404040"></path></g></svg>