<svg xmlns="http://www.w3.org/2000/svg" version="1.1" width="96" height="96" viewbox="0 0 96 96"><rect x="0" y="0" width="96" height="96" fill="#FFFFFF"></rect><g transform="translate(23.92177844238281, 62.064)"><path d="M7.87 1.1L7.87 1.1Q7.87 0.24 9.02 0.24L9.02 0.24Q10.51 0.24 11.18-0.24 11.86-0.72 12-1.97L12-1.97Q12.05-2.3 12.05-14.78L12.05-14.78 12.05-27.12 11.71-27.5Q10.22-29.14 8.83-29.28L8.83-29.28Q7.73-29.38 7.73-30.1L7.73-30.1Q7.73-30.62 8.26-30.91L8.26-30.91Q8.35-30.96 13.54-30.96L13.54-30.96Q17.71-30.96 18.34-30.96L18.34-30.96Q18.96-30.91 19.2-30.67L19.2-30.67Q19.3-30.53 26.9-20.57 34.51-10.61 34.56-10.56 34.61-10.51 34.61-11.86L34.61-11.86 34.61-18.82 34.56-27.17Q34.22-28.42 33.6-28.85 32.98-29.28 31.34-29.28L31.34-29.28Q30.48-29.28 30.24-29.76L30.24-29.76Q29.86-30.53 30.67-30.86L30.67-30.86Q30.82-30.96 35.28-30.96L35.28-30.96Q38.83-30.96 39.38-30.94 39.94-30.91 40.13-30.67L40.13-30.67Q40.75-30.05 40.08-29.47L40.08-29.47Q39.84-29.28 39.07-29.28L39.07-29.28Q37.92-29.18 37.42-28.87 36.91-28.56 36.72-27.65L36.72-27.65Q36.67-27.31 36.62-12.53L36.62-12.53Q36.62 2.21 36.53 2.4L36.53 2.4Q36.29 2.74 36 2.83L36 2.83Q35.62 2.83 35.33 2.69L35.33 2.69Q35.09 2.45 29.81-4.37L29.81-4.37Q24.38-11.28 19.34-17.81L19.34-17.81Q14.16-24.43 14.11-24.43L14.11-24.43 14.06-22.46 14.06-13.2 14.11-1.92Q14.4-0.62 15.02-0.19 15.65 0.24 17.33 0.24L17.33 0.24Q18.53 0.24 18.53 1.1L18.53 1.1Q18.53 1.63 18 1.87L18 1.87Q17.9 1.92 13.2 1.92L13.2 1.92Q9.55 1.92 8.98 1.87L8.98 1.87Q8.35 1.87 8.16 1.68L8.16 1.68Q7.87 1.49 7.87 1.1ZM34.94-0.48L34.94-7.25Q23.71-21.94 18.14-29.28L18.14-29.28 12.34-29.28 12.86-28.7Q13.1-28.42 24.19-14.3L24.19-14.3 34.94-0.48Z" fill="#404040"></path></g></svg>