<svg xmlns="http://www.w3.org/2000/svg" version="1.1" width="96" height="96" viewbox="0 0 96 96"><rect x="0" y="0" width="96" height="96" fill="#FFFFFF"></rect><g transform="translate(24.072000000000003, 62.519999999999996)"><path d="M37.78-9.74L37.78-9.74Q37.97-9.74 38.21-9.55 38.45-9.36 38.54-9.12L38.54-9.12Q38.54-8.78 37.85-3.77 37.15 1.25 37.15 1.3L37.15 1.3Q37.15 1.63 36.67 1.87L36.67 1.87Q36.58 1.92 23.3 1.92 10.03 1.92 9.89 1.82L9.89 1.82Q9.02 1.49 9.46 0.72L9.46 0.72Q9.6 0.53 18.62-14.21 27.65-28.94 27.84-29.28L27.84-29.28 25.1-29.28Q21.7-29.23 20.4-28.94L20.4-28.94Q17.23-28.37 15.12-26.62 13.01-24.86 12.72-22.51L12.72-22.51Q12.58-21.55 11.86-21.55L11.86-21.55Q11.28-21.55 10.99-22.27L10.99-22.27 11.42-26.26Q11.86-30.24 11.95-30.43L11.95-30.43Q12.1-30.72 12.38-30.86L12.38-30.86Q12.53-30.96 24.46-30.96 36.38-30.96 36.53-30.91L36.53-30.91Q37.1-30.62 37.06-30L37.06-30Q36.96-29.86 27.84-14.93 18.72 0 18.62 0.14L18.62 0.14 18.58 0.24 22.7 0.24Q26.78 0.19 27.46 0.1L27.46 0.1Q30.96-0.43 33.58-2.83 36.19-5.23 36.77-8.59L36.77-8.59Q36.96-9.74 37.78-9.74ZM16.61 0.19L16.61 0.19Q16.61 0.19 20.93-6.77L20.93-6.77Q25.1-13.63 29.71-21.17L29.71-21.17Q34.18-28.56 34.7-29.28L34.7-29.28 29.81-29.28 28.8-27.65Q28.51-27.22 19.78-12.91L19.78-12.91 11.71 0.19 14.16 0.24Q16.61 0.24 16.61 0.19ZM15.6-28.99L15.6-28.99 16.08-29.28 14.78-29.28Q13.44-29.28 13.44-29.23L13.44-29.23Q13.44-28.22 13.2-27.26L13.2-27.26Q13.2-27.12 13.58-27.5L13.58-27.5Q13.63-27.5 13.73-27.6L13.73-27.6Q14.54-28.37 15.6-28.99ZM35.62 0.24L35.62 0.14Q35.62 0.1 35.83-1.39 36.05-2.88 36.05-2.98L36.05-2.98Q36-2.98 36-2.93 36-2.88 35.21-2.09 34.42-1.3 34.08-1.01L34.08-1.01Q33.5-0.53 32.26 0.24L32.26 0.24 35.62 0.24Z" fill="#404040"></path></g></svg>