<svg version="1.1" viewBox="0.0 0.0 300.0 300.0" fill="none" stroke="none" stroke-linecap="square" stroke-miterlimit="10" xmlns:xlink="http://www.w3.org/1999/xlink" xmlns="http://www.w3.org/2000/svg"><clipPath id="p.0"><path d="m0 0l300.0 0l0 300.0l-300.0 0l0 -300.0z" clip-rule="nonzero"/></clipPath><g clip-path="url(#p.0)"><path fill="#000000" fill-opacity="0.0" d="m0 0l300.0 0l0 300.0l-300.0 0z" fill-rule="evenodd"/><path fill="#000000" fill-opacity="0.0" d="m0 19.102362l300.0 0l0 261.7953l-300.0 0z" fill-rule="evenodd"/><path fill="#000000" d="m18.625 124.10236l0 -63.8125l12.203125 0l0 53.515625l26.953125 0l0 10.296875l-39.15625 0zm96.82422 -25.203125q0 5.859375 -1.671875 10.71875q-1.65625 4.859375 -4.78125 8.328125q-3.125 3.46875 -7.671875 5.375q-4.53125 1.90625 -10.34375 1.90625q-5.515625 0 -9.859375 -1.609375q-4.34375 -1.609375 -7.375 -4.8125q-3.03125 -3.203125 -4.640625 -8.0q-1.609375 -4.8125 -1.609375 -11.21875q0 -5.90625 1.6875 -10.734375q1.6875 -4.84375 4.828125 -8.25q3.15625 -3.421875 7.6875 -5.296875q4.546875 -1.890625 10.265625 -1.890625q5.5625 0 9.90625 1.640625q4.34375 1.640625 7.375 4.859375q3.03125 3.21875 4.609375 7.984375q1.59375 4.75 1.59375 11.0zm-12.40625 0.296875q0 -7.71875 -2.90625 -11.59375q-2.90625 -3.875 -8.5625 -3.875q-3.125 0 -5.328125 1.21875q-2.203125 1.21875 -3.625 3.34375q-1.40625 2.125 -2.0625 4.953125q-0.65625 2.828125 -0.65625 6.046875q0 7.765625 3.125 11.703125q3.125 3.921875 8.546875 3.921875q2.96875 0 5.171875 -1.1875q2.203125 -1.203125 3.5625 -3.328125q1.375 -2.125 2.046875 -5.0q0.6875 -2.875 0.6875 -6.203125zm54.63672 -5.421875q0.09375 -2.78125 -0.265625 -4.734375q-0.359375 -1.953125 -1.171875 -3.21875q-0.8125 -1.265625 -1.984375 -1.84375q-1.171875 -0.59375 -2.671875 -0.59375q-2.640625 0 -5.453125 2.171875q-2.8125 2.171875 -6.171875 7.15625l0 31.390625l-12.203125 0l0 -49.609375l10.78125 0l0.4375 7.21875q1.21875 -1.890625 2.75 -3.40625q1.546875 -1.515625 3.421875 -2.609375q1.890625 -1.109375 4.1875 -1.6875q2.296875 -0.59375 5.03125 -0.59375q3.75 0 6.65625 1.296875q2.90625 1.296875 4.875 3.84375q1.984375 2.53125 2.9375 6.359375q0.953125 3.828125 0.8125 8.859375l-11.96875 0zm66.26172 1.71875q0 1.21875 -0.078125 3.171875q-0.0625 1.953125 -0.21875 3.65625l-32.609375 0q0 3.28125 1.0 5.765625q1.0 2.484375 2.828125 4.171875q1.828125 1.6875 4.390625 2.5625q2.5625 0.875 5.6875 0.875q3.625 0 7.75 -0.546875q4.125 -0.5625 8.5625 -1.84375l0 9.484375q-1.90625 0.53125 -4.15625 0.96875q-2.234375 0.4375 -4.578125 0.78125q-2.34375 0.34375 -4.734375 0.515625q-2.390625 0.171875 -4.640625 0.171875q-5.671875 0 -10.171875 -1.609375q-4.484375 -1.609375 -7.609375 -4.765625q-3.125 -3.15625 -4.78125 -7.78125q-1.65625 -4.640625 -1.65625 -10.75q0 -6.046875 1.65625 -11.0q1.65625 -4.96875 4.6875 -8.5q3.03125 -3.546875 7.34375 -5.46875q4.328125 -1.9375 9.65625 -1.9375q5.265625 0 9.3125 1.640625q4.0625 1.640625 6.796875 4.578125q2.734375 2.921875 4.140625 6.96875q1.421875 4.046875 1.421875 8.890625zm-12.109375 -1.71875q0.046875 -2.921875 -0.734375 -5.09375q-0.78125 -2.171875 -2.125 -3.59375q-1.34375 -1.421875 -3.125 -2.09375q-1.78125 -0.6875 -3.828125 -0.6875q-4.5 0 -7.375 3.0q-2.875 3.0 -3.421875 8.46875l20.609375 0zm58.88672 30.328125l0 -33.796875q0 -1.84375 -0.09375 -3.234375q-0.09375 -1.390625 -0.390625 -2.3125q-0.296875 -0.9375 -0.859375 -1.40625q-0.5625 -0.46875 -1.53125 -0.46875q-1.515625 0 -2.984375 2.0625q-1.46875 2.046875 -3.3125 6.984375l0 32.171875l-10.21875 0l0 -33.796875q0 -1.84375 -0.09375 -3.234375q-0.09375 -1.390625 -0.390625 -2.3125q-0.296875 -0.9375 -0.890625 -1.40625q-0.578125 -0.46875 -1.546875 -0.46875q-1.265625 0 -2.828125 2.0625q-1.5625 2.046875 -3.46875 6.984375l0 32.171875l-10.3125 0l0 -49.609375l8.84375 0l0.203125 7.21875q1.0625 -2.1875 2.140625 -3.75q1.078125 -1.5625 2.296875 -2.5625q1.21875 -1.0 2.609375 -1.4375q1.390625 -0.453125 3.15625 -0.453125q4.140625 0 6.3125 2.1875q2.171875 2.171875 2.46875 6.015625q1.171875 -2.1875 2.3125 -3.75q1.15625 -1.5625 2.390625 -2.5625q1.25 -1.0 2.6875 -1.4375q1.453125 -0.453125 3.203125 -0.453125q5.421875 0 8.0 3.796875q2.59375 3.78125 2.59375 11.203125l0 35.59375l-10.296875 0z" fill-rule="nonzero"/><path fill="#000000" d="m16.328125 190.10236l0 -9.8125l40.328125 0l0 9.8125l-14.0625 0l0 44.09375l14.0625 0l0 9.90625l-40.328125 0l0 -9.90625l14.0625 0l0 -44.09375l-14.0625 0zm99.07422 28.3125q0 6.84375 -1.9375 11.828125q-1.921875 4.96875 -5.375 8.265625q-3.4375 3.296875 -8.125 4.890625q-4.6875 1.578125 -10.203125 1.578125q-1.859375 0 -3.71875 -0.25q-1.84375 -0.234375 -3.359375 -0.625l0 19.390625l-11.921875 0l0 -69.0l10.3125 0l0.296875 7.328125q1.5 -1.90625 3.140625 -3.46875q1.640625 -1.5625 3.546875 -2.65625q1.90625 -1.109375 4.09375 -1.6875q2.203125 -0.59375 4.9375 -0.59375q4.390625 0 7.8125 1.765625q3.421875 1.75 5.734375 5.0q2.3125 3.25 3.53125 7.859375q1.234375 4.609375 1.234375 10.375zm-12.5 0.484375q0 -4.09375 -0.59375 -6.96875q-0.578125 -2.890625 -1.6875 -4.734375q-1.09375 -1.859375 -2.6875 -2.71875q-1.578125 -0.859375 -3.625 -0.859375q-3.03125 0 -5.796875 2.453125q-2.75 2.4375 -5.828125 6.640625l0 21.671875q1.421875 0.53125 3.484375 0.875q2.078125 0.34375 4.234375 0.34375q2.828125 0 5.140625 -1.171875q2.328125 -1.171875 3.953125 -3.3125q1.640625 -2.15625 2.515625 -5.25q0.890625 -3.109375 0.890625 -6.96875zm63.76172 10.609375q0 4.234375 -1.875 7.25q-1.875 3.0 -4.984375 4.875q-3.09375 1.875 -7.03125 2.734375q-3.921875 0.859375 -8.03125 0.859375q-5.46875 0 -9.859375 -0.515625q-4.390625 -0.515625 -8.296875 -1.484375l0 -10.75q4.578125 1.90625 9.140625 2.765625q4.578125 0.84375 8.625 0.84375q4.6875 0 7.0 -1.484375q2.328125 -1.484375 2.328125 -3.875q0 -1.125 -0.5 -2.046875q-0.484375 -0.9375 -1.828125 -1.78125q-1.328125 -0.859375 -3.78125 -1.765625q-2.4375 -0.90625 -6.390625 -2.03125q-3.65625 -1.015625 -6.421875 -2.3125q-2.765625 -1.296875 -4.578125 -3.046875q-1.796875 -1.765625 -2.703125 -4.078125q-0.890625 -2.328125 -0.890625 -5.453125q0 -3.03125 1.359375 -5.703125q1.375 -2.6875 4.078125 -4.71875q2.703125 -2.03125 6.75 -3.203125q4.0625 -1.171875 9.484375 -1.171875q4.6875 0 8.296875 0.5q3.625 0.484375 6.40625 1.0625l0 9.71875q-4.25 -1.359375 -7.984375 -1.921875q-3.734375 -0.5625 -7.40625 -0.5625q-3.65625 0 -5.875 1.3125q-2.21875 1.3125 -2.21875 3.65625q0 1.125 0.4375 2.015625q0.4375 0.875 1.71875 1.703125q1.296875 0.828125 3.609375 1.734375q2.328125 0.90625 6.140625 1.96875q4.296875 1.234375 7.21875 2.625q2.9375 1.390625 4.71875 3.15625q1.78125 1.75 2.5625 4.0q0.78125 2.234375 0.78125 5.125zm25.886719 -35.015625l0 32.328125q0 4.046875 1.5 6.125q1.515625 2.078125 4.59375 2.078125q2.984375 0 5.734375 -2.46875q2.765625 -2.46875 5.84375 -6.671875l0 -31.390625l11.90625 0l0 49.609375l-10.296875 0l-0.296875 -7.328125q-1.5625 1.90625 -3.171875 3.46875q-1.609375 1.5625 -3.5 2.671875q-1.875 1.09375 -4.09375 1.703125q-2.21875 0.609375 -4.90625 0.609375q-3.8125 0 -6.671875 -1.25q-2.84375 -1.25 -4.75 -3.53125q-1.90625 -2.296875 -2.859375 -5.5q-0.953125 -3.203125 -0.953125 -7.15625l0 -33.296875l11.921875 0zm78.16797 49.609375l0 -33.796875q0 -1.84375 -0.09375 -3.234375q-0.09375 -1.390625 -0.390625 -2.3125q-0.296875 -0.9375 -0.859375 -1.40625q-0.5625 -0.46875 -1.53125 -0.46875q-1.515625 0 -2.984375 2.0625q-1.46875 2.046875 -3.3125 6.984375l0 32.171875l-10.21875 0l0 -33.796875q0 -1.84375 -0.09375 -3.234375q-0.09375 -1.390625 -0.390625 -2.3125q-0.296875 -0.9375 -0.890625 -1.40625q-0.578125 -0.46875 -1.546875 -0.46875q-1.265625 0 -2.828125 2.0625q-1.5625 2.046875 -3.46875 6.984375l0 32.171875l-10.3125 0l0 -49.609375l8.84375 0l0.203125 7.21875q1.0625 -2.1875 2.140625 -3.75q1.078125 -1.5625 2.296875 -2.5625q1.21875 -1.0 2.609375 -1.4375q1.390625 -0.453125 3.15625 -0.453125q4.140625 0 6.3125 2.1875q2.171875 2.171875 2.46875 6.015625q1.171875 -2.1875 2.3125 -3.75q1.15625 -1.5625 2.390625 -2.5625q1.25 -1.0 2.6875 -1.4375q1.453125 -0.453125 3.203125 -0.453125q5.421875 0 8.0 3.796875q2.59375 3.78125 2.59375 11.203125l0 35.59375l-10.296875 0z" fill-rule="nonzero"/></g></svg>