<svg version="1.1" viewBox="0.0 0.0 300.0 300.0" fill="none" stroke="none" stroke-linecap="square" stroke-miterlimit="10" xmlns:xlink="http://www.w3.org/1999/xlink" xmlns="http://www.w3.org/2000/svg"><clipPath id="p.0"><path d="m0 0l300.0 0l0 300.0l-300.0 0l0 -300.0z" clip-rule="nonzero"/></clipPath><g clip-path="url(#p.0)"><path fill="#000000" fill-opacity="0.0" d="m0 0l300.0 0l0 300.0l-300.0 0z" fill-rule="evenodd"/><path fill="#ffffff" d="m114.48163 22.832022l71.036224 0l0 42.723053c-35.518112 0 -35.518112 16.278267 -71.036224 7.029251z" fill-rule="evenodd"/><path stroke="#000000" stroke-width="8.0" stroke-linejoin="round" stroke-linecap="butt" d="m114.48163 22.832022l71.036224 0l0 42.723053c-35.518112 0 -35.518112 16.278267 -71.036224 7.029251z" fill-rule="evenodd"/><path fill="#ffffff" d="m11.877953 123.362206l71.036224 0l0 42.723045c-35.518112 0 -35.518112 16.278275 -71.036224 7.0292664z" fill-rule="evenodd"/><path stroke="#000000" stroke-width="8.0" stroke-linejoin="round" stroke-linecap="butt" d="m11.877953 123.362206l71.036224 0l0 42.723045c-35.518112 0 -35.518112 16.278275 -71.036224 7.0292664z" fill-rule="evenodd"/><path fill="#ffffff" d="m114.48163 123.362206l71.036224 0l0 42.723045c-35.518112 0 -35.518112 16.278275 -71.036224 7.0292664z" fill-rule="evenodd"/><path stroke="#000000" stroke-width="8.0" stroke-linejoin="round" stroke-linecap="butt" d="m114.48163 123.362206l71.036224 0l0 42.723045c-35.518112 0 -35.518112 16.278275 -71.036224 7.0292664z" fill-rule="evenodd"/><path fill="#ffffff" d="m217.0853 123.362206l71.036224 0l0 42.723045c-35.518112 0 -35.518112 16.278275 -71.036224 7.0292664z" fill-rule="evenodd"/><path stroke="#000000" stroke-width="8.0" stroke-linejoin="round" stroke-linecap="butt" d="m217.0853 123.362206l71.036224 0l0 42.723045c-35.518112 0 -35.518112 16.278275 -71.036224 7.0292664z" fill-rule="evenodd"/><path fill="#ffffff" d="m11.877953 224.46457l71.036224 0l0 42.723053c-35.518112 0 -35.518112 16.27826 -71.036224 7.029236z" fill-rule="evenodd"/><path stroke="#000000" stroke-width="8.0" stroke-linejoin="round" stroke-linecap="butt" d="m11.877953 224.46457l71.036224 0l0 42.723053c-35.518112 0 -35.518112 16.27826 -71.036224 7.029236z" fill-rule="evenodd"/><path fill="#000000" fill-opacity="0.0" d="m114.48163 49.469185l-67.08662 0l0 73.88976" fill-rule="evenodd"/><path stroke="#000000" stroke-width="8.0" stroke-linejoin="round" stroke-linecap="butt" d="m114.48163 49.469185l-67.08662 0l0 73.88976" fill-rule="evenodd"/><path fill="#000000" fill-opacity="0.0" d="m149.99974 72.58433l0 26.810478l0.06298828 0l0 23.961174" fill-rule="evenodd"/><path stroke="#000000" stroke-width="8.0" stroke-linejoin="round" stroke-linecap="butt" d="m149.99974 72.58433l0 26.810478l0.06298828 0l0 23.961174" fill-rule="evenodd"/><path fill="#000000" fill-opacity="0.0" d="m185.51785 49.469185l67.08661 0l0 73.88976" fill-rule="evenodd"/><path stroke="#000000" stroke-width="8.0" stroke-linejoin="round" stroke-linecap="butt" d="m185.51785 49.469185l67.08661 0l0 73.88976" fill-rule="evenodd"/><path fill="#000000" fill-opacity="0.0" d="m47.396065 173.11452l0 27.096497l0.062992096 0l0 24.24208" fill-rule="evenodd"/><path stroke="#000000" stroke-width="8.0" stroke-linejoin="round" stroke-linecap="butt" d="m47.396065 173.11452l0 27.096497l0.062992096 0l0 24.24208" fill-rule="evenodd"/></g></svg>