<?xml version="1.0" encoding="iso-8859-1"?>
<!-- Uploaded to: SVG Repo, www.svgrepo.com, Generator: SVG Repo Mixer Tools -->
<svg fill="#000000" height="800px" width="800px" version="1.1" id="Layer_1" xmlns="http://www.w3.org/2000/svg" xmlns:xlink="http://www.w3.org/1999/xlink" 
	 viewBox="0 0 512 512" xml:space="preserve">
<g>
	<g>
		<g>
			<path d="M426.667,76.8c0-14.114-11.486-25.6-25.6-25.6c-14.114,0-25.6,11.486-25.6,25.6s11.486,25.6,25.6,25.6
				C415.181,102.4,426.667,90.914,426.667,76.8z M392.533,76.8c0-4.702,3.831-8.533,8.533-8.533c4.702,0,8.533,3.831,8.533,8.533
				c0,4.702-3.831,8.533-8.533,8.533C396.365,85.333,392.533,81.502,392.533,76.8z"/>
			<path d="M93.867,341.333c-4.71,0-8.533,3.823-8.533,8.533s3.823,8.533,8.533,8.533h153.6c4.71,0,8.533-3.823,8.533-8.533
				s-3.823-8.533-8.533-8.533H93.867z"/>
			<path d="M358.4,76.8c0-14.114-11.486-25.6-25.6-25.6c-14.114,0-25.6,11.486-25.6,25.6s11.486,25.6,25.6,25.6
				C346.914,102.4,358.4,90.914,358.4,76.8z M324.267,76.8c0-4.702,3.831-8.533,8.533-8.533c4.702,0,8.533,3.831,8.533,8.533
				c0,4.702-3.831,8.533-8.533,8.533C328.098,85.333,324.267,81.502,324.267,76.8z"/>
			<path d="M247.467,85.333c4.71,0,8.533-3.823,8.533-8.533s-3.823-8.533-8.533-8.533h-153.6c-4.71,0-8.533,3.823-8.533,8.533
				s3.823,8.533,8.533,8.533H247.467z"/>
			<path d="M469.333,0H42.667C20.736,0,0,20.736,0,42.667v68.267c0,4.71,3.823,8.533,8.533,8.533s8.533-3.823,8.533-8.533V42.667
				c0-12.442,13.158-25.6,25.6-25.6h426.667c12.442,0,25.6,13.158,25.6,25.6V384c0,12.442-13.158,25.6-25.6,25.6H42.667
				c-12.442,0-25.6-13.158-25.6-25.6v-93.867h452.267c4.71,0,8.533-3.823,8.533-8.533s-3.823-8.533-8.533-8.533H8.533
				C3.823,273.067,0,276.89,0,281.6V384c0,21.931,20.736,42.667,42.667,42.667h426.667C491.264,426.667,512,405.931,512,384V42.667
				C512,20.736,491.264,0,469.333,0z"/>
			<path d="M8.533,256c4.71,0,8.533-3.823,8.533-8.533V153.6h452.267c4.71,0,8.533-3.823,8.533-8.533
				c0-4.71-3.823-8.533-8.533-8.533H8.533c-4.71,0-8.533,3.823-8.533,8.533v102.4C0,252.177,3.823,256,8.533,256z"/>
			<path d="M375.467,349.867c0,14.114,11.486,25.6,25.6,25.6c14.114,0,25.6-11.486,25.6-25.6s-11.486-25.6-25.6-25.6
				C386.953,324.267,375.467,335.753,375.467,349.867z M409.6,349.867c0,4.702-3.831,8.533-8.533,8.533
				c-4.702,0-8.533-3.831-8.533-8.533s3.831-8.533,8.533-8.533C405.769,341.333,409.6,345.165,409.6,349.867z"/>
			<path d="M401.067,477.867H280.03c-2.577-7.228-8.269-12.919-15.497-15.497v-10.103c0-4.71-3.823-8.533-8.533-8.533
				s-8.533,3.823-8.533,8.533v10.103c-7.228,2.577-12.919,8.269-15.497,15.497H110.933c-4.71,0-8.533,3.823-8.533,8.533
				s3.823,8.533,8.533,8.533h121.045C235.511,504.849,244.89,512,256,512s20.489-7.151,24.03-17.067h121.037
				c4.71,0,8.533-3.823,8.533-8.533S405.777,477.867,401.067,477.867z M256,494.933c-4.702,0-8.533-3.831-8.533-8.533
				s3.831-8.533,8.533-8.533c4.702,0,8.533,3.831,8.533,8.533S260.702,494.933,256,494.933z"/>
			<path d="M93.867,204.8c-4.71,0-8.533,3.823-8.533,8.533c0,4.71,3.823,8.533,8.533,8.533h153.6c4.71,0,8.533-3.823,8.533-8.533
				c0-4.71-3.823-8.533-8.533-8.533H93.867z"/>
			<path d="M375.467,213.333c0,14.114,11.486,25.6,25.6,25.6c14.114,0,25.6-11.486,25.6-25.6c0-14.114-11.486-25.6-25.6-25.6
				C386.953,187.733,375.467,199.219,375.467,213.333z M409.6,213.333c0,4.702-3.831,8.533-8.533,8.533
				c-4.702,0-8.533-3.831-8.533-8.533c0-4.702,3.831-8.533,8.533-8.533C405.769,204.8,409.6,208.631,409.6,213.333z"/>
			<path d="M307.2,349.867c0,14.114,11.486,25.6,25.6,25.6c14.114,0,25.6-11.486,25.6-25.6s-11.486-25.6-25.6-25.6
				C318.686,324.267,307.2,335.753,307.2,349.867z M341.333,349.867c0,4.702-3.831,8.533-8.533,8.533
				c-4.702,0-8.533-3.831-8.533-8.533s3.831-8.533,8.533-8.533C337.502,341.333,341.333,345.165,341.333,349.867z"/>
			<path d="M307.2,213.333c0,14.114,11.486,25.6,25.6,25.6c14.114,0,25.6-11.486,25.6-25.6c0-14.114-11.486-25.6-25.6-25.6
				C318.686,187.733,307.2,199.219,307.2,213.333z M341.333,213.333c0,4.702-3.831,8.533-8.533,8.533
				c-4.702,0-8.533-3.831-8.533-8.533c0-4.702,3.831-8.533,8.533-8.533C337.502,204.8,341.333,208.631,341.333,213.333z"/>
		</g>
	</g>
</g>
</svg>