<svg version="1.1" viewBox="0.0 0.0 960.0 720.0" fill="none" stroke="none" stroke-linecap="square" stroke-miterlimit="10" xmlns:xlink="http://www.w3.org/1999/xlink" xmlns="http://www.w3.org/2000/svg"><clipPath id="p.0"><path d="m0 0l960.0 0l0 720.0l-960.0 0l0 -720.0z" clip-rule="nonzero"/></clipPath><g clip-path="url(#p.0)"><path fill="#000000" fill-opacity="0.0" d="m0 0l960.0 0l0 720.0l-960.0 0z" fill-rule="evenodd"/><path fill="#ffffff" d="m551.12335 203.01837l0 0c0 -33.415405 27.074463 -60.503937 60.472473 -60.503937l0 0c16.038269 0 31.419678 6.3745117 42.760437 17.721191c11.34082 11.346695 17.711975 26.7361 17.711975 42.782745l0 0c0 33.415405 -27.074402 60.503937 -60.472412 60.503937l0 0c-33.39801 0 -60.472473 -27.088531 -60.472473 -60.503937z" fill-rule="evenodd"/><path stroke="#000000" stroke-width="8.0" stroke-linejoin="round" stroke-linecap="butt" d="m551.12335 203.01837l0 0c0 -33.415405 27.074463 -60.503937 60.472473 -60.503937l0 0c16.038269 0 31.419678 6.3745117 42.760437 17.721191c11.34082 11.346695 17.711975 26.7361 17.711975 42.782745l0 0c0 33.415405 -27.074402 60.503937 -60.472412 60.503937l0 0c-33.39801 0 -60.472473 -27.088531 -60.472473 -60.503937z" fill-rule="evenodd"/><path fill="#ffffff" d="m229.78215 299.49606l0 0c0 -33.415405 27.074448 -60.503937 60.472458 -60.503937l0 0c16.038269 0 31.419678 6.3744965 42.760468 17.721191c11.340759 11.34668 17.711945 26.736115 17.711945 42.782745l0 0c0 33.415405 -27.074432 60.503937 -60.472412 60.503937l0 0c-33.39801 0 -60.472458 -27.088531 -60.472458 -60.503937z" fill-rule="evenodd"/><path stroke="#000000" stroke-width="8.0" stroke-linejoin="round" stroke-linecap="butt" d="m229.78215 299.49606l0 0c0 -33.415405 27.074448 -60.503937 60.472458 -60.503937l0 0c16.038269 0 31.419678 6.3744965 42.760468 17.721191c11.340759 11.34668 17.711945 26.736115 17.711945 42.782745l0 0c0 33.415405 -27.074432 60.503937 -60.472412 60.503937l0 0c-33.39801 0 -60.472458 -27.088531 -60.472458 -60.503937z" fill-rule="evenodd"/><path fill="#ffffff" d="m824.01575 377.30185l0 0c0 -33.415405 27.074463 -60.503937 60.472412 -60.503937l0 0c16.03833 0 31.419739 6.374481 42.760498 17.721191c11.340759 11.34668 17.711975 26.736084 17.711975 42.782745l0 0c0 33.415375 -27.074463 60.503937 -60.472473 60.503937l0 0c-33.39795 0 -60.472412 -27.088562 -60.472412 -60.503937z" fill-rule="evenodd"/><path stroke="#000000" stroke-width="8.0" stroke-linejoin="round" stroke-linecap="butt" d="m824.01575 377.30185l0 0c0 -33.415405 27.074463 -60.503937 60.472412 -60.503937l0 0c16.03833 0 31.419739 6.374481 42.760498 17.721191c11.340759 11.34668 17.711975 26.736084 17.711975 42.782745l0 0c0 33.415375 -27.074463 60.503937 -60.472473 60.503937l0 0c-33.39795 0 -60.472412 -27.088562 -60.472412 -60.503937z" fill-rule="evenodd"/><path fill="#ffffff" d="m19.664042 94.01837l0 0c0 -33.4154 27.074434 -60.503937 60.472443 -60.503937l0 0c16.038292 0 31.419693 6.374504 42.760475 17.721195c11.340775 11.346687 17.71196 26.736103 17.71196 42.78274l0 0c0 33.415405 -27.074425 60.503937 -60.472435 60.503937l0 0c-33.398006 0 -60.472443 -27.088531 -60.472443 -60.503937z" fill-rule="evenodd"/><path stroke="#000000" stroke-width="8.0" stroke-linejoin="round" stroke-linecap="butt" d="m19.664042 94.01837l0 0c0 -33.4154 27.074434 -60.503937 60.472443 -60.503937l0 0c16.038292 0 31.419693 6.374504 42.760475 17.721195c11.340775 11.346687 17.71196 26.736103 17.71196 42.78274l0 0c0 33.415405 -27.074425 60.503937 -60.472435 60.503937l0 0c-33.398006 0 -60.472443 -27.088531 -60.472443 -60.503937z" fill-rule="evenodd"/><path fill="#ffffff" d="m316.29398 631.8478l0 0c0 -33.415405 27.074432 -60.503967 60.472443 -60.503967l0 0c16.038269 0 31.419678 6.3745117 42.760468 17.721191c11.340759 11.346741 17.711945 26.736145 17.711945 42.782776l0 0c0 33.415405 -27.074432 60.503906 -60.472412 60.503906l0 0c-33.39801 0 -60.472443 -27.088501 -60.472443 -60.503906z" fill-rule="evenodd"/><path stroke="#000000" stroke-width="8.0" stroke-linejoin="round" stroke-linecap="butt" d="m316.29398 631.8478l0 0c0 -33.415405 27.074432 -60.503967 60.472443 -60.503967l0 0c16.038269 0 31.419678 6.3745117 42.760468 17.721191c11.340759 11.346741 17.711945 26.736145 17.711945 42.782776l0 0c0 33.415405 -27.074432 60.503906 -60.472412 60.503906l0 0c-33.39801 0 -60.472443 -27.088501 -60.472443 -60.503906z" fill-rule="evenodd"/><path fill="#ffffff" d="m630.62994 622.34644l0 0c0 -33.415405 27.074402 -60.503906 60.472412 -60.503906l0 0c16.038269 0 31.419678 6.3745117 42.760498 17.721191c11.340759 11.34668 17.711975 26.736084 17.711975 42.782715l0 0c0 33.415405 -27.074463 60.503967 -60.472473 60.503967l0 0c-33.39801 0 -60.472412 -27.088562 -60.472412 -60.503967z" fill-rule="evenodd"/><path stroke="#000000" stroke-width="8.0" stroke-linejoin="round" stroke-linecap="butt" d="m630.62994 622.34644l0 0c0 -33.415405 27.074402 -60.503906 60.472412 -60.503906l0 0c16.038269 0 31.419678 6.3745117 42.760498 17.721191c11.340759 11.34668 17.711975 26.736084 17.711975 42.782715l0 0c0 33.415405 -27.074463 60.503967 -60.472473 60.503967l0 0c-33.39801 0 -60.472412 -27.088562 -60.472412 -60.503967z" fill-rule="evenodd"/><path fill="#000000" fill-opacity="0.0" d="m551.12335 203.01837l-218.11023 53.700775" fill-rule="evenodd"/><path stroke="#000000" stroke-width="8.0" stroke-linejoin="round" stroke-linecap="butt" d="m551.12335 203.01837l-218.11023 53.700775" fill-rule="evenodd"/><path fill="#000000" fill-opacity="0.0" d="m672.06824 203.01837l169.66931 131.49606" fill-rule="evenodd"/><path stroke="#000000" stroke-width="8.0" stroke-linejoin="round" stroke-linecap="butt" d="m672.06824 203.01837l169.66931 131.49606" fill-rule="evenodd"/><path fill="#000000" fill-opacity="0.0" d="m247.49413 256.71332l-124.59843 -119.90552" fill-rule="evenodd"/><path stroke="#000000" stroke-width="8.0" stroke-linejoin="round" stroke-linecap="butt" d="m247.49413 256.71332l-124.59843 -119.90552" fill-rule="evenodd"/><path fill="#000000" fill-opacity="0.0" d="m290.2546 360.0l86.519684 211.33856" fill-rule="evenodd"/><path stroke="#000000" stroke-width="8.0" stroke-linejoin="round" stroke-linecap="butt" d="m290.2546 360.0l86.519684 211.33856" fill-rule="evenodd"/><path fill="#000000" fill-opacity="0.0" d="m841.7277 420.0846l-107.87402 159.46454" fill-rule="evenodd"/><path stroke="#000000" stroke-width="8.0" stroke-linejoin="round" stroke-linecap="butt" d="m841.7277 420.0846l-107.87402 159.46454" fill-rule="evenodd"/><path fill="#000000" fill-opacity="0.0" d="m611.5958 263.5223l36.75586 316.03152" fill-rule="evenodd"/><path stroke="#000000" stroke-width="8.0" stroke-linejoin="round" stroke-linecap="butt" d="m611.5958 263.5223l36.75586 316.03152" fill-rule="evenodd"/><path fill="#000000" fill-opacity="0.0" d="m437.23883 631.8478l193.38586 -9.511841" fill-rule="evenodd"/><path stroke="#000000" stroke-width="8.0" stroke-linejoin="round" stroke-linecap="butt" d="m437.23883 631.8478l193.38586 -9.511841" fill-rule="evenodd"/></g></svg>