<svg version="1.1" viewBox="0.0 0.0 960.0 720.0" fill="none" stroke="none" stroke-linecap="square" stroke-miterlimit="10" xmlns:xlink="http://www.w3.org/1999/xlink" xmlns="http://www.w3.org/2000/svg"><clipPath id="p.0"><path d="m0 0l960.0 0l0 720.0l-960.0 0l0 -720.0z" clip-rule="nonzero"/></clipPath><g clip-path="url(#p.0)"><path fill="#000000" fill-opacity="0.0" d="m0 0l960.0 0l0 720.0l-960.0 0z" fill-rule="evenodd"/><path fill="#ffffff" d="m409.14172 235.08136l151.18109 0l0 151.18112l-151.18109 0z" fill-rule="evenodd"/><path stroke="#000000" stroke-width="8.0" stroke-linejoin="round" stroke-linecap="butt" d="m409.14172 235.08136l151.18109 0l0 151.18112l-151.18109 0z" fill-rule="evenodd"/><path fill="#ffffff" d="m409.14172 386.26248l151.18109 0l0 151.18106l-151.18109 0z" fill-rule="evenodd"/><path stroke="#000000" stroke-width="8.0" stroke-linejoin="round" stroke-linecap="butt" d="m409.14172 386.26248l151.18109 0l0 151.18106l-151.18109 0z" fill-rule="evenodd"/><path fill="#ffffff" d="m409.14172 537.44354l151.18109 0l0 151.18115l-151.18109 0z" fill-rule="evenodd"/><path stroke="#000000" stroke-width="8.0" stroke-linejoin="round" stroke-linecap="butt" d="m409.14172 537.44354l151.18109 0l0 151.18115l-151.18109 0z" fill-rule="evenodd"/><path fill="#ffffff" d="m151.28871 31.375328l151.1811 0l0 151.18109l-151.1811 0z" fill-rule="evenodd"/><path stroke="#000000" stroke-width="8.0" stroke-linejoin="round" stroke-linecap="butt" d="m151.28871 31.375328l151.1811 0l0 151.18109l-151.1811 0z" fill-rule="evenodd"/><path fill="#ffffff" d="m657.5302 31.375328l151.18109 0l0 151.18109l-151.18109 0z" fill-rule="evenodd"/><path stroke="#000000" stroke-width="8.0" stroke-linejoin="round" stroke-linecap="butt" d="m657.5302 31.375328l151.18109 0l0 151.18109l-151.18109 0z" fill-rule="evenodd"/><path fill="#000000" fill-opacity="0.0" d="m302.46982 106.96588c56.74176 0 94.723694 31.354324 113.48355 62.708664c18.759827 31.354324 18.297577 62.708664 36.595184 62.708664" fill-rule="evenodd"/><path stroke="#000000" stroke-width="4.0" stroke-linejoin="round" stroke-linecap="butt" d="m302.46982 106.96588c56.74176 0 94.723724 31.354324 113.48355 62.708664c9.379913 15.677155 13.954315 31.354324 18.470917 43.112198c0.2822876 0.7348633 0.5643616 1.454422 0.8473816 2.1577148l0.22451782 0.5503998" fill-rule="evenodd"/><path fill="#000000" stroke="#000000" stroke-width="4.0" stroke-linecap="butt" d="m430.84702 220.18918l17.546722 8.079163l-8.248383 -17.46782z" fill-rule="evenodd"/><path fill="#000000" fill-opacity="0.0" d="m521.3412 233.86351c18.282043 0 19.540405 -31.724396 36.564026 -63.448807c17.02362 -31.724411 49.8125 -63.448822 99.625 -63.448822" fill-rule="evenodd"/><path stroke="#000000" stroke-width="4.0" stroke-linejoin="round" stroke-linecap="butt" d="m521.3412 233.86351c18.281982 0 19.540405 -31.724396 36.564026 -63.448807c8.511841 -15.862213 20.964966 -31.724411 37.516663 -43.62107c8.275879 -5.948326 17.576355 -10.905266 27.921204 -14.375122c2.5862427 -0.86746216 5.237671 -1.6419907 7.954712 -2.3158188c0.67926025 -0.16846466 1.3626709 -0.33062744 2.050171 -0.4863739l0.32122803 -0.07107544" fill-rule="evenodd"/><path fill="#000000" stroke="#000000" stroke-width="4.0" stroke-linecap="butt" d="m634.3793 116.11391l17.337158 -8.519562l-18.757324 -4.6177673z" fill-rule="evenodd"/></g></svg>