<svg version="1.1" viewBox="0.0 0.0 960.0 720.0" fill="none" stroke="none" stroke-linecap="square" stroke-miterlimit="10" xmlns:xlink="http://www.w3.org/1999/xlink" xmlns="http://www.w3.org/2000/svg"><clipPath id="p.0"><path d="m0 0l960.0 0l0 720.0l-960.0 0l0 -720.0z" clip-rule="nonzero"/></clipPath><g clip-path="url(#p.0)"><path fill="#000000" fill-opacity="0.0" d="m0 0l960.0 0l0 720.0l-960.0 0z" fill-rule="evenodd"/><path fill="#ffffff" d="m257.96063 424.05774l151.18109 0l0 151.18109l-151.18109 0z" fill-rule="evenodd"/><path stroke="#000000" stroke-width="8.0" stroke-linejoin="round" stroke-linecap="butt" d="m257.96063 424.05774l151.18109 0l0 151.18109l-151.18109 0z" fill-rule="evenodd"/><path fill="#ffffff" d="m409.14172 424.05774l151.18109 0l0 151.18109l-151.18109 0z" fill-rule="evenodd"/><path stroke="#000000" stroke-width="8.0" stroke-linejoin="round" stroke-linecap="butt" d="m409.14172 424.05774l151.18109 0l0 151.18109l-151.18109 0z" fill-rule="evenodd"/><path fill="#ffffff" d="m560.3228 424.05774l151.18115 0l0 151.18109l-151.18115 0z" fill-rule="evenodd"/><path stroke="#000000" stroke-width="8.0" stroke-linejoin="round" stroke-linecap="butt" d="m560.3228 424.05774l151.18115 0l0 151.18109l-151.18115 0z" fill-rule="evenodd"/><path fill="#ffffff" d="m0 144.76115l151.1811 0l0 151.1811l-151.1811 0z" fill-rule="evenodd"/><path stroke="#000000" stroke-width="8.0" stroke-linejoin="round" stroke-linecap="butt" d="m0 144.76115l151.1811 0l0 151.1811l-151.1811 0z" fill-rule="evenodd"/><path fill="#ffffff" d="m795.17584 144.76115l151.18109 0l0 151.1811l-151.18109 0z" fill-rule="evenodd"/><path stroke="#000000" stroke-width="8.0" stroke-linejoin="round" stroke-linecap="butt" d="m795.17584 144.76115l151.18109 0l0 151.1811l-151.18109 0z" fill-rule="evenodd"/><path fill="#000000" fill-opacity="0.0" d="m75.59055 295.94226c0 70.59842 93.79528 141.19684 187.59055 141.19684" fill-rule="evenodd"/><path stroke="#000000" stroke-width="4.0" stroke-linejoin="round" stroke-linecap="butt" d="m79.02637 319.69504l0.038757324 0.13702393c0.078308105 0.2722168 0.15788269 0.54434204 0.23872375 0.8163452c0.16168213 0.54397583 0.32842255 1.0874329 0.5001602 1.6303711c2.7479095 8.68692 6.7781754 17.235931 11.907608 25.509186c10.258858 16.546509 24.914368 31.98993 42.500984 45.227142c35.173233 26.474396 82.07086 44.123993 128.96849 44.123993" fill-rule="evenodd"/><path fill="#000000" stroke="#000000" stroke-width="4.0" stroke-linecap="butt" d="m85.56525 318.7492l-9.137558 -17.019562l-3.9401932 18.911255z" fill-rule="evenodd"/><path fill="#000000" fill-opacity="0.0" d="m711.4908 439.5013c79.63782 0 159.27563 -71.77954 159.27563 -143.55905" fill-rule="evenodd"/><path stroke="#000000" stroke-width="4.0" stroke-linejoin="round" stroke-linecap="butt" d="m735.39886 437.4024l0.27313232 -0.047088623c0.6158447 -0.1081543 1.2310791 -0.22018433 1.8458252 -0.33615112c1.2293701 -0.2319336 2.456726 -0.47946167 3.6816406 -0.7423401c9.799133 -2.1029053 19.442749 -5.1871643 28.77533 -9.11261c18.665161 -7.850891 36.085876 -19.066437 51.018005 -32.525116c29.864136 -26.917328 49.77362 -62.807068 49.77362 -98.69684" fill-rule="evenodd"/><path fill="#000000" stroke="#000000" stroke-width="4.0" stroke-linecap="butt" d="m734.82104 430.82077l-17.505005 8.169128l18.660645 4.99411z" fill-rule="evenodd"/></g></svg>