<svg version="1.1" viewBox="0.0 0.0 960.0 720.0" fill="none" stroke="none" stroke-linecap="square" stroke-miterlimit="10" xmlns:xlink="http://www.w3.org/1999/xlink" xmlns="http://www.w3.org/2000/svg"><clipPath id="p.0"><path d="m0 0l960.0 0l0 720.0l-960.0 0l0 -720.0z" clip-rule="nonzero"/></clipPath><g clip-path="url(#p.0)"><path fill="#000000" fill-opacity="0.0" d="m0 0l960.0 0l0 720.0l-960.0 0z" fill-rule="evenodd"/><path fill="#ffffff" d="m419.52756 71.52231l0 0c0 -33.4154 27.074432 -60.503937 60.472443 -60.503937l0 0c16.0383 0 31.419678 6.374503 42.760498 17.721191c11.340759 11.346689 17.711914 26.736101 17.711914 42.782745l0 0c0 33.415405 -27.074402 60.503937 -60.472412 60.503937l0 0c-33.39801 0 -60.472443 -27.088531 -60.472443 -60.503937z" fill-rule="evenodd"/><path stroke="#000000" stroke-width="8.0" stroke-linejoin="round" stroke-linecap="butt" d="m419.52756 71.52231l0 0c0 -33.4154 27.074432 -60.503937 60.472443 -60.503937l0 0c16.0383 0 31.419678 6.374503 42.760498 17.721191c11.340759 11.346689 17.711914 26.736101 17.711914 42.782745l0 0c0 33.415405 -27.074402 60.503937 -60.472412 60.503937l0 0c-33.39801 0 -60.472443 -27.088531 -60.472443 -60.503937z" fill-rule="evenodd"/><path fill="#ffffff" d="m166.28346 299.49606l0 0c0 -33.415405 27.074432 -60.503937 60.472443 -60.503937l0 0c16.038284 0 31.419693 6.3744965 42.760483 17.721191c11.340759 11.34668 17.711945 26.736115 17.711945 42.782745l0 0c0 33.415405 -27.074432 60.503937 -60.472427 60.503937l0 0c-33.39801 0 -60.472443 -27.088531 -60.472443 -60.503937z" fill-rule="evenodd"/><path stroke="#000000" stroke-width="8.0" stroke-linejoin="round" stroke-linecap="butt" d="m166.28346 299.49606l0 0c0 -33.415405 27.074432 -60.503937 60.472443 -60.503937l0 0c16.038284 0 31.419693 6.3744965 42.760483 17.721191c11.340759 11.34668 17.711945 26.736115 17.711945 42.782745l0 0c0 33.415405 -27.074432 60.503937 -60.472427 60.503937l0 0c-33.39801 0 -60.472443 -27.088531 -60.472443 -60.503937z" fill-rule="evenodd"/><path fill="#ffffff" d="m687.49603 317.22308l0 0c0 -33.415375 27.074463 -60.503937 60.472473 -60.503937l0 0c16.038269 0 31.419678 6.3745117 42.760498 17.721191c11.340759 11.34671 17.711914 26.736115 17.711914 42.782745l0 0c0 33.415405 -27.074402 60.503937 -60.472412 60.503937l0 0c-33.39801 0 -60.472473 -27.088531 -60.472473 -60.503937z" fill-rule="evenodd"/><path stroke="#000000" stroke-width="8.0" stroke-linejoin="round" stroke-linecap="butt" d="m687.49603 317.22308l0 0c0 -33.415375 27.074463 -60.503937 60.472473 -60.503937l0 0c16.038269 0 31.419678 6.3745117 42.760498 17.721191c11.340759 11.34671 17.711914 26.736115 17.711914 42.782745l0 0c0 33.415405 -27.074402 60.503937 -60.472412 60.503937l0 0c-33.39801 0 -60.472473 -27.088531 -60.472473 -60.503937z" fill-rule="evenodd"/><path fill="#ffffff" d="m0 546.2861l0 0c0 -33.415405 27.074434 -60.503906 60.472443 -60.503906l0 0c16.038284 0 31.419685 6.374481 42.760475 17.721191c11.340782 11.34668 17.711967 26.736084 17.711967 42.782715l0 0c0 33.415405 -27.07444 60.503967 -60.472443 60.503967l0 0c-33.39801 0 -60.472443 -27.088562 -60.472443 -60.503967z" fill-rule="evenodd"/><path stroke="#000000" stroke-width="8.0" stroke-linejoin="round" stroke-linecap="butt" d="m0 546.2861l0 0c0 -33.415405 27.074434 -60.503906 60.472443 -60.503906l0 0c16.038284 0 31.419685 6.374481 42.760475 17.721191c11.340782 11.34668 17.711967 26.736084 17.711967 42.782715l0 0c0 33.415405 -27.07444 60.503967 -60.472443 60.503967l0 0c-33.39801 0 -60.472443 -27.088562 -60.472443 -60.503967z" fill-rule="evenodd"/><path fill="#ffffff" d="m298.58267 546.2861l0 0c0 -33.415405 27.074432 -60.503906 60.472443 -60.503906l0 0c16.0383 0 31.419708 6.374481 42.760468 17.721191c11.34079 11.34668 17.711975 26.736084 17.711975 42.782715l0 0c0 33.415405 -27.074432 60.503967 -60.472443 60.503967l0 0c-33.39801 0 -60.472443 -27.088562 -60.472443 -60.503967z" fill-rule="evenodd"/><path stroke="#000000" stroke-width="8.0" stroke-linejoin="round" stroke-linecap="butt" d="m298.58267 546.2861l0 0c0 -33.415405 27.074432 -60.503906 60.472443 -60.503906l0 0c16.0383 0 31.419708 6.374481 42.760468 17.721191c11.34079 11.34668 17.711975 26.736084 17.711975 42.782715l0 0c0 33.415405 -27.074432 60.503967 -60.472443 60.503967l0 0c-33.39801 0 -60.472443 -27.088562 -60.472443 -60.503967z" fill-rule="evenodd"/><path fill="#ffffff" d="m540.4724 546.2861l0 0c0 -33.415405 27.074463 -60.503906 60.472473 -60.503906l0 0c16.038269 0 31.419678 6.374481 42.760498 17.721191c11.340759 11.34668 17.711914 26.736084 17.711914 42.782715l0 0c0 33.415405 -27.074402 60.503967 -60.472412 60.503967l0 0c-33.39801 0 -60.472473 -27.088562 -60.472473 -60.503967z" fill-rule="evenodd"/><path stroke="#000000" stroke-width="8.0" stroke-linejoin="round" stroke-linecap="butt" d="m540.4724 546.2861l0 0c0 -33.415405 27.074463 -60.503906 60.472473 -60.503906l0 0c16.038269 0 31.419678 6.374481 42.760498 17.721191c11.340759 11.34668 17.711914 26.736084 17.711914 42.782715l0 0c0 33.415405 -27.074402 60.503967 -60.472412 60.503967l0 0c-33.39801 0 -60.472473 -27.088562 -60.472473 -60.503967z" fill-rule="evenodd"/><path fill="#ffffff" d="m839.0551 546.2861l0 0c0 -33.415405 27.074463 -60.503906 60.472473 -60.503906l0 0c16.038269 0 31.419678 6.374481 42.760437 17.721191c11.340759 11.34668 17.711975 26.736084 17.711975 42.782715l0 0c0 33.415405 -27.074463 60.503967 -60.472412 60.503967l0 0c-33.39801 0 -60.472473 -27.088562 -60.472473 -60.503967z" fill-rule="evenodd"/><path stroke="#000000" stroke-width="8.0" stroke-linejoin="round" stroke-linecap="butt" d="m839.0551 546.2861l0 0c0 -33.415405 27.074463 -60.503906 60.472473 -60.503906l0 0c16.038269 0 31.419678 6.374481 42.760437 17.721191c11.340759 11.34668 17.711975 26.736084 17.711975 42.782715l0 0c0 33.415405 -27.074463 60.503967 -60.472412 60.503967l0 0c-33.39801 0 -60.472473 -27.088562 -60.472473 -60.503967z" fill-rule="evenodd"/><path fill="#000000" fill-opacity="0.0" d="m437.23953 114.30505l-167.71655 142.3937" fill-rule="evenodd"/><path stroke="#000000" stroke-width="8.0" stroke-linejoin="round" stroke-linecap="butt" d="m437.23953 114.30505l-131.12567 111.32753" fill-rule="evenodd"/><path fill="#000000" stroke="#000000" stroke-width="8.0" stroke-linecap="butt" d="m297.5617 215.55952l-19.123352 33.569946l36.22769 -13.423828z" fill-rule="evenodd"/><path fill="#000000" fill-opacity="0.0" d="m522.7605 114.30505l182.45667 160.12598" fill-rule="evenodd"/><path stroke="#000000" stroke-width="8.0" stroke-linejoin="round" stroke-linecap="butt" d="m522.76044 114.30505l146.37976 128.46446" fill-rule="evenodd"/><path fill="#000000" stroke="#000000" stroke-width="8.0" stroke-linecap="butt" d="m660.4242 252.7011l36.002808 14.01561l-18.57074 -33.878784z" fill-rule="evenodd"/><path fill="#000000" fill-opacity="0.0" d="m183.99544 342.2788l-123.527565 143.49606" fill-rule="evenodd"/><path stroke="#000000" stroke-width="8.0" stroke-linejoin="round" stroke-linecap="butt" d="m183.99542 342.2788l-92.212036 107.11835" fill-rule="evenodd"/><path fill="#000000" stroke="#000000" stroke-width="8.0" stroke-linecap="butt" d="m81.769005 440.7763l-13.671097 36.1351l33.699852 -18.893463z" fill-rule="evenodd"/><path fill="#000000" fill-opacity="0.0" d="m269.5164 342.2788l89.543304 143.49606" fill-rule="evenodd"/><path stroke="#000000" stroke-width="8.0" stroke-linejoin="round" stroke-linecap="butt" d="m269.5164 342.2788l64.13226 102.77405" fill-rule="evenodd"/><path fill="#000000" stroke="#000000" stroke-width="8.0" stroke-linecap="butt" d="m322.43835 452.04825l30.429901 23.804688l-8.009308 -37.79544z" fill-rule="evenodd"/><path fill="#000000" fill-opacity="0.0" d="m705.208 360.00583l-104.25195 125.763794" fill-rule="evenodd"/><path stroke="#000000" stroke-width="8.0" stroke-linejoin="round" stroke-linecap="butt" d="m705.208 360.00583l-73.618774 88.80963" fill-rule="evenodd"/><path fill="#000000" stroke="#000000" stroke-width="8.0" stroke-linecap="butt" d="m621.4162 440.38248l-12.996338 36.38324l33.342407 -19.517303z" fill-rule="evenodd"/><path fill="#000000" fill-opacity="0.0" d="m790.729 360.00583l108.78735 125.763794" fill-rule="evenodd"/><path stroke="#000000" stroke-width="8.0" stroke-linejoin="round" stroke-linecap="butt" d="m790.729 360.00583l77.38501 89.46103" fill-rule="evenodd"/><path fill="#000000" stroke="#000000" stroke-width="8.0" stroke-linecap="butt" d="m858.1203 458.11157l33.744873 18.812836l-13.757385 -36.102295z" fill-rule="evenodd"/></g></svg>