<svg version="1.1" viewBox="0.0 0.0 961.4645669291339 273.65879265091866" fill="none" stroke="none" stroke-linecap="square" stroke-miterlimit="10" xmlns:xlink="http://www.w3.org/1999/xlink" xmlns="http://www.w3.org/2000/svg"><clipPath id="p.0"><path d="m0 0l961.46454 0l0 273.65878l-961.46454 0l0 -273.65878z" clip-rule="nonzero"/></clipPath><g clip-path="url(#p.0)"><path fill="#000000" fill-opacity="0.0" d="m0 0l961.46454 0l0 273.65878l-961.46454 0z" fill-rule="evenodd"/><path fill="#ffffff" d="m72.53543 61.238846l151.1811 0l0 151.1811l-151.1811 0z" fill-rule="evenodd"/><path stroke="#000000" stroke-width="8.0" stroke-linejoin="round" stroke-linecap="butt" d="m72.53543 61.238846l151.1811 0l0 151.1811l-151.1811 0z" fill-rule="evenodd"/><path fill="#b7b7b7" d="m223.71654 61.238846l29.354324 0l0 151.1811l-29.354324 0z" fill-rule="evenodd"/><path stroke="#000000" stroke-width="8.0" stroke-linejoin="round" stroke-linecap="butt" d="m223.71654 61.238846l29.354324 0l0 151.1811l-29.354324 0z" fill-rule="evenodd"/><path fill="#ffffff" d="m390.46457 61.238846l151.18112 0l0 151.1811l-151.18112 0z" fill-rule="evenodd"/><path stroke="#000000" stroke-width="8.0" stroke-linejoin="round" stroke-linecap="butt" d="m390.46457 61.238846l151.18112 0l0 151.1811l-151.18112 0z" fill-rule="evenodd"/><path fill="#b7b7b7" d="m541.6457 61.238846l29.35431 0l0 151.1811l-29.35431 0z" fill-rule="evenodd"/><path stroke="#000000" stroke-width="8.0" stroke-linejoin="round" stroke-linecap="butt" d="m541.6457 61.238846l29.35431 0l0 151.1811l-29.35431 0z" fill-rule="evenodd"/><path fill="#ffffff" d="m708.3937 61.238846l151.18115 0l0 151.1811l-151.18115 0z" fill-rule="evenodd"/><path stroke="#000000" stroke-width="8.0" stroke-linejoin="round" stroke-linecap="butt" d="m708.3937 61.238846l151.18115 0l0 151.1811l-151.18115 0z" fill-rule="evenodd"/><path fill="#b7b7b7" d="m859.5748 61.238846l29.35431 0l0 151.1811l-29.35431 0z" fill-rule="evenodd"/><path stroke="#000000" stroke-width="8.0" stroke-linejoin="round" stroke-linecap="butt" d="m859.5748 61.238846l29.35431 0l0 151.1811l-29.35431 0z" fill-rule="evenodd"/><path fill="#000000" fill-opacity="0.0" d="m253.07086 136.82939c32.521973 0 47.870728 0.01574707 65.043945 0.03149414c17.173248 0.01576233 36.17096 0.0315094 72.34189 0.0315094" fill-rule="evenodd"/><path stroke="#000000" stroke-width="4.0" stroke-linejoin="round" stroke-linecap="butt" d="m253.07086 136.82939c32.521973 0 47.870728 0.01574707 65.043945 0.03149414c8.586609 0.007873535 17.629364 0.01576233 29.046814 0.02166748c5.7087097 0.0029449463 12.011108 0.0054016113 19.147034 0.0071258545l0.14804077 3.0517578E-5" fill-rule="evenodd"/><path fill="#000000" stroke="#000000" stroke-width="4.0" stroke-linecap="butt" d="m366.45596 143.49663l18.153107 -6.604889l-18.151642 -6.608963z" fill-rule="evenodd"/><path fill="#000000" fill-opacity="0.0" d="m571.0 136.82939c34.34851 0 51.523804 0.01574707 68.69702 0.03149414c17.173218 0.01576233 34.34442 0.0315094 68.68878 0.0315094" fill-rule="evenodd"/><path stroke="#000000" stroke-width="4.0" stroke-linejoin="round" stroke-linecap="butt" d="m571.0 136.82939c34.34851 0 51.523804 0.01574707 68.69708 0.03149414c8.586609 0.007873535 17.172668 0.01576233 27.905151 0.02166748l16.78357 0.006652832" fill-rule="evenodd"/><path fill="#000000" stroke="#000000" stroke-width="4.0" stroke-linecap="butt" d="m684.38495 143.49614l18.15326 -6.6045227l-18.15149 -6.6093445z" fill-rule="evenodd"/></g></svg>