<?xml version="1.0" encoding="utf-8"?>
<!-- Svg Vector Icons : http://www.onlinewebfonts.com/icon -->
<!DOCTYPE svg PUBLIC "-//W3C//DTD SVG 1.1//EN" "http://www.w3.org/Graphics/SVG/1.1/DTD/svg11.dtd">
<svg version="1.1" xmlns="http://www.w3.org/2000/svg" xmlns:xlink="http://www.w3.org/1999/xlink" x="0px" y="0px" viewBox="0 0 1000 1000" enable-background="new 0 0 1000 1000" xml:space="preserve">
<metadata> Svg Vector Icons : http://www.onlinewebfonts.com/icon </metadata>
<g><path d="M871.6,15.3H338.4c-71.3,0-129.3,58-129.3,129.3v549.4h-48.5c-80.2,0-145.4,65.3-145.4,145.4c0,80.1,65.2,145.4,145.4,145.4h484.8c80.2,0,145.4-65.3,145.4-145.4V144.5h177.8c8.9,0,16.2-7.3,16.2-16.1C984.8,66,934,15.3,871.6,15.3z M160.7,952.4c-62.4,0-113.1-50.7-113.1-113.1s50.7-113.1,113.1-113.1h393.4c-33,26.7-54.1,67.5-54.1,113.1c0,45.6,21.1,86.4,54.1,113.1H160.7z M758.5,128.4v710.9c0,62.4-50.8,113.1-113.1,113.1c-62.4,0-113.1-50.7-113.1-113.1S583,726.2,645.4,726.2c8.9,0,16.1-7.3,16.1-16.1c0-8.9-7.3-16.2-16.1-16.2h-404V144.5c0-53.4,43.5-96.9,96.9-96.9h454.3C771.7,68.2,758.5,96.7,758.5,128.4z M792.5,112.2c7.5-36.9,40.2-64.6,79.2-64.6c39,0,71.7,27.8,79.2,64.6H792.5z"/><path d="M645.4,990H160.7C77.6,990,10,922.4,10,839.3s67.6-150.7,150.7-150.7h43.2V144.5C203.9,70.3,264.2,10,338.4,10h533.2C936.9,10,990,63.1,990,128.4c0,11.8-9.6,21.4-21.4,21.4H796.1v689.5C796.1,922.4,728.5,990,645.4,990z M160.7,699.1c-77.3,0-140.1,62.9-140.1,140.2c0,77.3,62.9,140.2,140.1,140.2h484.8c77.3,0,140.1-62.9,140.1-140.2V139.2h183c6,0,10.9-4.9,10.9-10.9c0-59.5-48.4-107.9-107.8-107.9H338.4c-68.4,0-124,55.6-124,124v554.6H160.7z M645.4,957.7c-65.3,0-118.4-53.1-118.4-118.3c0-65.3,53.1-118.4,118.4-118.4c6,0,10.9-4.9,10.9-10.9s-4.9-10.9-10.9-10.9H236.2V144.5c0-56.4,45.8-102.2,102.2-102.2h467.2l-9.2,9c-21,20.6-32.6,48-32.6,77.1v710.9C763.8,904.6,710.7,957.7,645.4,957.7z M246.7,688.6h398.7c11.8,0,21.4,9.6,21.4,21.5c0,11.8-9.6,21.4-21.4,21.4c-59.5,0-107.8,48.4-107.8,107.8c0,59.4,48.4,107.8,107.8,107.8c59.5,0,107.8-48.4,107.8-107.8V128.4c0-27.8,9.7-54.3,27.4-75.6H338.4c-50.5,0-91.7,41.1-91.7,91.7L246.7,688.6L246.7,688.6z M569,957.7H160.7c-65.3,0-118.4-53.1-118.4-118.3c0-65.3,53.1-118.4,118.4-118.4H569l-11.6,9.4c-33.2,26.8-52.2,66.5-52.2,109s19,82.2,52.2,109L569,957.7z M160.7,731.5c-59.5,0-107.8,48.4-107.8,107.8c0,59.4,48.4,107.8,107.8,107.8h379.6c-29.1-28.3-45.5-66.9-45.5-107.8c0-41,16.4-79.5,45.5-107.8H160.7z M957.3,117.5H786l1.3-6.3c8.1-39.9,43.6-68.9,84.4-68.9c40.7,0,76.2,29,84.3,68.9L957.3,117.5z M799.2,106.9h144.9c-9.4-31.7-38.9-54.1-72.5-54.1S808.6,75.2,799.2,106.9z"/><path d="M629.3,564.6H354.6c-8.9,0-16.2,7.3-16.2,16.2c0,8.9,7.3,16.1,16.2,16.1h274.7c8.9,0,16.1-7.3,16.1-16.1C645.4,571.9,638.2,564.6,629.3,564.6z"/><path d="M629.3,602.2H354.6c-11.8,0-21.5-9.6-21.5-21.4c0-11.8,9.6-21.5,21.5-21.5h274.7c11.8,0,21.4,9.6,21.4,21.5C650.7,592.6,641.1,602.2,629.3,602.2z M354.6,569.9c-6,0-10.9,4.9-10.9,10.9c0,6,4.9,10.9,10.9,10.9h274.7c6,0,10.9-4.9,10.9-10.9c0-6-4.9-10.9-10.9-10.9H354.6z"/><path d="M629.3,435.4H354.6c-8.9,0-16.2,7.3-16.2,16.1c0,8.9,7.3,16.2,16.2,16.2h274.7c8.9,0,16.1-7.3,16.1-16.2C645.4,442.6,638.2,435.4,629.3,435.4z"/><path d="M629.3,472.9H354.6c-11.8,0-21.5-9.6-21.5-21.5c0-11.8,9.6-21.4,21.5-21.4h274.7c11.8,0,21.4,9.6,21.4,21.4C650.7,463.3,641.1,472.9,629.3,472.9z M354.6,440.7c-6,0-10.9,4.9-10.9,10.9c0,6,4.9,10.9,10.9,10.9h274.7c6,0,10.9-4.9,10.9-10.9c0-6-4.9-10.9-10.9-10.9H354.6z"/><path d="M629.3,306.1H354.6c-8.9,0-16.2,7.3-16.2,16.1c0,8.9,7.3,16.2,16.2,16.2h274.7c8.9,0,16.1-7.3,16.1-16.2C645.4,313.4,638.2,306.1,629.3,306.1z"/><path d="M629.3,343.7H354.6c-11.8,0-21.5-9.6-21.5-21.5c0-11.8,9.6-21.4,21.5-21.4h274.7c11.8,0,21.4,9.6,21.4,21.4C650.7,334.1,641.1,343.7,629.3,343.7z M354.6,311.4c-6,0-10.9,4.9-10.9,10.9c0,6,4.9,10.9,10.9,10.9h274.7c6,0,10.9-4.9,10.9-10.9c0-6-4.9-10.9-10.9-10.9H354.6z"/><path d="M629.3,176.8H354.6c-8.9,0-16.2,7.3-16.2,16.2s7.3,16.2,16.2,16.2h274.7c8.9,0,16.1-7.3,16.1-16.2S638.2,176.8,629.3,176.8z"/><path d="M629.3,214.4H354.6c-11.8,0-21.5-9.6-21.5-21.5s9.6-21.5,21.5-21.5h274.7c11.8,0,21.4,9.6,21.4,21.5S641.1,214.4,629.3,214.4z M354.6,182.1c-6,0-10.9,4.9-10.9,10.9c0,6,4.9,10.9,10.9,10.9h274.7c6,0,10.9-4.9,10.9-10.9c0-6-4.9-10.9-10.9-10.9H354.6z"/></g>
</svg>