<?xml version="1.0" encoding="utf-8"?><svg version="1.1" id="Layer_1" xmlns="http://www.w3.org/2000/svg" xmlns:xlink="http://www.w3.org/1999/xlink" x="0px" y="0px" viewBox="0 0 120.91 122.88" style="enable-background:new 0 0 120.91 122.88" xml:space="preserve"><g><path d="M25.6,60.06c-0.66,1.38-2.32,1.96-3.7,1.3c-1.38-0.66-1.96-2.31-1.3-3.7c1.46-3.06,3.26-5.93,5.34-8.57 c2.1-2.66,4.48-5.07,7.09-7.19c1.19-0.97,2.94-0.79,3.9,0.4c0.97,1.19,0.79,2.94-0.4,3.9c-2.31,1.88-4.41,4-6.24,6.32 C28.46,54.85,26.89,57.37,25.6,60.06L25.6,60.06z M94.75,93.27l3.22,9.48l1.62-5.63l-0.79-0.87c-0.36-0.52-0.44-0.98-0.24-1.37 c0.43-0.85,1.32-0.69,2.15-0.69c0.87,0,1.95-0.16,2.22,0.93c0.09,0.36-0.02,0.75-0.28,1.14l-0.79,0.87l1.62,5.63l2.92-9.48 c2.11,1.9,8.34,2.28,10.66,3.57c0.73,0.41,1.4,0.93,1.93,1.63c0.81,1.07,1.3,2.46,1.44,4.23l0.48,5.15 c-0.12,1.25-0.83,1.97-2.23,2.08h-17.96H82.46c-1.4-0.11-2.11-0.83-2.23-2.08l0.48-5.15c0.14-1.77,0.63-3.16,1.44-4.23 c0.53-0.7,1.2-1.22,1.93-1.63C86.41,95.55,92.64,95.17,94.75,93.27L94.75,93.27z M14.51,93.27l3.22,9.48l1.62-5.63l-0.79-0.87 c-0.36-0.52-0.44-0.98-0.24-1.37c0.43-0.85,1.32-0.69,2.15-0.69c0.87,0,1.95-0.16,2.22,0.93c0.09,0.36-0.02,0.75-0.28,1.14 l-0.79,0.87l1.62,5.63l2.92-9.48c2.11,1.9,8.34,2.28,10.66,3.57c0.73,0.41,1.4,0.93,1.93,1.63c0.81,1.07,1.3,2.46,1.44,4.23 l0.48,5.15c-0.12,1.25-0.83,1.97-2.23,2.08H20.49H2.23c-1.4-0.11-2.11-0.83-2.23-2.08l0.48-5.15c0.14-1.77,0.63-3.16,1.44-4.23 c0.53-0.7,1.2-1.22,1.93-1.63C6.17,95.55,12.41,95.17,14.51,93.27L14.51,93.27z M12.98,79.72c0.25,0.07,0.5,0.07,0.76,0.02 l-0.46-3.64c0.24-0.9,0.6-1.6,1.07-2.11c0.5-0.54,1.12-0.87,1.87-1.01c0.99-0.07,1.29,0.65,2.27,1.28c3,1.92,5.54,2.57,9.25,2.61 l-0.46,2.31c-0.07,0.1-0.1,0.22-0.09,0.35c0,0.02,0.01,0.05,0.01,0.07l-0.06,0.32c0.1,0.01,0.2,0.01,0.29,0.01 c0.09,0.06,0.21,0.09,0.33,0.08c0.64-0.06,1.04,0,1.14,0.22c0.15,0.29,0.02,0.89-0.4,1.85l-2.03,3.34 c-0.75,1.24-1.52,2.49-2.49,3.4c-0.93,0.87-2.08,1.45-3.65,1.45c-1.45,0-2.54-0.56-3.45-1.39c-0.94-0.86-1.7-2.03-2.42-3.18 l-1.8-2.87h0l-0.01-0.01c-0.55-0.82-0.84-1.54-0.86-2.08c-0.01-0.18,0.02-0.34,0.08-0.48c0.05-0.12,0.14-0.22,0.26-0.29 C12.34,79.82,12.62,79.74,12.98,79.72L12.98,79.72z M28.99,79.04l0.11-4.66c-0.14-1.9-0.76-3.33-1.76-4.42 c-2.46-2.66-7.04-3.34-10.51-2.09c-0.58,0.21-1.14,0.48-1.64,0.8c-1.43,0.91-2.58,2.23-3.04,3.88c-0.11,0.39-0.18,0.78-0.22,1.17 c-0.08,1.63-0.03,3.59,0.08,5.14c-0.16,0.06-0.31,0.14-0.44,0.23c-0.28,0.19-0.49,0.43-0.62,0.73c-0.13,0.28-0.19,0.59-0.18,0.94 c0.02,0.74,0.36,1.64,1.03,2.63l1.8,2.86c0.76,1.21,1.56,2.44,2.6,3.39c1.08,0.99,2.4,1.66,4.15,1.66c1.88,0,3.25-0.69,4.36-1.73 c1.07-1,1.88-2.31,2.67-3.62l2.05-3.38c0.01-0.02,0.02-0.04,0.03-0.06l0,0c0.56-1.28,0.68-2.16,0.39-2.75 C29.67,79.4,29.39,79.17,28.99,79.04L28.99,79.04z M54.37,12.45c0.25,0.07,0.5,0.07,0.76,0.02l-0.46-3.64 c0.23-0.9,0.59-1.6,1.07-2.11c0.5-0.54,1.12-0.87,1.87-1.01c0.99-0.07,1.29,0.65,2.27,1.28c3,1.92,5.54,2.57,9.25,2.61l-0.46,2.31 c-0.07,0.1-0.1,0.22-0.09,0.35c0,0.02,0.01,0.05,0.01,0.07l-0.06,0.32c0.1,0.01,0.2,0.01,0.29,0.01c0.09,0.06,0.21,0.09,0.33,0.08 c0.64-0.06,1.04,0,1.14,0.21c0.15,0.29,0.02,0.89-0.4,1.85l-2.03,3.34c-0.75,1.24-1.52,2.49-2.49,3.4 c-0.93,0.87-2.08,1.45-3.65,1.45c-1.45,0-2.54-0.56-3.45-1.39c-0.94-0.86-1.7-2.03-2.42-3.18l-1.8-2.87h0l-0.01-0.01 c-0.55-0.82-0.84-1.54-0.86-2.08c-0.01-0.18,0.02-0.34,0.08-0.48c0.05-0.12,0.14-0.22,0.26-0.29 C53.73,12.55,54.01,12.47,54.37,12.45L54.37,12.45z M55.9,26l3.22,9.48l1.62-5.63l-0.79-0.87c-0.36-0.52-0.44-0.98-0.24-1.37 c0.43-0.85,1.32-0.69,2.15-0.69c0.87,0,1.95-0.16,2.22,0.93c0.09,0.36-0.02,0.75-0.28,1.14l-0.79,0.87l1.62,5.63L67.56,26 c2.11,1.9,8.34,2.28,10.66,3.57c0.73,0.41,1.4,0.93,1.93,1.63c0.81,1.07,1.3,2.46,1.44,4.23l0.48,5.15 c-0.12,1.25-0.83,1.97-2.23,2.08H61.88H43.62c-1.4-0.11-2.11-0.83-2.23-2.08l0.48-5.15c0.14-1.77,0.63-3.16,1.44-4.23 c0.53-0.7,1.2-1.22,1.93-1.63C47.56,28.28,53.8,27.9,55.9,26L55.9,26z M70.38,11.78l0.11-4.66c-0.14-1.9-0.76-3.33-1.76-4.42 c-2.46-2.66-7.04-3.34-10.51-2.09c-0.58,0.21-1.13,0.48-1.64,0.8C55.16,2.31,54,3.64,53.54,5.28c-0.11,0.39-0.18,0.78-0.22,1.17 c-0.08,1.63-0.03,3.59,0.08,5.14c-0.16,0.06-0.31,0.14-0.44,0.23c-0.28,0.19-0.49,0.43-0.62,0.73c-0.13,0.28-0.19,0.59-0.18,0.94 c0.02,0.74,0.36,1.64,1.03,2.63l1.8,2.86c0.76,1.21,1.56,2.44,2.6,3.39c1.08,0.99,2.4,1.66,4.15,1.66c1.88,0,3.25-0.69,4.36-1.73 c1.07-1.01,1.88-2.31,2.67-3.62l2.05-3.38c0.01-0.02,0.02-0.04,0.03-0.06l0,0c0.56-1.28,0.68-2.16,0.39-2.75 C71.06,12.13,70.78,11.9,70.38,11.78L70.38,11.78z M93.21,79.72c-0.36,0.02-0.63,0.1-0.83,0.23c-0.12,0.08-0.2,0.18-0.26,0.29 c-0.06,0.13-0.09,0.29-0.08,0.48c0.02,0.55,0.3,1.26,0.86,2.08l0.01,0.01l0,0l1.8,2.87c0.72,1.15,1.48,2.32,2.42,3.18 c0.9,0.83,2,1.38,3.45,1.39c1.57,0,2.72-0.58,3.65-1.45c0.97-0.91,1.74-2.15,2.49-3.4l2.03-3.34c0.42-0.96,0.55-1.56,0.4-1.85 c-0.11-0.22-0.5-0.27-1.14-0.22c-0.12,0.01-0.23-0.02-0.33-0.08c-0.1,0-0.2,0-0.29-0.01l0.06-0.32c-0.01-0.02-0.01-0.04-0.01-0.07 c-0.01-0.13,0.02-0.25,0.09-0.35l0.46-2.31c-3.71-0.05-6.25-0.69-9.25-2.61c-0.99-0.63-1.28-1.35-2.27-1.28 c-0.75,0.14-1.37,0.48-1.87,1.01c-0.48,0.51-0.84,1.21-1.07,2.11l0.46,3.64C93.71,79.79,93.46,79.78,93.21,79.72L93.21,79.72z M109.22,79.04c0.4,0.12,0.68,0.35,0.86,0.71c0.29,0.59,0.17,1.48-0.39,2.75l0,0c-0.01,0.02-0.02,0.04-0.03,0.06l-2.05,3.38 c-0.79,1.3-1.6,2.61-2.67,3.62c-1.11,1.04-2.48,1.74-4.36,1.73c-1.75,0-3.07-0.67-4.15-1.66c-1.04-0.95-1.84-2.19-2.6-3.39 l-1.8-2.86c-0.66-0.99-1-1.89-1.03-2.63c-0.01-0.35,0.05-0.67,0.18-0.94c0.14-0.29,0.34-0.54,0.62-0.73 c0.13-0.09,0.28-0.16,0.44-0.23c-0.12-1.55-0.16-3.5-0.08-5.14c0.04-0.39,0.11-0.78,0.22-1.17c0.46-1.64,1.62-2.97,3.04-3.88 c0.5-0.32,1.06-0.59,1.64-0.8c3.46-1.25,8.05-0.57,10.51,2.09c1,1.08,1.63,2.52,1.76,4.42L109.22,79.04L109.22,79.04z M87.5,46.68 c-1.17-0.98-1.32-2.73-0.34-3.9c0.98-1.17,2.73-1.32,3.9-0.34c0.56,0.47,1,0.85,1.33,1.15c0.4,0.36,0.82,0.77,1.28,1.21 c1.68,1.66,3.23,3.42,4.61,5.28c1.38,1.86,2.64,3.84,3.75,5.93c0.71,1.36,0.19,3.04-1.16,3.75c-1.36,0.71-3.04,0.19-3.75-1.16 c-0.95-1.8-2.05-3.54-3.29-5.19c-1.25-1.67-2.6-3.23-4.05-4.65c-0.33-0.33-0.71-0.68-1.12-1.06C88.17,47.26,87.78,46.92,87.5,46.68 L87.5,46.68z M74.51,115.24c1.45-0.49,3.02,0.3,3.51,1.75c0.49,1.45-0.3,3.02-1.75,3.51c-2.31,0.78-4.7,1.38-7.16,1.77 c-2.43,0.4-4.9,0.6-7.38,0.6c-2.53,0-5.04-0.21-7.51-0.62c-2.53-0.42-4.97-1.04-7.3-1.84c-1.45-0.5-2.23-2.08-1.73-3.53 c0.5-1.45,2.08-2.23,3.53-1.73c2.08,0.71,4.22,1.26,6.38,1.62c2.13,0.35,4.34,0.54,6.62,0.54c2.24,0,4.41-0.18,6.49-0.52 C70.38,116.45,72.48,115.92,74.51,115.24L74.51,115.24z"/></g></svg>