<?xml version="1.0" standalone="no"?>
<!DOCTYPE svg PUBLIC "-//W3C//DTD SVG 20010904//EN"
 "http://www.w3.org/TR/2001/REC-SVG-20010904/DTD/svg10.dtd">
<svg version="1.0" xmlns="http://www.w3.org/2000/svg"
 width="250.000000pt" height="201.000000pt" viewBox="0 0 250.000000 201.000000"
 preserveAspectRatio="xMidYMid meet">

<g transform="translate(0.000000,201.000000) scale(0.100000,-0.100000)"
fill="#000000" stroke="none">
<path d="M20 1990 c-19 -19 -20 -33 -20 -217 0 -109 5 -205 10 -213 7 -12 40
-16 150 -20 l141 -5 -26 -48 c-24 -46 -24 -48 -5 -42 19 6 20 2 20 -59 l0 -66
-125 0 c-175 0 -165 14 -165 -236 0 -115 4 -203 10 -215 10 -17 22 -19 145
-19 l135 0 0 -146 c0 -142 0 -145 -20 -139 -21 7 -21 6 2 -39 13 -25 25 -46
29 -46 3 0 15 21 27 46 22 45 22 45 2 39 -19 -6 -20 -2 -20 139 l0 146 135 0
c123 0 135 2 145 19 6 12 10 101 10 220 0 246 11 231 -167 231 l-123 0 0 66
c0 61 1 65 21 59 l20 -7 -20 41 c-12 22 -21 45 -21 51 0 6 48 10 135 10 123 0
135 2 145 19 5 11 10 74 10 140 l0 121 606 0 c587 0 606 -1 601 -19 -4 -17 -1
-16 37 5 22 13 44 24 49 24 4 0 7 -36 7 -81 l0 -81 -46 26 c-43 24 -46 25 -41
6 5 -20 0 -20 -238 -20 l-243 0 -31 -26 -30 -25 -3 -157 -3 -157 -129 -3 c-75
-1 -135 -7 -143 -14 -19 -15 -19 -421 0 -436 8 -7 68 -13 143 -14 l129 -3 3
-62 c3 -56 0 -66 -22 -88 l-25 -25 -356 0 -356 0 -24 -25 c-16 -15 -25 -35
-25 -56 0 -26 -3 -31 -20 -26 -25 6 -25 5 0 -35 36 -59 40 -58 -194 -58 -182
0 -217 -2 -230 -16 -14 -13 -16 -47 -16 -215 0 -186 1 -200 20 -219 19 -19 33
-20 278 -20 217 0 261 2 280 16 21 14 22 22 22 140 l0 124 146 0 c141 0 146
-1 141 -20 -5 -18 -2 -18 37 5 24 14 46 25 49 25 4 0 8 -59 9 -132 3 -130 3
-133 28 -145 19 -10 88 -13 283 -11 243 3 260 4 273 22 10 15 14 52 14 143 0
68 3 123 8 123 4 0 22 -9 40 -20 39 -24 43 -25 36 -5 -5 13 11 15 115 15 l120
0 3 -127 c3 -125 4 -128 28 -140 19 -10 88 -13 283 -11 243 3 260 4 273 22 11
16 14 62 14 214 0 114 -4 201 -10 213 -10 17 -22 19 -145 19 l-135 0 0 491 0
490 21 -6 c20 -7 20 -5 -5 37 -14 25 -23 48 -19 51 3 4 66 7 139 7 122 0 134
2 144 19 6 12 10 99 10 213 0 152 -3 198 -14 214 -13 18 -30 19 -273 22 -317
3 -307 6 -311 -96 -2 -39 -6 -72 -10 -72 -4 0 -25 11 -48 24 l-41 23 5 -24 4
-23 -603 2 -604 3 -3 65 c-4 103 5 100 -303 100 -246 0 -260 -1 -279 -20z
m558 -63 l3 -47 -278 2 -278 3 -3 24 c-2 12 -1 34 2 47 l6 24 273 -2 272 -3 3
-48z m1896 37 c3 -9 6 -31 6 -50 l0 -34 -280 0 -280 0 0 43 c0 24 3 47 7 50 3
4 127 7 274 7 234 0 268 -2 273 -16z m-1894 -242 c0 -94 -4 -142 -12 -150 -17
-17 -519 -17 -536 0 -13 13 -18 269 -5 281 3 4 129 7 280 7 l273 0 0 -138z
m1898 8 c1 -69 0 -135 -3 -147 l-5 -23 -269 0 c-236 0 -270 2 -275 16 -3 9 -6
76 -6 150 l0 134 278 -2 277 -3 3 -125z m-658 -76 c0 -3 -5 -14 -10 -24 -9
-17 -5 -16 32 5 24 14 46 25 51 25 4 0 7 -22 7 -48 0 -26 5 -53 12 -60 8 -8
55 -12 145 -12 85 0 133 -4 133 -10 0 -6 -9 -29 -21 -51 l-20 -41 20 7 21 6
-2 -488 -3 -488 -129 -3 c-75 -1 -135 -7 -143 -14 -8 -7 -13 -35 -13 -79 l0
-69 -121 0 c-118 0 -120 0 -114 21 7 20 5 20 -31 -5 -21 -14 -42 -26 -46 -26
-5 0 -8 30 -8 66 0 112 22 104 -298 104 -203 0 -281 -3 -290 -12 -7 -7 -12
-42 -12 -85 0 -40 -3 -73 -7 -73 -5 0 -26 11 -49 24 l-41 23 5 -24 4 -23 -146
0 -146 0 0 66 c0 92 -8 104 -75 104 -30 0 -55 3 -55 7 0 3 12 26 26 51 25 42
25 44 5 37 -17 -5 -21 -2 -21 16 0 13 10 33 22 46 l21 23 355 0 354 0 29 29
c27 27 29 35 29 100 l0 71 135 0 c123 0 135 2 145 19 15 30 13 403 -2 424 -11
14 -35 17 -143 19 l-130 3 -3 149 c-3 155 1 169 43 186 22 10 485 13 485 4z
m-1242 -417 l3 -47 -278 2 -278 3 -3 24 c-2 12 -1 34 2 47 l6 24 273 -2 272
-3 3 -48z m976 37 c3 -9 6 -31 6 -50 l0 -34 -280 0 -280 0 0 43 c0 24 3 47 7
50 3 4 127 7 274 7 234 0 268 -2 273 -16z m-974 -238 c0 -74 -3 -141 -6 -150
-5 -14 -38 -16 -268 -16 -190 0 -265 3 -274 12 -13 13 -18 269 -5 281 3 4 129
7 280 7 l273 0 0 -134z m978 4 c1 -69 0 -135 -3 -148 l-5 -22 -273 2 -272 3
-3 148 -3 147 278 -2 278 -3 3 -125z m-990 -602 c7 -7 12 -29 12 -50 l0 -38
-280 0 -280 0 0 38 c0 21 5 43 12 50 17 17 519 17 536 0z m980 0 c7 -7 12 -29
12 -50 l0 -38 -280 0 -280 0 0 43 c0 24 3 47 7 50 3 4 124 7 268 7 190 0 264
-3 273 -12z m926 -4 c3 -9 6 -31 6 -50 l0 -34 -280 0 -280 0 0 34 c0 70 -16
66 280 66 235 0 269 -2 274 -16z m-916 -234 c1 -69 0 -135 -3 -148 l-5 -22
-273 2 -272 3 -3 134 c-1 74 0 141 2 148 4 11 60 13 278 11 l273 -3 3 -125z
m920 0 c1 -69 0 -135 -3 -148 l-5 -22 -273 2 -272 3 -3 134 c-1 74 0 141 2
148 4 11 60 13 278 11 l273 -3 3 -125z m-1900 -22 l-3 -143 -269 -3 c-209 -2
-271 1 -278 10 -4 7 -8 73 -8 146 l0 132 280 0 281 0 -3 -142z"/>
</g>
</svg>
