<?xml version="1.0" encoding="UTF-8" standalone="no"?>
<!-- Created with Inkscape (http://www.inkscape.org/) -->
<svg
   xmlns:svg="http://www.w3.org/2000/svg"
   xmlns="http://www.w3.org/2000/svg"
   version="1.0"
   width="108"
   height="149"
   id="svg2">
  <defs
     id="defs4">
    <marker
       refX="0"
       refY="0"
       orient="auto"
       style="overflow:visible"
       id="Arrow2Mstart">
      <path
         d="M 8.7185878,4.0337352 L -2.2072895,0.016013256 L 8.7185884,-4.0017078 C 6.97309,-1.6296469 6.9831476,1.6157441 8.7185878,4.0337352 z "
         transform="scale(0.6,0.6)"
         style="font-size:12px;fill-rule:evenodd;stroke-width:0.625;stroke-linejoin:round"
         id="path3330" />
    </marker>
    <marker
       refX="0"
       refY="0"
       orient="auto"
       style="overflow:visible"
       id="Arrow2Mend">
      <path
         d="M 8.7185878,4.0337352 L -2.2072895,0.016013256 L 8.7185884,-4.0017078 C 6.97309,-1.6296469 6.9831476,1.6157441 8.7185878,4.0337352 z "
         transform="scale(-0.6,-0.6)"
         style="font-size:12px;fill-rule:evenodd;stroke-width:0.625;stroke-linejoin:round"
         id="path3333" />
    </marker>
  </defs>
  <g
     transform="translate(-77.428574,-75.005043)"
     id="layer1">
    <path
       d="M 70.201925 17.55048 A 17.192308 17.192308 0 1 1  35.817308,17.55048 A 17.192308 17.192308 0 1 1  70.201925 17.55048 z"
       transform="translate(79.398524,75.363216)"
       style="fill:#ffffff;fill-opacity:1;fill-rule:evenodd;stroke:#000000;stroke-width:1.5;stroke-linecap:round;stroke-linejoin:miter;stroke-miterlimit:4;stroke-dasharray:none;stroke-dashoffset:0;stroke-opacity:1"
       id="path2251" />
    <text
       x="125.82472"
       y="97.197556"
       style="font-size:17.52174759px;font-style:normal;font-weight:normal;fill:#000000;fill-opacity:1;stroke:none;stroke-width:1px;stroke-linecap:butt;stroke-linejoin:miter;stroke-opacity:1;font-family:Arial"
       id="text3223"
       xml:space="preserve"><tspan
         x="125.82472"
         y="97.197556"
         id="tspan3225">F</tspan></text>
    <text
       x="132.40598"
       y="101.0505"
       style="font-size:9.97505569px;font-style:normal;font-weight:normal;fill:#000000;fill-opacity:1;stroke:none;stroke-width:1px;stroke-linecap:butt;stroke-linejoin:miter;stroke-opacity:1;font-family:Arial"
       id="text3227"
       xml:space="preserve"><tspan
         x="132.40598"
         y="101.0505"
         id="tspan3229">5</tspan></text>
    <path
       d="M 70.201925 17.55048 A 17.192308 17.192308 0 1 1  35.817308,17.55048 A 17.192308 17.192308 0 1 1  70.201925 17.55048 z"
       transform="translate(44.297564,132.31273)"
       style="fill:#ffffff;fill-opacity:1;fill-rule:evenodd;stroke:#000000;stroke-width:1.5;stroke-linecap:round;stroke-linejoin:miter;stroke-miterlimit:4;stroke-dasharray:none;stroke-dashoffset:0;stroke-opacity:1"
       id="path3247" />
    <g
       transform="translate(2.6789317e-2,0)"
       id="g3599">
      <text
         x="90.723763"
         y="154.14706"
         style="font-size:17.52174759px;font-style:normal;font-weight:normal;fill:#000000;fill-opacity:1;stroke:none;stroke-width:1px;stroke-linecap:butt;stroke-linejoin:miter;stroke-opacity:1;font-family:Arial"
         id="text3251"
         xml:space="preserve"><tspan
           x="90.723763"
           y="154.14706"
           id="tspan3253">F</tspan></text>
      <text
         x="97.305008"
         y="158.00002"
         style="font-size:9.97505569px;font-style:normal;font-weight:normal;fill:#000000;fill-opacity:1;stroke:none;stroke-width:1px;stroke-linecap:butt;stroke-linejoin:miter;stroke-opacity:1;font-family:Arial"
         id="text3255"
         xml:space="preserve"><tspan
           x="97.305008"
           y="158.00002"
           id="tspan3257">3</tspan></text>
    </g>
    <path
       d="M 70.201925 17.55048 A 17.192308 17.192308 0 1 1  35.817308,17.55048 A 17.192308 17.192308 0 1 1  70.201925 17.55048 z"
       transform="translate(114.49949,132.31273)"
       style="fill:#ffffff;fill-opacity:1;fill-rule:evenodd;stroke:#000000;stroke-width:1.5;stroke-linecap:round;stroke-linejoin:miter;stroke-miterlimit:4;stroke-dasharray:none;stroke-dashoffset:0;stroke-opacity:1"
       id="path3261" />
    <g
       transform="translate(4.1403845e-2,0)"
       id="g3593">
      <text
         x="160.92569"
         y="154.14706"
         style="font-size:17.52174759px;font-style:normal;font-weight:normal;fill:#000000;fill-opacity:1;stroke:none;stroke-width:1px;stroke-linecap:butt;stroke-linejoin:miter;stroke-opacity:1;font-family:Arial"
         id="text3265"
         xml:space="preserve"><tspan
           x="160.92569"
           y="154.14706"
           id="tspan3267">F</tspan></text>
      <text
         x="167.50693"
         y="158.00002"
         style="font-size:9.97505569px;font-style:normal;font-weight:normal;fill:#000000;fill-opacity:1;stroke:none;stroke-width:1px;stroke-linecap:butt;stroke-linejoin:miter;stroke-opacity:1;font-family:Arial"
         id="text3269"
         xml:space="preserve"><tspan
           x="167.50693"
           y="158.00002"
           id="tspan3271">4</tspan></text>
    </g>
    <path
       d="M 70.201925 17.55048 A 17.192308 17.192308 0 1 1  35.817308,17.55048 A 17.192308 17.192308 0 1 1  70.201925 17.55048 z"
       transform="translate(44.297564,188.90409)"
       style="fill:#ffffff;fill-opacity:1;fill-rule:evenodd;stroke:#000000;stroke-width:1.5;stroke-linecap:round;stroke-linejoin:miter;stroke-miterlimit:4;stroke-dasharray:none;stroke-dashoffset:0;stroke-opacity:1"
       id="path3275" />
    <g
       transform="translate(0.7159838,0)"
       id="g3581">
      <text
         x="90.723763"
         y="210.73842"
         style="font-size:17.52174759px;font-style:normal;font-weight:normal;fill:#000000;fill-opacity:1;stroke:none;stroke-width:1px;stroke-linecap:butt;stroke-linejoin:miter;stroke-opacity:1;font-family:Arial"
         id="text3279"
         xml:space="preserve"><tspan
           x="90.723763"
           y="210.73842"
           id="tspan3281">F</tspan></text>
      <text
         x="97.305008"
         y="214.59135"
         style="font-size:9.97505569px;font-style:normal;font-weight:normal;fill:#000000;fill-opacity:1;stroke:none;stroke-width:1px;stroke-linecap:butt;stroke-linejoin:miter;stroke-opacity:1;font-family:Arial"
         id="text3283"
         xml:space="preserve"><tspan
           x="97.305008"
           y="214.59135"
           id="tspan3285">1</tspan></text>
    </g>
    <path
       d="M 70.201925 17.55048 A 17.192308 17.192308 0 1 1  35.817308,17.55048 A 17.192308 17.192308 0 1 1  70.201925 17.55048 z"
       transform="translate(114.49949,188.90409)"
       style="fill:#ffffff;fill-opacity:1;fill-rule:evenodd;stroke:#000000;stroke-width:1.5;stroke-linecap:round;stroke-linejoin:miter;stroke-miterlimit:4;stroke-dasharray:none;stroke-dashoffset:0;stroke-opacity:1"
       id="path3289" />
    <g
       transform="translate(6.3321692e-2,0)"
       id="g3587">
      <text
         x="160.92569"
         y="210.73842"
         style="font-size:17.52174759px;font-style:normal;font-weight:normal;fill:#000000;fill-opacity:1;stroke:none;stroke-width:1px;stroke-linecap:butt;stroke-linejoin:miter;stroke-opacity:1;font-family:Arial"
         id="text3293"
         xml:space="preserve"><tspan
           x="160.92569"
           y="210.73842"
           id="tspan3295">F</tspan></text>
      <text
         x="167.50693"
         y="214.59135"
         style="font-size:9.97505569px;font-style:normal;font-weight:normal;fill:#000000;fill-opacity:1;stroke:none;stroke-width:1px;stroke-linecap:butt;stroke-linejoin:miter;stroke-opacity:1;font-family:Arial"
         id="text3297"
         xml:space="preserve"><tspan
           x="167.50693"
           y="214.59135"
           id="tspan3299">2</tspan></text>
    </g>
    <g
       id="g3621">
      <path
         d="M 116.125,149.09375 L 116.125,150.59375 L 150.5,150.59375 L 150.5,149.09375 L 116.125,149.09375 z "
         style="fill:#000000;fill-opacity:1;fill-rule:evenodd;stroke:none;stroke-width:1.5;stroke-linecap:butt;stroke-linejoin:miter;stroke-miterlimit:4;stroke-dasharray:none;stroke-opacity:1"
         id="path3301" />
      <path
         d="M 123.958,153.47916 L 114.12471,149.86321 L 123.958,146.24726 C 122.38705,148.38212 122.3961,151.30297 123.958,153.47916 z "
         style="font-size:12px;fill-rule:evenodd;stroke-width:0.625;stroke-linejoin:round"
         id="path3627" />
    </g>
    <g
       id="g3629">
      <path
         d="M 116.125,205.6875 L 116.125,207.1875 L 150.5,207.1875 L 150.5,205.6875 L 116.125,205.6875 z "
         style="fill:#000000;fill-opacity:1;fill-rule:evenodd;stroke:none;stroke-width:1.5;stroke-linecap:butt;stroke-linejoin:miter;stroke-miterlimit:4;stroke-dasharray:none;stroke-opacity:1"
         id="path3501" />
      <path
         d="M 123.958,210.07051 L 114.12471,206.45456 L 123.958,202.83861 C 122.38705,204.97347 122.3961,207.89432 123.958,210.07051 z "
         style="font-size:12px;fill-rule:evenodd;stroke-width:0.625;stroke-linejoin:round"
         id="path3635" />
    </g>
    <g
       id="g3653">
      <path
         d="M 96.53125,167.15625 L 96.53125,187.9375 L 98.03125,187.9375 L 98.03125,167.15625 L 96.53125,167.15625 z "
         style="fill:#000000;fill-opacity:1;fill-rule:evenodd;stroke:none;stroke-width:1.5;stroke-linecap:butt;stroke-linejoin:miter;stroke-miterlimit:4;stroke-dasharray:none;stroke-opacity:1"
         id="path3503" />
      <path
         d="M 100.92313,180.0809 L 97.30718,189.91419 L 93.691232,180.0809 C 95.826086,181.65185 98.746938,181.6428 100.92313,180.0809 z "
         style="font-size:12px;fill-rule:evenodd;stroke-width:0.625;stroke-linejoin:round"
         id="path3659" />
    </g>
    <g
       id="g3637">
      <path
         d="M 166.75,167.15625 L 166.75,187.9375 L 168.25,187.9375 L 168.25,167.15625 L 166.75,167.15625 z "
         style="fill:#000000;fill-opacity:1;fill-rule:evenodd;stroke:none;stroke-width:1.5;stroke-linecap:butt;stroke-linejoin:miter;stroke-miterlimit:4;stroke-dasharray:none;stroke-opacity:1"
         id="path3505" />
      <path
         d="M 171.12505,180.0809 L 167.5091,189.91419 L 163.89315,180.0809 C 166.02801,181.65185 168.94886,181.6428 171.12505,180.0809 z "
         style="font-size:12px;fill-rule:evenodd;stroke-width:0.625;stroke-linejoin:round"
         id="path3643" />
    </g>
    <g
       id="g3645">
      <path
         d="M 111.20982,160.38004 L 110.27232,161.56754 L 151.86607,195.50504 L 152.80357,194.34879 L 111.20982,160.38004 z "
         style="fill:#000000;fill-opacity:1;fill-rule:evenodd;stroke:none;stroke-width:1.5;stroke-linecap:butt;stroke-linejoin:miter;stroke-miterlimit:4;stroke-dasharray:none;stroke-opacity:1"
         id="path3509" />
      <path
         d="M 148.54936,187.16374 L 153.87905,196.18389 L 143.97537,192.76543 C 146.54244,192.1054 148.38279,189.83723 148.54936,187.16374 z "
         style="font-size:12px;fill-rule:evenodd;stroke-width:0.625;stroke-linejoin:round"
         id="path3651" />
    </g>
    <g
       id="g3605">
      <path
         d="M 122.5625,107.1875 L 106.625,133.0625 L 107.875,133.84375 L 123.8125,107.96875 L 122.5625,107.1875 z "
         style="fill:#000000;fill-opacity:1;fill-rule:evenodd;stroke:none;stroke-width:1.5;stroke-linecap:butt;stroke-linejoin:miter;stroke-miterlimit:4;stroke-dasharray:none;stroke-opacity:1"
         id="path3521" />
      <path
         d="M 114.45599,128.66859 L 106.21829,135.1423 L 108.29954,124.87405 C 109.29266,127.33153 111.7839,128.85638 114.45599,128.66859 z "
         style="font-size:12px;fill-rule:evenodd;stroke-width:0.625;stroke-linejoin:round"
         id="path3611" />
    </g>
    <g
       id="g3613">
      <path
         d="M 141.90625,107.1875 L 140.625,107.96875 L 156.5625,133.84375 L 157.84375,133.0625 L 141.90625,107.1875 z "
         style="fill:#000000;fill-opacity:1;fill-rule:evenodd;stroke:none;stroke-width:1.5;stroke-linecap:butt;stroke-linejoin:miter;stroke-miterlimit:4;stroke-dasharray:none;stroke-opacity:1"
         id="path3527" />
      <path
         d="M 156.1831,124.85892 L 158.26435,135.12718 L 150.02665,128.65346 C 152.6683,128.87065 155.15004,127.33039 156.1831,124.85892 z "
         style="font-size:12px;fill-rule:evenodd;stroke-width:0.625;stroke-linejoin:round"
         id="path3619" />
    </g>
  </g>
</svg>
