<svg version="1.1" viewBox="0.0 0.0 202.14173228346456 212.13910761154855" fill="none" stroke="none" stroke-linecap="square" stroke-miterlimit="10" xmlns:xlink="http://www.w3.org/1999/xlink" xmlns="http://www.w3.org/2000/svg"><clipPath id="p.0"><path d="m0 0l202.14174 0l0 212.13911l-202.14174 0l0 -212.13911z" clip-rule="nonzero"/></clipPath><g clip-path="url(#p.0)"><path fill="#ffffff" d="m0 0l202.14174 0l0 212.13911l-202.14174 0z" fill-rule="evenodd"/><path fill="#ffffff" d="m3.792651 32.019684l0 0c0 -14.611628 11.845064 -26.456692 26.456694 -26.456692l0 0c7.0167503 0 13.746113 2.7873936 18.707706 7.7489862c4.9615936 4.9615927 7.7489853 11.690955 7.7489853 18.707706l0 0c0 14.6116295 -11.845062 26.456696 -26.456692 26.456696l0 0c-14.611629 0 -26.456694 -11.845066 -26.456694 -26.456696z" fill-rule="evenodd"/><path stroke="#000000" stroke-width="3.0" stroke-linejoin="round" stroke-linecap="butt" d="m3.792651 32.019684l0 0c0 -14.611628 11.845064 -26.456692 26.456694 -26.456692l0 0c7.0167503 0 13.746113 2.7873936 18.707706 7.7489862c4.9615936 4.9615927 7.7489853 11.690955 7.7489853 18.707706l0 0c0 14.6116295 -11.845062 26.456696 -26.456692 26.456696l0 0c-14.611629 0 -26.456694 -11.845066 -26.456694 -26.456696z" fill-rule="evenodd"/><path fill="#000000" d="m20.826424 24.900932l0 5.296875l6.703125 0l0 2.203125l-6.703125 0l0 9.21875l-2.609375 0l0 -19.0625l11.78125 0l0 2.34375l-9.171875 0zm12.445053 7.40625l-0.875 -0.609375l0 -9.21875l9.484375 0l0 2.203125l-7.015625 0l0 4.640625q0.96875 -0.71875 2.4375 -0.71875q2.65625 0 4.0625 1.59375q1.40625 1.578125 1.40625 4.515625q0 7.171875 -6.390625 7.171875q-2.671875 0 -4.4375 -1.484375l1.0 -2.171875q1.78125 1.4375 3.421875 1.4375q3.671875 0 3.671875 -4.578125q0 -4.265625 -3.625 -4.265625q-1.75 0 -3.140625 1.484375z" fill-rule="nonzero"/><path fill="#ffffff" d="m145.4357 106.06956l0 0c0 -14.611633 11.845062 -26.456696 26.456696 -26.456696l0 0c7.016739 0 13.746109 2.7873917 18.707703 7.7489853c4.9615936 4.9615936 7.7489777 11.690956 7.7489777 18.70771l0 0c0 14.611626 -11.845062 26.456688 -26.45668 26.456688l0 0c-14.611633 0 -26.456696 -11.845062 -26.456696 -26.456688z" fill-rule="evenodd"/><path stroke="#000000" stroke-width="3.0" stroke-linejoin="round" stroke-linecap="butt" d="m145.4357 106.06956l0 0c0 -14.611633 11.845062 -26.456696 26.456696 -26.456696l0 0c7.016739 0 13.746109 2.7873917 18.707703 7.7489853c4.9615936 4.9615936 7.7489777 11.690956 7.7489777 18.70771l0 0c0 14.611626 -11.845062 26.456688 -26.45668 26.456688l0 0c-14.611633 0 -26.456696 -11.845062 -26.456696 -26.456688z" fill-rule="evenodd"/><path fill="#000000" d="m162.46947 98.9508l0 5.296875l6.703125 0l0 2.203125l-6.703125 0l0 9.21875l-2.609375 0l0 -19.0625l11.78125 0l0 2.34375l-9.171875 0zm20.913803 11.53125l0 5.1875l-2.484375 0l0 -5.1875l-8.671875 0l0 -1.484375l10.234375 -12.46875l0.921875 0l0 11.9375l1.921875 0l0 2.015625l-1.921875 0zm-2.484375 -8.765625l-5.59375 6.75l5.59375 0l0 -6.75z" fill-rule="nonzero"/><path fill="#ffffff" d="m3.7874017 106.06956l0 0c0 -14.611633 11.845064 -26.456696 26.456694 -26.456696l0 0c7.0167503 0 13.746113 2.7873917 18.707706 7.7489853c4.9615936 4.9615936 7.7489853 11.690956 7.7489853 18.70771l0 0c0 14.611626 -11.845062 26.456688 -26.456692 26.456688l0 0c-14.611629 0 -26.456694 -11.845062 -26.456694 -26.456688z" fill-rule="evenodd"/><path stroke="#000000" stroke-width="3.0" stroke-linejoin="round" stroke-linecap="butt" d="m3.7874017 106.06956l0 0c0 -14.611633 11.845064 -26.456696 26.456694 -26.456696l0 0c7.0167503 0 13.746113 2.7873917 18.707706 7.7489853c4.9615936 4.9615936 7.7489853 11.690956 7.7489853 18.70771l0 0c0 14.611626 -11.845062 26.456688 -26.456692 26.456688l0 0c-14.611629 0 -26.456694 -11.845062 -26.456694 -26.456688z" fill-rule="evenodd"/><path fill="#000000" d="m20.821175 98.9508l0 5.296875l6.703125 0l0 2.203125l-6.703125 0l0 9.21875l-2.609375 0l0 -19.0625l11.78125 0l0 2.34375l-9.171875 0zm10.851303 15.359375l1.25 -2.0q1.265625 1.40625 3.21875 1.40625q3.625 0 3.625 -3.546875q0 -1.609375 -1.0625 -2.609375q-1.046875 -1.015625 -2.796875 -1.015625l-0.203125 0l0 -2.109375l0.125 0q3.296875 0 3.296875 -2.90625q0 -3.046875 -3.109375 -3.046875q-1.6875 0 -2.6875 1.125l-1.171875 -1.765625q1.21875 -1.578125 4.0625 -1.578125q2.484375 0 4.0625 1.34375q1.578125 1.328125 1.578125 3.40625q0 1.59375 -0.875 2.8125q-0.875 1.21875 -2.0625 1.640625q1.640625 0.53125 2.609375 1.8125q0.96875 1.28125 0.96875 3.109375q0 2.65625 -1.6875 4.109375q-1.671875 1.4375 -4.703125 1.4375q-1.28125 0 -2.5 -0.46875q-1.21875 -0.484375 -1.9375 -1.15625z" fill-rule="nonzero"/><path fill="#ffffff" d="m74.61155 180.11942l0 0c0 -14.611618 11.845062 -26.45668 26.456696 -26.45668l0 0c7.0167465 0 13.746109 2.787384 18.707703 7.7489777c4.9615936 4.9615936 7.7489853 11.690964 7.7489853 18.707703l0 0c0 14.611633 -11.845062 26.456696 -26.456688 26.456696l0 0c-14.611633 0 -26.456696 -11.845062 -26.456696 -26.456696z" fill-rule="evenodd"/><path stroke="#000000" stroke-width="3.0" stroke-linejoin="round" stroke-linecap="butt" d="m74.61155 180.11942l0 0c0 -14.611618 11.845062 -26.45668 26.456696 -26.45668l0 0c7.0167465 0 13.746109 2.787384 18.707703 7.7489777c4.9615936 4.9615936 7.7489853 11.690964 7.7489853 18.707703l0 0c0 14.611633 -11.845062 26.456696 -26.456688 26.456696l0 0c-14.611633 0 -26.456696 -11.845062 -26.456696 -26.456696z" fill-rule="evenodd"/><path fill="#000000" d="m91.64532 173.00067l0 5.296875l6.703125 0l0 2.203125l-6.703125 0l0 9.21875l-2.609375 0l0 -19.0625l11.78125 0l0 2.34375l-9.171875 0zm10.320053 16.71875l0 -0.515625l5.984375 -9.15625q1.875 -2.875 1.875 -4.875q0 -2.640625 -2.984375 -2.640625q-1.046875 0 -1.984375 0.546875q-0.921875 0.546875 -1.328125 1.40625l-1.6875 -1.390625q0.4375 -1.265625 1.734375 -2.015625q1.296875 -0.765625 3.140625 -0.765625q2.734375 0 4.28125 1.265625q1.5625 1.265625 1.5625 3.59375q0 2.140625 -2.0625 5.40625l-4.28125 6.796875l7.46875 0l0 2.34375l-11.71875 0z" fill-rule="nonzero"/><path fill="#ffffff" d="m3.7874017 180.11942l0 0c0 -14.611618 11.845064 -26.45668 26.456694 -26.45668l0 0c7.0167503 0 13.746113 2.787384 18.707706 7.7489777c4.9615936 4.9615936 7.7489853 11.690964 7.7489853 18.707703l0 0c0 14.611633 -11.845062 26.456696 -26.456692 26.456696l0 0c-14.611629 0 -26.456694 -11.845062 -26.456694 -26.456696z" fill-rule="evenodd"/><path stroke="#000000" stroke-width="3.0" stroke-linejoin="round" stroke-linecap="butt" d="m3.7874017 180.11942l0 0c0 -14.611618 11.845064 -26.45668 26.456694 -26.45668l0 0c7.0167503 0 13.746113 2.787384 18.707706 7.7489777c4.9615936 4.9615936 7.7489853 11.690964 7.7489853 18.707703l0 0c0 14.611633 -11.845062 26.456696 -26.456692 26.456696l0 0c-14.611629 0 -26.456694 -11.845062 -26.456694 -26.456696z" fill-rule="evenodd"/><path fill="#000000" d="m20.821175 173.00067l0 5.296875l6.703125 0l0 2.203125l-6.703125 0l0 9.21875l-2.609375 0l0 -19.0625l11.78125 0l0 2.34375l-9.171875 0zm15.913803 16.71875l0 -14.609375l-3.875 2.40625l0 -2.421875q1.46875 -0.75 3.125 -2.046875q1.65625 -1.296875 2.5625 -2.46875l0.78125 0l0 19.140625l-2.59375 0z" fill-rule="nonzero"/><path fill="#ffffff" d="m145.4357 180.11942l0 0c0 -14.611618 11.845062 -26.45668 26.456696 -26.45668l0 0c7.016739 0 13.746109 2.787384 18.707703 7.7489777c4.9615936 4.9615936 7.7489777 11.690964 7.7489777 18.707703l0 0c0 14.611633 -11.845062 26.456696 -26.45668 26.456696l0 0c-14.611633 0 -26.456696 -11.845062 -26.456696 -26.456696z" fill-rule="evenodd"/><path stroke="#000000" stroke-width="3.0" stroke-linejoin="round" stroke-linecap="butt" d="m145.4357 180.11942l0 0c0 -14.611618 11.845062 -26.45668 26.456696 -26.45668l0 0c7.016739 0 13.746109 2.787384 18.707703 7.7489777c4.9615936 4.9615936 7.7489777 11.690964 7.7489777 18.707703l0 0c0 14.611633 -11.845062 26.456696 -26.45668 26.456696l0 0c-14.611633 0 -26.456696 -11.845062 -26.456696 -26.456696z" fill-rule="evenodd"/><path fill="#000000" d="m162.46947 173.00067l0 5.296875l6.703125 0l0 2.203125l-6.703125 0l0 9.21875l-2.609375 0l0 -19.0625l11.78125 0l0 2.34375l-9.171875 0zm10.257553 6.609375q0 -4.109375 1.671875 -6.703125q1.671875 -2.59375 4.6875 -2.59375q2.984375 0 4.484375 2.171875q1.515625 2.15625 1.515625 7.53125q0 4.640625 -1.578125 7.3125q-1.578125 2.65625 -4.609375 2.65625q-3.03125 0 -4.609375 -2.140625q-1.5625 -2.15625 -1.5625 -8.234375zm2.609375 0.234375q0 7.921875 3.375 7.921875q1.953125 0 2.859375 -1.75q0.90625 -1.765625 0.90625 -6.15625q0 -3.046875 -0.359375 -4.453125q-0.34375 -1.421875 -1.125 -2.140625q-0.78125 -0.734375 -1.96875 -0.734375q-3.6875 0 -3.6875 7.3125z" fill-rule="nonzero"/><path fill="#000000" fill-opacity="0.0" d="m30.249344 58.47638l0 21.133858" fill-rule="evenodd"/><path stroke="#000000" stroke-width="2.0" stroke-linejoin="round" stroke-linecap="butt" d="m30.249344 58.47638l0 9.133858" fill-rule="evenodd"/><path fill="#000000" stroke="#000000" stroke-width="2.0" stroke-linecap="butt" d="m26.945879 67.61024l3.303465 9.076195l3.303463 -9.076195z" fill-rule="evenodd"/><path fill="#000000" fill-opacity="0.0" d="m48.95705 50.72739l104.220474 36.629925" fill-rule="evenodd"/><path stroke="#000000" stroke-width="2.0" stroke-linejoin="round" stroke-linecap="butt" d="m48.95705 50.727394l92.89937 32.65094" fill-rule="evenodd"/><path fill="#000000" stroke="#000000" stroke-width="2.0" stroke-linecap="butt" d="m140.76103 86.4949l9.658096 -0.10707092l-7.467346 -6.1260757z" fill-rule="evenodd"/><path fill="#000000" fill-opacity="0.0" d="m145.4357 106.06956l-88.72441 0" fill-rule="evenodd"/><path stroke="#000000" stroke-width="2.0" stroke-linejoin="round" stroke-linecap="butt" d="m145.4357 106.06956l-76.72441 0" fill-rule="evenodd"/><path fill="#000000" stroke="#000000" stroke-width="2.0" stroke-linecap="butt" d="m68.71129 102.76609l-9.076199 3.3034668l9.076199 3.3034592z" fill-rule="evenodd"/><path fill="#000000" fill-opacity="0.0" d="m153.18468 124.77726l-33.41732 36.62992" fill-rule="evenodd"/><path stroke="#000000" stroke-width="2.0" stroke-linejoin="round" stroke-linecap="butt" d="m153.18468 124.77726l-25.329704 27.764793" fill-rule="evenodd"/><path fill="#000000" stroke="#000000" stroke-width="2.0" stroke-linecap="butt" d="m125.414505 150.31563l-3.6765976 8.931564l8.557533 -4.4786987z" fill-rule="evenodd"/><path fill="#000000" fill-opacity="0.0" d="m127.52493 180.11942l17.921265 0" fill-rule="evenodd"/><path stroke="#000000" stroke-width="2.0" stroke-linejoin="round" stroke-linecap="butt" d="m127.52493 180.11942l5.9212646 0" fill-rule="evenodd"/><path fill="#000000" stroke="#000000" stroke-width="2.0" stroke-linecap="butt" d="m133.4462 183.42288l9.076187 -3.3034668l-9.076187 -3.3034515z" fill-rule="evenodd"/><path fill="#000000" fill-opacity="0.0" d="m74.61155 180.11942l-17.92126 0" fill-rule="evenodd"/><path stroke="#000000" stroke-width="2.0" stroke-linejoin="round" stroke-linecap="butt" d="m74.61155 180.11942l-5.921257 0" fill-rule="evenodd"/><path fill="#000000" stroke="#000000" stroke-width="2.0" stroke-linecap="butt" d="m68.690285 176.81596l-9.076191 3.3034515l9.076191 3.3034668z" fill-rule="evenodd"/><path fill="#000000" fill-opacity="0.0" d="m48.9518 124.77726l33.417324 36.62992" fill-rule="evenodd"/><path stroke="#000000" stroke-width="2.0" stroke-linejoin="round" stroke-linecap="butt" d="m48.9518 124.77726l25.329708 27.764793" fill-rule="evenodd"/><path fill="#000000" stroke="#000000" stroke-width="2.0" stroke-linecap="butt" d="m71.84104 154.7685l8.557533 4.4786987l-3.6765976 -8.931564z" fill-rule="evenodd"/><path fill="#000000" fill-opacity="0.0" d="m30.244095 132.52625l0 21.133865" fill-rule="evenodd"/><path stroke="#000000" stroke-width="2.0" stroke-linejoin="round" stroke-linecap="butt" d="m30.244095 132.52625l0 9.133865" fill-rule="evenodd"/><path fill="#000000" stroke="#000000" stroke-width="2.0" stroke-linecap="butt" d="m26.94063 141.66011l3.303465 9.076187l3.303463 -9.076187z" fill-rule="evenodd"/><path fill="#ffffff" d="m145.44095 32.019684l0 0c0 -14.611628 11.845062 -26.456692 26.456696 -26.456692l0 0c7.016739 0 13.746109 2.7873936 18.707703 7.7489862c4.9615936 4.9615927 7.7489777 11.690955 7.7489777 18.707706l0 0c0 14.6116295 -11.845062 26.456696 -26.45668 26.456696l0 0c-14.611633 0 -26.456696 -11.845066 -26.456696 -26.456696z" fill-rule="evenodd"/><path stroke="#000000" stroke-width="3.0" stroke-linejoin="round" stroke-linecap="butt" d="m145.44095 32.019684l0 0c0 -14.611628 11.845062 -26.456692 26.456696 -26.456692l0 0c7.016739 0 13.746109 2.7873936 18.707703 7.7489862c4.9615936 4.9615927 7.7489777 11.690955 7.7489777 18.707706l0 0c0 14.6116295 -11.845062 26.456696 -26.45668 26.456696l0 0c-14.611633 0 -26.456696 -11.845066 -26.456696 -26.456696z" fill-rule="evenodd"/><path fill="#000000" d="m162.47472 24.900932l0 5.296875l6.703125 0l0 2.203125l-6.703125 0l0 9.21875l-2.609375 0l0 -19.0625l11.78125 0l0 2.34375l-9.171875 0zm18.179428 -2.6875l1.265625 1.390625q-1.15625 0.453125 -3.328125 3.078125q-2.15625 2.625 -2.390625 4.046875q1.078125 -1.046875 3.0 -1.046875q2.53125 0 4.046875 1.625q1.53125 1.609375 1.53125 4.421875q0 2.8125 -1.578125 4.515625q-1.5625 1.703125 -3.9375 1.703125q-6.265625 0 -6.265625 -8.3125q0 -3.46875 2.453125 -7.09375q2.453125 -3.625 5.203125 -4.328125zm-4.921875 13.4375q0 4.078125 3.34375 4.078125q1.40625 0 2.21875 -1.0625q0.8125 -1.0625 0.8125 -2.796875q0 -1.8125 -0.859375 -2.890625q-0.859375 -1.078125 -2.21875 -1.078125q-3.296875 0 -3.296875 3.75z" fill-rule="nonzero"/><path fill="#000000" fill-opacity="0.0" d="m171.89764 58.47638l0 21.133858" fill-rule="evenodd"/><path stroke="#000000" stroke-width="2.0" stroke-linejoin="round" stroke-linecap="butt" d="m171.89764 58.47638l0 9.133858" fill-rule="evenodd"/><path fill="#000000" stroke="#000000" stroke-width="2.0" stroke-linecap="butt" d="m168.59418 67.61024l3.3034668 9.076195l3.3034515 -9.076195z" fill-rule="evenodd"/><path fill="#000000" fill-opacity="0.0" d="m145.44095 32.019684l-88.72441 0" fill-rule="evenodd"/><path stroke="#000000" stroke-width="2.0" stroke-linejoin="round" stroke-linecap="butt" d="m145.44095 32.019684l-76.72441 0" fill-rule="evenodd"/><path fill="#000000" stroke="#000000" stroke-width="2.0" stroke-linecap="butt" d="m68.71654 28.71622l-9.076199 3.303463l9.076199 3.3034668z" fill-rule="evenodd"/></g></svg>